<svg xmlns="http://www.w3.org/2000/svg" width="59.24" height="82.061" viewBox="0 0 59.24 82.061">
  <g id="mobile-app-developing" transform="translate(-68.131)">
    <path id="Tracé_20" data-name="Tracé 20" d="M114.021,54.351a1.675,1.675,0,0,0-1.675,1.675v7.458H71.479V12.106h40.867v7.706a1.675,1.675,0,0,0,3.349,0V1.675A1.675,1.675,0,0,0,114.021,0H69.8A1.675,1.675,0,0,0,68.13,1.675V80.386A1.675,1.675,0,0,0,69.8,82.06h44.216a1.675,1.675,0,0,0,1.675-1.675V56.026A1.675,1.675,0,0,0,114.021,54.351Zm-1.675-51V8.756H71.479V3.349ZM71.479,78.711V66.833h40.867V78.711Z" fill="#5878cf"/>
    <ellipse id="Ellipse_1" data-name="Ellipse 1" cx="2.531" cy="2.534" rx="2.531" ry="2.534" transform="translate(89.395 70.12)" fill="#5878cf"/>
    <path id="Tracé_21" data-name="Tracé 21" d="M156.492,214.684a1.673,1.673,0,0,0-2.15-.993l-1.078.4a8.212,8.212,0,0,0-.51-.723l.735-.884a1.675,1.675,0,1,0-2.574-2.145l-.733.881a8.092,8.092,0,0,0-.8-.373l.195-1.128a1.675,1.675,0,1,0-3.3-.569l-.194,1.129a7.983,7.983,0,0,0-.883.082l-.4-1.076a1.675,1.675,0,1,0-3.143,1.16l.4,1.079a8.139,8.139,0,0,0-.722.511l-.883-.736a1.676,1.676,0,0,0-2.144,2.577l.88.734a8.011,8.011,0,0,0-.373.805l-1.127-.194a1.676,1.676,0,0,0-1.935,1.368h0a1.675,1.675,0,0,0,1.366,1.937l1.127.194a8.115,8.115,0,0,0,.082.883l-1.075.4a1.676,1.676,0,0,0,1.157,3.146l1.078-.4a8.136,8.136,0,0,0,.51.723l-.735.884a1.675,1.675,0,1,0,2.574,2.145l.733-.882a8.1,8.1,0,0,0,.8.373l-.195,1.129a1.675,1.675,0,1,0,3.3.569l.195-1.129a8.052,8.052,0,0,0,.882-.082l.4,1.076a1.675,1.675,0,1,0,3.143-1.16l-.4-1.079a8.137,8.137,0,0,0,.722-.51l.883.736a1.676,1.676,0,0,0,2.143-2.578l-.88-.733a8.1,8.1,0,0,0,.373-.805l1.127.194A1.676,1.676,0,0,0,157,220.247h0a1.676,1.676,0,0,0-1.366-1.937l-1.127-.194a8,8,0,0,0-.082-.883l1.075-.4A1.678,1.678,0,0,0,156.492,214.684Zm-5.4,4.546h0a4.787,4.787,0,1,1-9.436-1.626h0a4.787,4.787,0,1,1,9.436,1.626Z" transform="translate(-56.275 -172.962)" fill="#5878cf"/>
    <path id="Tracé_22" data-name="Tracé 22" d="M287.462,157.476H285.6a9.893,9.893,0,0,0-.478-1.789l1.61-.931a1.675,1.675,0,0,0-1.676-2.9l-1.612.932a10.067,10.067,0,0,0-1.305-1.306l.932-1.617a1.675,1.675,0,0,0-2.9-1.673l-.929,1.611a9.86,9.86,0,0,0-1.783-.477v-1.864a1.675,1.675,0,0,0-3.35,0v1.864a9.856,9.856,0,0,0-1.783.477l-.929-1.611a1.675,1.675,0,0,0-2.9,1.673l.932,1.617a10.055,10.055,0,0,0-1.305,1.306l-1.612-.932a1.675,1.675,0,0,0-1.676,2.9l1.61.931a9.91,9.91,0,0,0-.478,1.789h-1.859a1.675,1.675,0,0,0-1.675,1.675h0a1.675,1.675,0,0,0,1.675,1.675h1.859a9.9,9.9,0,0,0,.478,1.789l-1.61.931a1.675,1.675,0,0,0,1.676,2.9l1.612-.932a10.065,10.065,0,0,0,1.305,1.306l-.932,1.617a1.675,1.675,0,0,0,2.9,1.673l.929-1.611a9.875,9.875,0,0,0,1.783.477v1.864a1.675,1.675,0,0,0,3.35,0v-1.864a9.857,9.857,0,0,0,1.783-.477l.929,1.611a1.675,1.675,0,0,0,2.9-1.673l-.932-1.617a10.057,10.057,0,0,0,1.305-1.306l1.612.932a1.675,1.675,0,0,0,1.676-2.9l-1.61-.931a9.908,9.908,0,0,0,.478-1.789h1.859a1.675,1.675,0,0,0,1.675-1.675h0A1.675,1.675,0,0,0,287.462,157.476Zm-5.065,1.675h0a6.61,6.61,0,1,1-13.221,0h0a6.61,6.61,0,1,1,13.221,0Z" transform="translate(-161.766 -121.372)" fill="#5878cf"/>
  </g>
</svg>
