<svg xmlns="http://www.w3.org/2000/svg" width="774.18" height="685.981" viewBox="0 0 774.18 685.981">
  <g id="people-app" transform="translate(0 -0.007)">
    <path id="Tracé_290" data-name="Tracé 290" d="M490.192,354.054c-30.257-9.793-62.249-18-94.944-17.156-48.067,1.248-94.282,23.648-117.076,56.754-19.267,28.054-21.839,61.026-30.249,92.222C237.56,524.307,217.891,560.78,196.9,596.449c-11.275,19.158-23.171,38.718-25.131,59.769-2.689,29.227,15.02,58.446,42.94,78.031s65.072,30.023,102.4,32.461c19.862,1.29,40.62.293,58.3-6.861,18.706-7.539,32.385-21.336,51.166-28.792,17.407-6.9,37.7-7.791,57.223-6.777a318.377,318.377,0,0,1,74.605,12.783c27.217,8.142,52.507,19.862,79.665,28.121s57.516,12.934,85.344,6.291c26.128-6.232,46.852-21.6,65.541-37.16a712.609,712.609,0,0,0,83.727-82.094c16.88-19.594,32.6-40.285,40.142-63.179,14.4-43.778-4.892-93.344-48.059-123.493-35.761-24.988-83.87-36.021-130.982-42.722-42.965-6.174-92.674-6.785-132.163-22.509C563.959,385.284,529.7,366.838,490.192,354.054Z" transform="translate(-143.362 -88.647)" fill="#5878cf" opacity="0.1"/>
    <ellipse id="Ellipse_57" data-name="Ellipse 57" cx="19.359" cy="2.655" rx="19.359" ry="2.655" transform="translate(713.162 409.282)" fill="#5878cf" opacity="0.1"/>
    <ellipse id="Ellipse_58" data-name="Ellipse 58" cx="19.359" cy="2.655" rx="19.359" ry="2.655" transform="translate(639.001 416.804)" fill="#5878cf" opacity="0.1"/>
    <ellipse id="Ellipse_59" data-name="Ellipse 59" cx="19.359" cy="2.655" rx="19.359" ry="2.655" transform="translate(551.647 406.626)" fill="#5878cf" opacity="0.1"/>
    <ellipse id="Ellipse_60" data-name="Ellipse 60" cx="13.763" cy="1.893" rx="13.763" ry="1.893" transform="translate(674.277 438.978)" fill="#5878cf" opacity="0.1"/>
    <ellipse id="Ellipse_61" data-name="Ellipse 61" cx="13.763" cy="1.893" rx="13.763" ry="1.893" transform="translate(597.309 437.085)" fill="#5878cf" opacity="0.1"/>
    <path id="Tracé_291" data-name="Tracé 291" d="M907.359,512.089s27.158-89.013-4.247-124.666c-23.455-26.672-50.161-23.455-62.1-20.18a22.048,22.048,0,0,0-14.241,11.837c-4.189,9.005-3.418,23.623,26.052,40.687,49.349,28.574,52.423,67.769,52.423,67.769Z" transform="translate(-249.417 -93.232)" fill="#5878cf"/>
    <path id="Tracé_292" data-name="Tracé 292" d="M849.2,382.73s80.05,25.03,62.1,132.222" transform="translate(-253.357 -96.095)" fill="none" stroke="#565987" stroke-miterlimit="10" stroke-width="1"/>
    <path id="Tracé_293" data-name="Tracé 293" d="M903.407,393.44s-11.024,7.43-7.539,18.588" transform="translate(-260.821 -97.834)" fill="none" stroke="#565987" stroke-miterlimit="10" stroke-width="1"/>
    <path id="Tracé_294" data-name="Tracé 294" d="M858.79,400.514s6.7-6.852,14.936-3.074" transform="translate(-254.913 -98.298)" fill="none" stroke="#565987" stroke-miterlimit="10" stroke-width="1"/>
    <path id="Tracé_295" data-name="Tracé 295" d="M896.56,442.041s11.828-6,14.886,1.516" transform="translate(-261.043 -105.354)" fill="none" stroke="#565987" stroke-miterlimit="10" stroke-width="1"/>
    <path id="Tracé_296" data-name="Tracé 296" d="M929.757,457.412s-8.888-.7-9.047,3.543" transform="translate(-264.963 -108.209)" fill="none" stroke="#565987" stroke-miterlimit="10" stroke-width="1"/>
    <path id="Tracé_297" data-name="Tracé 297" d="M915.344,529.155s-31.832-64.7-40.536-63.279c-4.188.67-6.065,4.758-6.928,8.854a26.035,26.035,0,0,0,1.734,15.749C874.129,500.833,886.25,520.493,915.344,529.155Z" transform="translate(-256.305 -109.587)" fill="#5878cf"/>
    <path id="Tracé_298" data-name="Tracé 298" d="M876.53,480.54s33.382,48.4,39.832,50.53" transform="translate(-257.792 -111.97)" fill="none" stroke="#565987" stroke-miterlimit="10" stroke-width="1"/>
    <line id="Ligne_11" data-name="Ligne 11" x2="7.791" transform="translate(615.672 376.126)" fill="none" stroke="#565987" stroke-miterlimit="10" stroke-width="1"/>
    <line id="Ligne_12" data-name="Ligne 12" x2="12.214" y2="0.519" transform="translate(625.003 393.835)" fill="none" stroke="#565987" stroke-miterlimit="10" stroke-width="1"/>
    <line id="Ligne_13" data-name="Ligne 13" x1="1.324" y2="6.358" transform="translate(631.11 379.669)" fill="none" stroke="#565987" stroke-miterlimit="10" stroke-width="1"/>
    <line id="Ligne_14" data-name="Ligne 14" x1="0.235" y2="5.78" transform="translate(645.184 399.028)" fill="none" stroke="#565987" stroke-miterlimit="10" stroke-width="1"/>
    <path id="Tracé_299" data-name="Tracé 299" d="M923.52,529.155s31.832-64.7,40.536-63.279c4.188.67,6.065,4.758,6.928,8.854a26.036,26.036,0,0,1-1.734,15.749C964.734,500.833,952.613,520.493,923.52,529.155Z" transform="translate(-265.419 -109.587)" fill="#5878cf"/>
    <path id="Tracé_300" data-name="Tracé 300" d="M963.912,480.54s-33.382,48.4-39.832,50.53" transform="translate(-265.51 -111.97)" fill="none" stroke="#565987" stroke-miterlimit="10" stroke-width="1"/>
    <line id="Ligne_15" data-name="Ligne 15" x1="7.791" transform="translate(693.678 376.126)" fill="none" stroke="#565987" stroke-miterlimit="10" stroke-width="1"/>
    <line id="Ligne_16" data-name="Ligne 16" x1="12.214" y2="0.519" transform="translate(679.923 393.835)" fill="none" stroke="#565987" stroke-miterlimit="10" stroke-width="1"/>
    <line id="Ligne_17" data-name="Ligne 17" x2="1.324" y2="6.358" transform="translate(684.706 379.669)" fill="none" stroke="#565987" stroke-miterlimit="10" stroke-width="1"/>
    <line id="Ligne_18" data-name="Ligne 18" x2="0.243" y2="5.78" transform="translate(671.713 399.028)" fill="none" stroke="#565987" stroke-miterlimit="10" stroke-width="1"/>
    <path id="Tracé_301" data-name="Tracé 301" d="M857.964,557.765a5.564,5.564,0,0,1-1.809-2.731,2.438,2.438,0,0,1,1.265-2.789c1.164-.444,2.4.36,3.351,1.181s2.019,1.734,3.25,1.567a4.951,4.951,0,0,1-1.525-4.633,1.944,1.944,0,0,1,.419-.947c.645-.687,1.818-.385,2.589.151,2.454,1.734,3.141,5.068,3.158,8.067a15.655,15.655,0,0,0,0-3.351,3.41,3.41,0,0,1,1.248-2.94,3.694,3.694,0,0,1,1.9-.452,3.954,3.954,0,0,1,3.091.88,3.088,3.088,0,0,1-.126,3.795,12.047,12.047,0,0,1-3.192,2.513,7.019,7.019,0,0,0-2.287,2.178,2.668,2.668,0,0,0-.167.385h-6.919a19.083,19.083,0,0,1-4.247-2.873Z" transform="translate(-254.473 -123.084)" fill="#5878cf"/>
    <path id="Tracé_302" data-name="Tracé 302" d="M1002.634,526.656a5.487,5.487,0,0,1-1.809-2.731,2.429,2.429,0,0,1,1.265-2.781c1.165-.444,2.4.36,3.351,1.173s2.027,1.742,3.259,1.567a4.934,4.934,0,0,1-1.533-4.633,1.852,1.852,0,0,1,.427-.938c.645-.687,1.809-.394,2.58.151,2.454,1.726,3.141,5.026,3.158,8.067a15.205,15.205,0,0,0,0-3.351,3.41,3.41,0,0,1,1.248-2.94,3.81,3.81,0,0,1,1.9-.444,3.92,3.92,0,0,1,3.091.838,3.053,3.053,0,0,1-.126,3.786,11.913,11.913,0,0,1-3.192,2.563,7.019,7.019,0,0,0-2.287,2.178,2.052,2.052,0,0,0-.168.385h-6.919a19.308,19.308,0,0,1-4.247-2.89Z" transform="translate(-277.954 -118.036)" fill="#5878cf"/>
    <path id="Tracé_303" data-name="Tracé 303" d="M954.414,557.765a5.563,5.563,0,0,1-1.809-2.731,2.438,2.438,0,0,1,1.265-2.79c1.164-.444,2.4.36,3.351,1.181s2.019,1.734,3.25,1.567a4.959,4.959,0,0,1-1.533-4.633,2.037,2.037,0,0,1,.427-.947c.645-.687,1.818-.385,2.589.151,2.454,1.734,3.141,5.068,3.158,8.067a15.668,15.668,0,0,0,.042-3.351,3.41,3.41,0,0,1,1.248-2.94,3.7,3.7,0,0,1,1.9-.452,3.954,3.954,0,0,1,3.091.88,3.088,3.088,0,0,1-.126,3.795,12.045,12.045,0,0,1-3.192,2.513,7.019,7.019,0,0,0-2.287,2.178,2.672,2.672,0,0,0-.168.385H958.7A19.083,19.083,0,0,1,954.414,557.765Z" transform="translate(-270.127 -123.084)" fill="#5878cf"/>
    <path id="Tracé_304" data-name="Tracé 304" d="M816.922,496.58s-2.6,3.393,1.2,8.511,6.911,9.449,5.654,12.641c0,0-5.721-9.508-10.379-9.642S811.795,502.3,816.922,496.58Z" transform="translate(-247.172 -114.574)" fill="#5878cf"/>
    <path id="Tracé_305" data-name="Tracé 305" d="M816.922,496.58a4.094,4.094,0,0,0-.536,1.064c-4.54,5.336-6.961,10.32-2.6,10.446,4.071.117,8.955,7.388,10.119,9.215a1.287,1.287,0,0,1-.134.419s-5.721-9.508-10.379-9.642S811.795,502.3,816.922,496.58Z" transform="translate(-247.172 -114.574)" opacity="0.1"/>
    <path id="Tracé_306" data-name="Tracé 306" d="M812.29,501.592c0,1.2.134,2.161.3,2.161s.293-.963.293-2.161-.168-.628-.327-.628S812.29,500.4,812.29,501.592Z" transform="translate(-247.366 -115.263)" fill="#ffd037"/>
    <path id="Tracé_307" data-name="Tracé 307" d="M810.186,503.283c1.047.578,1.969.922,2.044.779s-.7-.729-1.751-1.3-.637-.159-.72,0S809.139,502.713,810.186,503.283Z" transform="translate(-246.921 -115.53)" fill="#ffd037"/>
    <path id="Tracé_308" data-name="Tracé 308" d="M833.018,496.58s2.6,3.393-1.2,8.511-6.911,9.449-5.646,12.641c0,0,5.713-9.508,10.371-9.642S838.145,502.3,833.018,496.58Z" transform="translate(-249.573 -114.574)" fill="#5878cf"/>
    <path id="Tracé_309" data-name="Tracé 309" d="M833.046,496.58a4.1,4.1,0,0,1,.536,1.064c4.54,5.336,6.961,10.32,2.6,10.446-4.071.117-8.955,7.388-10.119,9.215a3.538,3.538,0,0,0,.142.419s5.713-9.508,10.371-9.642S838.173,502.3,833.046,496.58Z" transform="translate(-249.601 -114.574)" opacity="0.1"/>
    <path id="Tracé_310" data-name="Tracé 310" d="M840.045,501.592c0,1.2-.134,2.161-.3,2.161s-.293-.963-.293-2.161.168-.628.327-.628S840.045,500.4,840.045,501.592Z" transform="translate(-251.774 -115.263)" fill="#ffd037"/>
    <path id="Tracé_311" data-name="Tracé 311" d="M841.743,503.283c-1.047.578-1.969.922-2.044.779s.7-.729,1.751-1.3.637-.159.72,0S842.79,502.713,841.743,503.283Z" transform="translate(-251.814 -115.53)" fill="#ffd037"/>
    <path id="Tracé_312" data-name="Tracé 312" d="M833.936,520.541s-7.246-.218-9.432-1.776-11.158-3.418-11.728-.921-10.89,12.415-2.714,12.482,19.032-1.273,21.21-2.605S833.936,520.541,833.936,520.541Z" transform="translate(-246.495 -117.827)" fill="#a8a8a8"/>
    <path id="Tracé_313" data-name="Tracé 313" d="M809.944,530.211c8.184.067,19.024-1.273,21.21-2.605,1.675-1.005,2.32-4.641,2.513-6.316h.234s-.452,5.864-2.639,7.179-13.018,2.672-21.21,2.605c-2.362,0-3.175-.838-3.133-2.1C807.28,529.734,808.185,530.2,809.944,530.211Z" transform="translate(-246.494 -118.584)" opacity="0.2"/>
    <circle id="Ellipse_62" data-name="Ellipse 62" cx="18.119" cy="18.119" r="18.119" transform="translate(89.935 32.579)" fill="#5878cf" opacity="0.1"/>
    <circle id="Ellipse_63" data-name="Ellipse 63" cx="18.119" cy="18.119" r="18.119" transform="translate(403.325 3.98)" fill="#5878cf" opacity="0.1"/>
    <circle id="Ellipse_64" data-name="Ellipse 64" cx="18.119" cy="18.119" r="18.119" transform="translate(690.779 75.561)" fill="#5878cf" opacity="0.1"/>
    <circle id="Ellipse_65" data-name="Ellipse 65" cx="30.366" cy="30.366" r="30.366" transform="translate(0 186.472)" fill="#5878cf" opacity="0.1"/>
    <circle id="Ellipse_66" data-name="Ellipse 66" cx="30.366" cy="30.366" r="30.366" transform="translate(29.11 336.419)" fill="#5878cf" opacity="0.1"/>
    <circle id="Ellipse_67" data-name="Ellipse 67" cx="30.366" cy="30.366" r="30.366" transform="translate(597.837 204.155)" fill="#5878cf" opacity="0.1"/>
    <path id="Tracé_314" data-name="Tracé 314" d="M582.934,387.617c-1.072.1-2.161.05-3.225.218a14.685,14.685,0,0,0-5.026,2.019c-7.623,4.339-14.819,10.3-17.977,18.479a2.513,2.513,0,0,0-.235,1.634,2.764,2.764,0,0,0,.888,1.156l2.965,2.7a4.189,4.189,0,0,0,1.315.921,4.3,4.3,0,0,0,2.429-.075c8.151-1.868,16.813-4.021,22.534-10.119,2.714-2.89,5.219-6.869,9.215-6.978,1.675,0,3.242.645,4.892.838s3.636-.511,4.029-2.119a4.456,4.456,0,0,0-.268-2.371l-2.463-8.2c-.67-2.245-7.43-2.362-9.684-1.96C588.89,384.35,586.578,387.282,582.934,387.617Z" transform="translate(-205.837 -96.232)" fill="#65617d"/>
    <path id="Tracé_315" data-name="Tracé 315" d="M617.577,439.225a68.973,68.973,0,0,1-.352,8.427,24.584,24.584,0,0,1-2.086,6.325,41.523,41.523,0,0,1-5.7,8.972c-2.119,2.513-4.658,4.875-7.8,5.864s-7,.276-8.963-2.371c-1.6-2.153-1.675-5.026-1.558-7.715.285-6.609,1.324-13.311,4.289-19.225,1.273-2.513,2.89-4.909,4.188-7.447,2.714-5.269,4.264-11.518,8.947-15.154a29.414,29.414,0,0,0,9.3,2.555c1.248.134,4.817.218,5.236,1.818.285,1.081-2.061,4.1-2.513,5.169a35.275,35.275,0,0,0-2.99,12.783Z" transform="translate(-211.463 -101.641)" fill="#65617d"/>
    <path id="Tracé_316" data-name="Tracé 316" d="M582.551,291.166c1.005,2.563,2.279,5.076,2.513,7.807.168,1.675,0,3.351,0,5.026a32.828,32.828,0,0,0,1.139,6.785l4.666,19.1c.7,2.857,1.391,5.788,1.03,8.7-.243,1.943-.947,3.828-.938,5.78a22.421,22.421,0,0,0,.7,4.381,26.99,26.99,0,0,1-.7,13.319,1.993,1.993,0,0,0-.142,1.03c.117.544.645.88,1.122,1.139a47.841,47.841,0,0,0,16.168,5.386,158.367,158.367,0,0,0,10.639-37.989c1.19-7.908,1.768-15.916,3.292-23.765a1.943,1.943,0,0,1,.544-1.206c.57-.477,1.432-.176,2.1.142a187.686,187.686,0,0,1,24.637,14.241,30.777,30.777,0,0,0,5.688-25.474,52.771,52.771,0,0,0-4.188-10.957,61.9,61.9,0,0,0-7.12-11.954c-6.216-7.791-15.33-12.766-24.712-16.142-5.7-2.061-11.577-3.585-17.441-5.143-3.284-.88-8.787-3.744-11.979-1.516-3.351,2.32-5.579,8.075-6.953,11.728a43.207,43.207,0,0,0-2.731,14.149,39.975,39.975,0,0,0,2.664,15.43Z" transform="translate(-209.643 -74.395)" fill="#3f3d56"/>
    <path id="Tracé_317" data-name="Tracé 317" d="M653.142,323.639c-1.751,1.91-.276,4.959-.612,7.539a10.413,10.413,0,0,1-1.231,3.309l-8.017,15.74a29.187,29.187,0,0,0-2.982,7.539c-1.1,5.68,1.156,12.063-1.726,17.081-.93,1.617-2.371,3.007-2.756,4.833a38.722,38.722,0,0,0-.142,4.071c-.193,1.583-1.039,3.007-1.508,4.532a31.573,31.573,0,0,0-.779,4.457,26.22,26.22,0,0,1-9.416,16.285,14.978,14.978,0,0,1-10.387,3.535c-3.736-.318-7.447-2.857-8.209-6.526-.26-1.248-.209-2.639-.988-3.652-1.106-1.449-3.435-1.508-4.5-2.991l4.121-6.785c1.282-2.1,2.589-4.3,2.8-6.752.251-3.007-1.2-6.006-.679-8.98.444-2.555,2.279-4.683,2.831-7.213.687-3.141-.687-6.316-1.432-9.449-1.826-7.715.218-15.757,2.253-23.455,2.706-10.186,5.478-20.532,10.957-29.537C631.672,313.109,641.724,318.763,653.142,323.639Z" transform="translate(-212.892 -83.839)" fill="#3f3d56"/>
    <path id="Tracé_318" data-name="Tracé 318" d="M651.159,135.105c.653,1.776.3,3.744.176,5.629-.293,4.188.595,8.377.394,12.624s-1.508,8.3-2.413,12.431c-2.572,11.786-1.952,24.067-4.281,35.9-2.873,14.66-10.22,28.314-11.669,43.192-.461,4.725-.4,9.784-2.991,13.772a216.25,216.25,0,0,1-43.326-25.449c2.949-21.872,5.864-43.853,5.47-65.918a28.3,28.3,0,0,1,.553-7.941,24.487,24.487,0,0,1,2.982-6.182c3.242-5.269,6.81-10.329,10.371-15.38,2.279-3.234,4.741-6.626,8.377-8.142s7.941-.838,11.9-.117q7.154,1.307,14.291,2.614C643.971,132.684,649.885,131.646,651.159,135.105Z" transform="translate(-210.808 -54.87)" fill="#5878cf"/>
    <path id="Tracé_319" data-name="Tracé 319" d="M525.417,230.684a44.707,44.707,0,0,0-6.366-5.286c2.974-3.619,2.387-8.854,3.116-13.487a44.478,44.478,0,0,1,2.706-8.771c.3-.8.729-1.675,1.558-1.885a2.739,2.739,0,0,1,1.491.235c2.513.888,7.757.838,9.709,2.463,2.354,1.977.2,6.115-.687,8.586C536.315,214.2,526.665,231.941,525.417,230.684Z" transform="translate(-199.771 -66.638)" fill="#be6f72"/>
    <path id="Tracé_320" data-name="Tracé 320" d="M526.518,416.513a17.357,17.357,0,0,1,2.421,6.7,6.652,6.652,0,0,1-2.7,6.241c-2.027,1.257-4.934.838-7.347.084A38.233,38.233,0,0,1,495.733,408.6a10.364,10.364,0,0,0-6.082-7.2c-3.292-1.86-6.467-4.306-7.992-7.774s-.838-8.1,2.32-10.161a8.561,8.561,0,0,1,6.568-.838,25.4,25.4,0,0,1,6.216,2.706c3.25,1.768,7.221,3.292,10.052,5.646a64.791,64.791,0,0,1,6.911,7.3,102.747,102.747,0,0,1,6.894,8.8C521.307,407.968,527.1,415.7,526.518,416.513Z" transform="translate(-193.576 -96.027)" fill="#65617d"/>
    <path id="Tracé_321" data-name="Tracé 321" d="M457.6,397.457a58.021,58.021,0,0,1-2.22,12.44c-.679,2.279-1.575,4.649-3.46,6.1a12.657,12.657,0,0,1-5.286,1.935,3.791,3.791,0,0,1-4.708-2.061c-2.8-3.7-5.52-7.615-6.7-12.1-1.675-6.509,0-13.487,2.907-19.569a20.029,20.029,0,0,1,4.482-6.526,17.164,17.164,0,0,1,8.226-3.694c3.091-.62,6.886-1.943,7.112,1.818a174.774,174.774,0,0,1-.352,21.663Z" transform="translate(-186.057 -94.555)" fill="#65617d"/>
    <path id="Tracé_322" data-name="Tracé 322" d="M499.564,214.19c5.78,2.991,12.2,6.794,13.4,13.185.746,3.9-.687,7.9-.452,11.87.209,3.493,1.675,6.869,1.491,10.354a48.735,48.735,0,0,1-.838,4.9c-.494,3.091-.2,6.241-.327,9.365-.276,7.037-2.63,13.805-3.77,20.75a60.783,60.783,0,0,0-.561,15c.276,3.233.838,6.45.838,9.7a42.5,42.5,0,0,1-.578,6.988,69.695,69.695,0,0,1-6.7,20.832c-4.029,7.933-3.46,18.17-3.032,27.057a6.7,6.7,0,0,1-.452,3.619c-1.056,1.918-3.686,2.195-5.864,2.01a31.832,31.832,0,0,1-20.942-10.605,5.369,5.369,0,0,1-1.525-2.823c-.184-1.793,1.257-3.267,2.3-4.75,3.535-5.026,2.639-11.837,3.058-18.01a39.372,39.372,0,0,1,3.175-13.026c1.039-2.387,2.337-4.741,2.572-7.338a18.533,18.533,0,0,0-1.248-7.129l-2.513-7.975c-3.9-12.389-7.816-24.854-13.713-36.423a18.22,18.22,0,0,0-7.749,10.89c-2.195,7.891.93,16.7-2.061,24.293a22.21,22.21,0,0,0-1.231,3.259,13.111,13.111,0,0,0-.2,2.924,238.061,238.061,0,0,0,1.491,24.436,7.539,7.539,0,0,0,1.005,3.493c.494.712,1.215,1.24,1.742,1.918,1.466,1.9,1.19,4.565.838,6.936L456.038,351.1a3.04,3.04,0,0,1-.544,1.583,3,3,0,0,1-1.424.771,39.707,39.707,0,0,1-16.469,1.508c-1.633-.193-3.116-1.29-4.482-2.212-.142-1.675,1.943-2.79,2.019-4.457a3.845,3.845,0,0,0-1.282-2.563c-3.116-3.518-6.836-7.254-6.8-11.954,0-1.231.293-2.463.251-3.694-.109-3.158-2.287-5.864-3.049-8.9-.938-3.761.31-7.665.787-11.51.653-5.177-.117-10.421-.838-15.589L421.4,275.115a50.8,50.8,0,0,0-1.742-8.7,68.077,68.077,0,0,0-3.711-8.159c-2.681-5.445-4.884-11.108-7.079-16.754a15.271,15.271,0,0,1-1.3-4.85c-.126-2.873,1.357-5.587,3.2-7.8a24.385,24.385,0,0,1,13.4-8.126,5.864,5.864,0,0,1,2.689-.109,7.22,7.22,0,0,1,2.086,1.1,50.111,50.111,0,0,0,44.289,5.252c.838.637,2.387.36,3.351-.092,2.689-1.231,4.884-3.284,7.246-5.026C488.23,218.521,494.161,215.354,499.564,214.19Z" transform="translate(-181.676 -68.74)" fill="#3f3d56"/>
    <path id="Tracé_323" data-name="Tracé 323" d="M310.058,468.75a11.461,11.461,0,0,0,1.977,3.527c3.032,3.954,7.263,7.112,9.215,11.728.41.988.712,2.027,1.089,3.032a19.946,19.946,0,0,0,5.445,7.891,33.509,33.509,0,0,0,6.006,3.979c3.7,2.019,7.707,3.845,11.912,3.736a12.94,12.94,0,0,0,2.513-.3,13.6,13.6,0,0,0,3.745-1.374c2.706-1.491,5.026-4.406,4.49-7.447a6.811,6.811,0,0,0-.544-1.675,17.593,17.593,0,0,0-1.533-2.421,18.183,18.183,0,0,0-4.942-5.227c-2.329-1.424-5.261-1.776-7.355-3.535a11.561,11.561,0,0,1-2.119-2.563,32.316,32.316,0,0,1-4.189-9.491c-.637-2.513-1.064-5.269-2.9-7.112s-4.356-2.262-6.8-2.681a11.818,11.818,0,0,0-2.513-.243c-1.2.042-2.438.385-3.56-.176s-1.5-1.357-2.857-1.248a5.864,5.864,0,0,0-2.94,1.282C311.013,460.784,308.9,464.972,310.058,468.75Z" transform="translate(-165.799 -108.172)" fill="#3f3d56"/>
    <path id="Tracé_324" data-name="Tracé 324" d="M341.026,473.372c.544,2.84,1.382,5.864,3.577,7.715,1.4,1.206,3.351,1.96,4.046,3.661s-.2,3.837-1.357,5.395a19.87,19.87,0,0,1-5.395,4.951c-1.776,1.1-3.9,1.935-5.931,1.449a9.9,9.9,0,0,1-4.247-2.764c-2.865-2.656-5.8-5.411-7.405-8.972-1.675-3.753-1.759-8.1-3.585-11.795-1.064-2.153-2.706-4.038-3.351-6.35a3.946,3.946,0,0,1,0-2.58,3.636,3.636,0,0,1,3.284-1.952,11.427,11.427,0,0,1,3.929.838,86.514,86.514,0,0,0,11.585,3.242c1.566.293,2.513.285,3.351,1.8a18.061,18.061,0,0,1,1.5,5.361Z" transform="translate(-167.004 -108.982)" fill="#fbbebe"/>
    <path id="Tracé_325" data-name="Tracé 325" d="M356.964,503.279a9.215,9.215,0,0,0-1.3,3.116,6.961,6.961,0,0,0-.092,2.63,13.6,13.6,0,0,0,3.744-1.374c2.706-1.491,5.026-4.406,4.49-7.447a6.811,6.811,0,0,0-.544-1.675,2.337,2.337,0,0,0-2.228.7,18.5,18.5,0,0,0-4.071,4.055Z" transform="translate(-173.225 -114.881)" fill="#fbbebe"/>
    <path id="Tracé_326" data-name="Tracé 326" d="M321.336,427.2a4.122,4.122,0,0,0-.31,2.513c.385,1.675,2.1,2.639,3.652,3.4l14.735,7.2A30.876,30.876,0,0,1,342.4,441.9c2.513,1.541,4.49,3.719,6.635,5.713s4.532,3.862,7.372,4.565a12.456,12.456,0,0,0,8.377-1.1,17.313,17.313,0,0,0,3.837-2.605,23.587,23.587,0,0,0,2.764-2.873,6.2,6.2,0,0,0,1.5-2.706,5.94,5.94,0,0,0-1.374-4.306,19.887,19.887,0,0,0-1.675-2.077c-5.587-6.174-14.743-9.374-22.618-10.63a64.41,64.41,0,0,1-9.122-2.63,21.36,21.36,0,0,0-9.34-1.231C325.616,422.468,322.534,424.269,321.336,427.2Z" transform="translate(-167.619 -102.451)" fill="#3f3d56"/>
    <path id="Tracé_327" data-name="Tracé 327" d="M321.336,427.2a4.122,4.122,0,0,0-.31,2.513c.385,1.675,2.1,2.639,3.652,3.4l14.735,7.2A30.876,30.876,0,0,1,342.4,441.9c2.513,1.541,4.49,3.719,6.635,5.713s4.532,3.862,7.372,4.565a12.456,12.456,0,0,0,8.377-1.1,17.313,17.313,0,0,0,3.837-2.605,23.587,23.587,0,0,0,2.764-2.873,6.2,6.2,0,0,0,1.5-2.706,5.94,5.94,0,0,0-1.374-4.306,19.887,19.887,0,0,0-1.675-2.077c-5.587-6.174-14.743-9.374-22.618-10.63a64.41,64.41,0,0,1-9.122-2.63,21.36,21.36,0,0,0-9.34-1.231C325.616,422.468,322.534,424.269,321.336,427.2Z" transform="translate(-167.619 -102.451)" opacity="0.1"/>
    <path id="Tracé_328" data-name="Tracé 328" d="M363.215,433.236a16.754,16.754,0,0,1,2.764,4.264,4.775,4.775,0,0,1,.628,3.409,4.976,4.976,0,0,1-1.533,2.01l-1.466,1.357a5.864,5.864,0,0,1-1.525,1.139,6.1,6.1,0,0,1-2.513.377c-1.969,0-4.088,0-5.688-1.181-2.186-1.575-2.58-4.833-1.583-7.338s3.083-4.4,5.185-6.09C359.194,429.8,362.017,431.971,363.215,433.236Z" transform="translate(-172.623 -103.887)" fill="#fbbebe"/>
    <path id="Tracé_329" data-name="Tracé 329" d="M376.083,443.291a7.447,7.447,0,0,0,.377,4.147c.369,1.257.729,2.513,1.089,3.795v.05a23.591,23.591,0,0,0,2.764-2.873,6.2,6.2,0,0,0,1.5-2.706,5.94,5.94,0,0,0-1.374-4.306,19.887,19.887,0,0,0-1.675-2.077c-.394.511-.737,1.014-1.022,1.34A7.4,7.4,0,0,0,376.083,443.291Z" transform="translate(-176.545 -105.28)" fill="#fbbebe"/>
    <path id="Tracé_330" data-name="Tracé 330" d="M329.856,359.011c-1.734,7.288-1,14.911-.075,22.35.7,5.663,1.491,11.527-.184,16.98-.62,2.036-1.6,4.1-1.223,6.207.712,3.962,5.487,5.487,9.441,6.232a9.307,9.307,0,0,0,3.493.209,8.293,8.293,0,0,0,3.183-1.675,34.8,34.8,0,0,0,12.255-16.293c1.5-4.373,1.977-9.022,2.438-13.621.771-7.74,1.55-15.573.419-23.263-.335-2.262-.838-4.5-1.047-6.777a48.971,48.971,0,0,1,.653-11.853,191.214,191.214,0,0,1,6.534-28.6,38.534,38.534,0,0,1-23.187-4.188c1.374.737-.2,12.49-.369,14.14a95.979,95.979,0,0,1-2.656,14.576C337.195,342.374,331.976,350.131,329.856,359.011Z" transform="translate(-168.81 -83.434)" fill="#3f3d56"/>
    <path id="Tracé_331" data-name="Tracé 331" d="M329.856,359.011c-1.734,7.288-1,14.911-.075,22.35.7,5.663,1.491,11.527-.184,16.98-.62,2.036-1.6,4.1-1.223,6.207.712,3.962,5.487,5.487,9.441,6.232a9.307,9.307,0,0,0,3.493.209,8.293,8.293,0,0,0,3.183-1.675,34.8,34.8,0,0,0,12.255-16.293c1.5-4.373,1.977-9.022,2.438-13.621.771-7.74,1.55-15.573.419-23.263-.335-2.262-.838-4.5-1.047-6.777a48.971,48.971,0,0,1,.653-11.853,191.214,191.214,0,0,1,6.534-28.6,38.534,38.534,0,0,1-23.187-4.188c1.374.737-.2,12.49-.369,14.14a95.979,95.979,0,0,1-2.656,14.576C337.195,342.374,331.976,350.131,329.856,359.011Z" transform="translate(-168.81 -83.434)" opacity="0.1"/>
    <path id="Tracé_332" data-name="Tracé 332" d="M371.75,314.233c3.351,9.709,2.614,20.314,1.164,30.484s-3.585,20.339-2.957,30.584c.243,4.021.9,8.151-.276,12a26.219,26.219,0,0,1-2.572,5.353l-26.731,46.224a8.31,8.31,0,0,1-6.7,4.188,19.408,19.408,0,0,1-8.327-1.784,14.978,14.978,0,0,1-4.85-2.689,5.738,5.738,0,0,1-2.044-4.909c1.2-8.025,3-16.243,4.331-24.293A42.053,42.053,0,0,1,328.6,394c2.069-3.351,4.616-6.358,6.4-9.843,5.127-9.985,3.351-22.165-.6-32.67s-9.843-20.255-12.984-30.995a35.536,35.536,0,0,1-1.583-9.215,24.57,24.57,0,0,1,7-17.474,6.14,6.14,0,0,1,2.421-1.675,6.785,6.785,0,0,1,3.3.059C347.44,295.075,366.833,299.891,371.75,314.233Z" transform="translate(-167.21 -81.361)" fill="#3f3d56"/>
    <path id="Tracé_333" data-name="Tracé 333" d="M657.832,143.312c.486,3.669-.838,7.38-2.722,10.555-7.129,11.9-23.564,17.156-36.272,11.619-5.236-2.287-9.667-6.057-14.006-9.776a12.469,12.469,0,0,1-3.711-4.348c-1.3-3.141.268-6.886,2.823-9.131s5.864-3.351,9.156-4.348C623.964,134.5,655.243,123.827,657.832,143.312Z" transform="translate(-213.016 -55.386)" fill="#fbbebe"/>
    <path id="Tracé_334" data-name="Tracé 334" d="M656.746,131.6c9.893,7.958,24.293,15.539,35.5,21.437,3.811,2.01,8.042,4.272,9.416,8.377.737,2.195.494,4.582.251,6.894-.469,4.448-.955,8.963-2.672,13.093-2.019,4.833-5.587,8.821-8.452,13.21-5.026,7.69-7.975,16.754-14.182,23.548,4.188,13.914,8.771,27.811,10.262,42.253a1.944,1.944,0,0,1-.126,1.181,2.029,2.029,0,0,1-.653.595l-10.421,6.836a11.729,11.729,0,0,0-3.007,2.513c-1.843,2.4-1.6,5.763-2.739,8.553a11.116,11.116,0,0,1-6.45,5.864,19.861,19.861,0,0,1-8.871.938,20.624,20.624,0,0,1-10.589-3.728c-2.656-2.01-4.549-4.833-6.375-7.615a29.644,29.644,0,0,1-3.351-6.107,27.5,27.5,0,0,1-1.139-9.726,102.809,102.809,0,0,1,1.784-18.622c.486-2.438,1.089-4.842,1.474-7.3.771-4.942.62-9.985,1.189-14.953a100.578,100.578,0,0,1,3.728-16.477,85,85,0,0,0,2.178-10.136,111.154,111.154,0,0,1,4.884-17.592l3.351-9.893c.712-2.136,1.432-4.264,2.278-6.35,1.575-3.9,3.6-7.69,4.138-11.845.595-4.532-4.3-9.91-2.647-14.165C655.64,131.923,656.369,131.3,656.746,131.6Z" transform="translate(-218.289 -55.323)" fill="#3f3d56"/>
    <path id="Tracé_335" data-name="Tracé 335" d="M700.228,164.42c2.32,1.047,3.6,3.543,4.431,5.956a33.759,33.759,0,0,1,1.307,16.921,30.293,30.293,0,0,0-.67,4.323,28.829,28.829,0,0,0,.494,5.026c.838,6.408,0,12.917.276,19.384.285,7.271,1.868,14.953-1.181,21.562-2.027,4.39-5.864,7.657-9.65,10.622a193.1,193.1,0,0,1-46.216,26.672c2.857-3.435,2.907-8.6,1.005-12.649s-5.437-7.087-9.215-9.449a59.376,59.376,0,0,0,13.864-4.951c8.779-4.457,16.3-10.982,23.732-17.441a7.221,7.221,0,0,0,2.463-3.116c.754-2.513-1.324-4.9-2.764-7.1-4.364-6.7-3.351-15.455-1.525-23.213,2.036-8.5,5.026-16.972,10.48-23.807A23.547,23.547,0,0,1,700.228,164.42Z" transform="translate(-219.534 -60.662)" fill="#3f3d56"/>
    <path id="Tracé_336" data-name="Tracé 336" d="M644.184,292.519a11.45,11.45,0,0,1-2.882,3.166c-2.513,1.675-5.964,1.039-8.771-.151a25.591,25.591,0,0,1-7.12-4.532,11.158,11.158,0,0,0-3.158-2.346c-2.195-.838-5.261-.209-6.492-2.228a1.181,1.181,0,0,1-.2-.72c.075-.729,1.03-.93,1.768-.972a21.94,21.94,0,0,0,9.692-2.991,9.305,9.305,0,0,1-2.379-2.513,1.961,1.961,0,0,1-.4-1.19,2.127,2.127,0,0,1,.729-1.19,18.647,18.647,0,0,1,20.507-3.418,4.088,4.088,0,0,1,1.675,1.257,4.651,4.651,0,0,1,.611,1.675c.545,2.346,2.513,5.864,1.8,8.234C648.774,287.326,645.8,290.216,644.184,292.519Z" transform="translate(-215.435 -78.086)" fill="#fbbebe"/>
    <path id="Tracé_337" data-name="Tracé 337" d="M579.691,257.111c10.421-12.038,15.078-27.878,19.4-43.2l3.091-10.89,7.456-26.228c1.1-3.87,2.195-7.74,2.924-11.686a108.141,108.141,0,0,0,1.29-20.691,22.392,22.392,0,0,0-1.935-8.31c-.729-1.809-1.081-3.736-1.675-5.6a27.962,27.962,0,0,0-3.359-7.363,7.708,7.708,0,0,0-1.516-1.809,8.812,8.812,0,0,0-3.426-1.391,30.157,30.157,0,0,0-8.2-1.248,10.165,10.165,0,0,0-7.439,3.175c-1.365,1.617-1.994,3.711-3.074,5.529a21.554,21.554,0,0,0-1.365,2.32,11.728,11.728,0,0,0-.754,3.8q-.654,7.916-1.114,15.849c-.142,2.4-.268,4.825-.176,7.238.075,1.876.276,3.745.477,5.613l1.985,18.3c.461,4.3.134,8.318.519,12.624.938,10.4-1.3,20.792-3.594,30.995-1.1,4.85-2.228,9.768-4.574,14.157-2.069,3.887-5.169,7.832-4.348,12.163.285,1.508,1.047,2.915,1.164,4.44a8.912,8.912,0,0,0,.276,2.806,3.351,3.351,0,0,0,3.577,1.675A8.3,8.3,0,0,0,579.691,257.111Z" transform="translate(-208.065 -53.24)" fill="#3f3d56"/>
    <path id="Tracé_338" data-name="Tracé 338" d="M579.716,224.14c.318,2.4.075,4.842.193,7.263a48.979,48.979,0,0,0,1.675,9.215c.838,3.351,1.91,7.1,4.867,8.963a15.292,15.292,0,0,1,2.119,1.332,2.061,2.061,0,0,1,.687,2.245l-2.3-.385a2.337,2.337,0,1,1-3.217,3.351,5.453,5.453,0,0,1-.209,2.245,1.826,1.826,0,0,1-1.675,1.257,2.7,2.7,0,0,1-1.2-.5l-6.015-3.728a11.1,11.1,0,0,1-4.331-4.188l-2.63-3.962a9.467,9.467,0,0,1-1.365-2.513c-.98-3.351,1.759-7.07.335-10.228a13.749,13.749,0,0,0-1.5-2.195c-3.041-4.188-2.848-9.885-2.513-15.078.109-1.751.427-3.828,2.01-4.591,1.257-.612,2.764-.067,3.929.7a16.688,16.688,0,0,0,3.518,2.22c.838.285,1.759.318,2.6.62,1.173.41,2.262,2.01,3.049,2.957a9.809,9.809,0,0,1,1.977,5.009Z" transform="translate(-206.816 -68.446)" fill="#fbbebe"/>
    <path id="Tracé_339" data-name="Tracé 339" d="M490.532,127.542a14.894,14.894,0,0,1-2.949,4.406,5.7,5.7,0,0,1-4.859,1.675c-1.86-.369-3.225-1.9-4.457-3.351-3.217-3.778-6.475-7.606-8.637-12.08-3.3-6.81-3.828-14.584-4.306-22.132-.117-1.943-.218-4,.712-5.7,1.181-2.17,3.686-3.192,6-4.054l12.775-4.775a4.951,4.951,0,0,1,2.513-.461c2,.335,2.739,2.748,3.284,4.7a29.32,29.32,0,0,0,4.775,9.717c2.865,3.82,9.29,8.963,5.621,13.73C496.572,114.927,493.757,121.092,490.532,127.542Z" transform="translate(-191.039 -47.131)" fill="#be6f72"/>
    <path id="Tracé_340" data-name="Tracé 340" d="M500.421,106.494c5.6,5.261,7.489,13.453,7.221,21.118s-2.4,15.137-3.61,22.71-1.458,15.657,1.835,22.618c1.131,2.387,2.672,4.6,3.46,7.12a22.343,22.343,0,0,1,.662,7.648,21.839,21.839,0,0,1-1.525,7.908c-1.784,3.954-5.453,6.7-8.963,9.215-7.162,5.177-14.467,10.438-22.877,13.143a70.093,70.093,0,0,1-17.692,2.764,56.275,56.275,0,0,1-12.113-.343,32.9,32.9,0,0,1-18.387-9.734,10.3,10.3,0,0,1-2.086-2.873,11.938,11.938,0,0,1-.729-4.356q-.3-8.251.1-16.5a72.542,72.542,0,0,1,2.153-15.539c1.6-5.864,4.373-11.359,6.475-17.072,7.321-19.862,6.584-42.463,16.754-61.009,2.195-4,5.864-8.218,10.387-7.581a3.485,3.485,0,0,1,2.3,1.056,4.834,4.834,0,0,1,.838,2.58c1.081,9.014,2.614,18.262,6.861,26.4,1.675,3.192,4.188,8.05,8.05,8.9s6.14-2.831,8.209-5.445a66.857,66.857,0,0,1,12.683-12.725Z" transform="translate(-184.585 -47.88)" fill="#e3e8f4"/>
    <path id="Tracé_341" data-name="Tracé 341" d="M540.294,93.315a16.7,16.7,0,0,1,3.175,2.228c2.513,2.379,3.434,6.023,3.418,9.474s-.838,6.852-1.34,10.27c-1.349,9.215-.2,18.647.335,27.979a13.546,13.546,0,0,1-.268,4.507c-.41,1.407-1.257,2.647-1.8,4.013-1.6,4.038-.394,8.645-1.332,12.884-1.005,4.515-4.448,8.62-3.8,13.2.26,1.793,1.122,3.443,1.491,5.219s.05,3.92-1.483,4.875-3.761.26-5.587.787a17.212,17.212,0,0,0-2.161.972,10.618,10.618,0,0,1-8.972-.553,27.191,27.191,0,0,1-7.246-5.747c-3.192-3.267-6.283-6.844-7.682-11.192-2.044-6.3-.226-13.16,1.994-19.409s4.867-12.565,4.473-19.208c-.218-3.719-1.391-7.3-2.094-10.949a70.034,70.034,0,0,1-.93-15.33c.109-3.753.36-7.623,1.977-11.016a15.171,15.171,0,0,1,12-8.209C530.317,87.477,535.343,90.467,540.294,93.315Z" transform="translate(-197.677 -48.263)" fill="#3f3d56"/>
    <path id="Tracé_342" data-name="Tracé 342" d="M527.981,183.172a25.54,25.54,0,0,0,1.424,7.866c1.5-3.418,1.675-7.254,1.876-10.974.838-12.808,3.677-24.888,6.7-37.294-2.2,1.675-3.443,5.864-4.5,8.377a73.868,73.868,0,0,0-5.5,32.025Z" transform="translate(-201.205 -57.148)" opacity="0.1"/>
    <path id="Tracé_343" data-name="Tracé 343" d="M447.265,84.361c-4.038,1.064-7.539,3.46-11.451,5.026-4.063,1.675-8.436,2.387-12.7,3.418-9.868,2.4-19.778,6.844-25.734,15.078-4.39,6.057-6.207,13.537-9.215,20.4-2.513,5.755-5.864,11.15-7.715,17.139-2.421,7.816-2.145,16.193-1.55,24.352.486,6.7,1.223,13.479,4.264,19.418,1.592,3.116,3.786,5.906,5.378,9.022,1.91,3.744,2.915,7.874,4.507,11.728s3.929,7.707,7.623,9.717l6.115-3.577c9.122-5.336,18.245-10.681,27.083-16.477,7.707-5.026,15.481-10.8,19.585-19.058,3.636-7.3,4-15.824,3.058-23.925s-3.083-16.025-4.188-24.1a97.054,97.054,0,0,1,.628-30.584c.838-4.557,3.066-9.265,3.527-13.805C456.99,83.28,450.758,83.439,447.265,84.361Z" transform="translate(-176.958 -47.585)" fill="#3f3d56"/>
    <path id="Tracé_344" data-name="Tracé 344" d="M412.215,241.405c4.683,4.431,11.418,5.721,17.273,8.377a37.085,37.085,0,0,1,11.535,8.377c1.8,1.977,3.543,4.666,2.639,7.179-.762,2.161-3.1,3.267-5.244,4.071-2.664,1.005-5.638,1.893-8.293.88-1.558-.595-2.815-1.784-4.247-2.63-3.51-2.086-7.933-2.094-11.535-4.021-5.076-2.714-7.606-8.687-12.381-11.912-2.614-1.759-6.224-3.2-6.492-6.341a7.665,7.665,0,0,1,.7-3.292c.963-2.563,2.605-11.368,6.274-11.133C406.444,231.219,409.242,239.286,412.215,241.405Z" transform="translate(-179.713 -71.461)" fill="#fbbebe"/>
    <path id="Tracé_345" data-name="Tracé 345" d="M377.662,191.976c1.533,5.512,5.093,10.211,8.787,14.584,2.656,3.141,5.571,6.559,5.663,10.672.084,3.887-2.513,7.464-5.864,9.449s-7.3,2.622-11.175,2.873a28.188,28.188,0,0,1-9.265-.645c-7.657-2.077-12.968-8.754-18.991-13.914-3.577-3.058-7.6-5.721-10.337-9.55s-3.9-9.324-1.2-13.185a19.082,19.082,0,0,1,3.351-3.351,56.007,56.007,0,0,0,11.552-13.864c1.24-2.1,2.429-4.381,4.515-5.646,2.991-1.818,6.827-.988,10.211-.1,3.677.963,14.04,2.848,14.76,7.539.293,1.927-2.094,4.926-2.454,6.995a18.529,18.529,0,0,0,.444,8.142Z" transform="translate(-169.696 -61.295)" fill="#fbbebe"/>
    <path id="Tracé_346" data-name="Tracé 346" d="M393.749,204.951a35.374,35.374,0,0,1,2.7,6.241c2.555,8.88-2.01,18.027-4.188,27.007-2.781,11.5-1.6,23.531-1.734,35.367-.059,5.411-.637,11.368-4.532,15.12a14.037,14.037,0,0,0-2.89,2.965,12.274,12.274,0,0,0-.93,2.773,14.291,14.291,0,0,1-20.708,8.528c-3.175-1.768-5.931-4.834-9.566-4.926a27.737,27.737,0,0,0-3.409.377c-3.619.36-7.162-.98-10.555-2.3a6.885,6.885,0,0,1-2.228-1.19c-.612-.561-1.005-1.315-1.567-1.918-2.069-2.228-5.6-1.843-8.586-2.463a12.021,12.021,0,0,1-9.106-9.106c-.6-2.882-.092-5.864.41-8.771l2.245-12.951a119.216,119.216,0,0,0,1.952-14.383,60.312,60.312,0,0,0-1.391-16.26c-.988-4.356-2.463-8.62-3-13.06a31.908,31.908,0,0,1,5.864-22.459c1.164-1.6,2.689-3.2,4.666-3.351,1.6-.142,3.1.712,4.49,1.533q18.119,10.722,36.49,21a43.173,43.173,0,0,0,10.513,4.708c1.123.285,2.731.168,2.89-.972a2.119,2.119,0,0,0-.327-1.231c-2.094-4.029-5.127-7.489-7.539-11.326s-4.272-8.377-3.56-12.833c.972-6.165,6.7-10.245,11.384-5.412C386.788,191.154,390.306,198.208,393.749,204.951Z" transform="translate(-166.843 -63.765)" fill="#f86d70"/>
    <path id="Tracé_347" data-name="Tracé 347" d="M359.659,300.054c9.826.628,19.87,1.3,28.967,5.068,2.924,1.206,6.023,2.764,9.1,2.019a12.163,12.163,0,0,0,4.188-2.245,95.819,95.819,0,0,0,10.706-9.131c-.335-1.835-2.823-2.086-4.683-2.069a27.988,27.988,0,0,1-13.035-3.133,21.963,21.963,0,0,0-4.188-1.952c-3.979-1.1-8.033,1-12.029,2.019-5.914,1.508-12.147.628-18.186-.26l-16.3-2.4c-1.516-.218-3.225-.394-4.431.544a5.412,5.412,0,0,0-1.583,2.84c-1.994,6.7-1.039,7.263,5.6,7.682Z" transform="translate(-170.265 -80.686)" fill="#fbbebe"/>
    <circle id="Ellipse_68" data-name="Ellipse 68" cx="26.806" cy="26.806" r="26.806" transform="translate(385.18 49.45)" opacity="0.1"/>
    <circle id="Ellipse_69" data-name="Ellipse 69" cx="26.806" cy="26.806" r="26.806" transform="translate(384.987 48.286)" fill="#fbbebe"/>
    <path id="Tracé_348" data-name="Tracé 348" d="M646.823,88.1c2.144,1.324,4.39,2.748,5.562,4.976a24.9,24.9,0,0,1,1.432,4.691c1.466,5.026,5.37,9.391,5.6,14.626.26,5.738-4.046,10.722-8.921,13.73a6.617,6.617,0,0,1-3.837,1.29c-1.416-.092-2.639-.98-3.937-1.55-5.5-2.446-11.661.653-17.491,2.077a31.4,31.4,0,0,1-18.262-1.072,17.28,17.28,0,0,1-8.159-5.654c-1.969-2.723-2.672-6.534-1-9.458.838-1.491,2.228-2.84,2.136-4.54a23.5,23.5,0,0,0-.838-2.949c-.268-1.6.57-3.158,1.424-4.524a65.473,65.473,0,0,1,14.492-16.394c1.675-1.374,3.61-2.714,5.805-2.815,4.406-.193,8.193,3.091,12.725,3.108C638.706,83.663,642.4,85.372,646.823,88.1Z" transform="translate(-212.403 -47.046)" fill="#3f3d56"/>
    <circle id="Ellipse_70" data-name="Ellipse 70" cx="27.644" cy="27.644" r="27.644" transform="translate(285.469 14.141)" opacity="0.1"/>
    <circle id="Ellipse_71" data-name="Ellipse 71" cx="27.644" cy="27.644" r="27.644" transform="translate(285.955 13.463)" fill="#be6f72"/>
    <path id="Tracé_349" data-name="Tracé 349" d="M520.53,97.281c3.9,2.186,8.72,1.96,13.076.963a17.592,17.592,0,0,0,6.869-2.9,8.285,8.285,0,0,0,3.46-6.366c0-2.806-1.843-5.336-2.069-8.142-.276-3.535,2.027-6.8,2.27-10.354s-1.508-6.752-3.217-9.8c-2.94-5.236-6-10.538-10.471-14.542s-10.672-6.559-16.536-5.21c-2.882.662-5.554,2.212-8.494,2.513-2.614.243-5.194-.545-7.8-.88s-5.529-.126-7.4,1.675c-1.022,1.005-1.675,2.421-2.873,3.158a17.238,17.238,0,0,1-2.513.93c-3.024,1.215-4.406,4.624-5.479,7.69l-7.187,20.6c2.4,1.675,5.3,2.438,7.933,3.728s5.185,3.351,5.721,6.232c.41,2.186-.369,4.7.9,6.526,1.164,1.675,3.535,1.96,5.546,1.675s4.029-.98,6.04-.67c5.026.762,6.894,3.845,11.543,0S516.208,94.852,520.53,97.281Z" transform="translate(-192.162 -40.56)" fill="#3f3d56"/>
    <circle id="Ellipse_72" data-name="Ellipse 72" cx="25.131" cy="25.131" r="25.131" transform="translate(170.99 78.317)" opacity="0.1"/>
    <circle id="Ellipse_73" data-name="Ellipse 73" cx="25.131" cy="25.131" r="25.131" transform="translate(171.962 76.952)" fill="#fbbebe"/>
    <path id="Tracé_350" data-name="Tracé 350" d="M381.789,130.718a66.278,66.278,0,0,0-19.878-10.454c-4.591-1.491-9.583-2.513-14.241-1.139-6.316,1.8-14.769,4.49-18.681,9.776-1.927,2.6-3.879,5.269-4.808,8.377-1.86,6.249.787,12.909.612,19.426-.209,7.6-4.239,14.534-8.637,20.733s-5.286,15.078-7.883,22.232c-.888,2.454-1.173,5.864,1.114,7.1,2.01,1.114,4.44-.276,6.3-1.617l11.183-8.084a8.52,8.52,0,0,1,2.949-1.575c2.3-.536,4.557.9,6.484,2.27l23.455,16.586a7.2,7.2,0,0,0,.109-6.1c2.2.679,3.8,2.513,5.738,3.82s4.875,1.734,6.283-.092.343-4.281-1.223-5.755-3.627-2.354-5.16-3.87c-3.041-3.024-3.351-7.8-5.269-11.619-1.374-2.681-3.594-4.926-4.565-7.782-1.583-4.666.486-9.692,2.513-14.182,2.421-5.328,5.16-11.016,10.312-13.8,1.734-.938,3.652-1.491,5.428-2.346,4.423-2.119,9.943-7.12,12.1-11.6C387.921,137.043,385.006,133.2,381.789,130.718Z" transform="translate(-165.455 -53.206)" fill="#3f3d56"/>
    <path id="Tracé_351" data-name="Tracé 351" d="M343.2,232.071c2.4,1.533,5.118,2.513,7.481,4.113s4.431,4.029,4.5,6.877c.067,2.723-1.675,5.11-3.351,7.271l-20.406,26.781,10.4,2.756c-1.675,2.312-2.1,5.261-2.974,7.975s-2.513,5.537-5.294,6.249c-2.513.645-5.143-.678-7.74-.528-1.918.117-3.728,1.022-5.646,1.1-2.471.092-4.766-1.206-6.827-2.58-4.591-3.074-9.148-7.481-9.114-13.009a19.678,19.678,0,0,1,1.114-5.479c3.007-9.809,6.124-19.853,12.356-28.012A87.943,87.943,0,0,1,329.244,233.9a10.765,10.765,0,0,1,3.233-2.237c2.681-1.005,5.6.235,8.377,1.039s6.266.921,7.866-1.449" transform="translate(-164.905 -71.509)" opacity="0.1"/>
    <path id="Tracé_352" data-name="Tracé 352" d="M342.151,230.09c2.4,1.525,5.118,2.513,7.481,4.113s4.431,4.029,4.507,6.869-1.675,5.118-3.351,7.28l-20.415,26.756,10.4,2.756c-1.675,2.312-2.1,5.252-2.974,7.975s-2.513,5.537-5.294,6.249c-2.513.645-5.143-.679-7.74-.528-1.918.109-3.728,1.022-5.646,1.089-2.471.092-4.766-1.206-6.827-2.58-4.591-3.066-9.148-7.481-9.106-13a19.268,19.268,0,0,1,1.106-5.479c3.007-9.818,6.124-19.862,12.356-28.012,3.351-4.364,7.455-8.042,11.543-11.728a11.074,11.074,0,0,1,3.233-2.237c2.681-1.005,5.6.235,8.377,1.047s6.266.921,7.866-1.449" transform="translate(-164.736 -71.178)" fill="#f86d70"/>
    <g id="Groupe_29" data-name="Groupe 29" transform="translate(384.474 52.977)" opacity="0.1">
      <path id="Tracé_353" data-name="Tracé 353" d="M599.686,121.673a17.262,17.262,0,0,0,8.159,5.654,31.254,31.254,0,0,0,18.262,1.072c5.864-1.424,11.987-4.524,17.491-2.077,1.3.578,2.513,1.458,3.929,1.558a6.7,6.7,0,0,0,3.845-1.3,19.82,19.82,0,0,0,8-8.737,2.156,2.156,0,0,0,.05.561c.26,5.738-4.046,10.722-8.921,13.73a6.618,6.618,0,0,1-3.837,1.29c-1.416-.092-2.639-.98-3.937-1.55-5.5-2.446-11.661.653-17.491,2.077a31.4,31.4,0,0,1-18.262-1.072,17.28,17.28,0,0,1-8.159-5.654c-1.969-2.723-2.672-6.534-1-9.458l.126-.209a10.244,10.244,0,0,0,1.742,4.113Z" transform="translate(-596.877 -106.033)"/>
      <path id="Tracé_354" data-name="Tracé 354" d="M601.221,105.442a5.876,5.876,0,0,1-1.458,3.468,5.294,5.294,0,0,1-.243-.838,6.46,6.46,0,0,1,1.265-4.272,5.571,5.571,0,0,1,.436,1.642Z" transform="translate(-597.298 -103.8)"/>
    </g>
    <path id="Tracé_355" data-name="Tracé 355" d="M481.314,55.049l-7.187,20.591c2.4,1.675,5.3,2.446,7.933,3.728s5.185,3.351,5.721,6.232c.41,2.186-.369,4.7.9,6.534,1.164,1.675,3.535,1.952,5.546,1.675s4.029-.98,6.04-.67c5.026.762,6.894,3.845,11.543.042s6.333.712,10.655,3.141c3.9,2.195,8.72,1.969,13.076.963a17.592,17.592,0,0,0,6.869-2.89,10.7,10.7,0,0,0,.838-.762,9.332,9.332,0,0,1-2.815,3.485,17.591,17.591,0,0,1-6.869,2.9c-4.356,1-9.215,1.223-13.076-.963-4.323-2.429-6.1-6.861-10.655-3.141s-6.534.72-11.543,0c-2.01-.31-4.021.385-6.04.67s-4.381,0-5.546-1.675c-1.273-1.826-.494-4.339-.9-6.526-.536-2.882-3.091-4.951-5.721-6.232s-5.529-2.061-7.933-3.728l7.221-20.649c.838-2.27,1.759-4.725,3.435-6.341a28.131,28.131,0,0,0-1.491,3.619Z" transform="translate(-192.159 -42.323)" opacity="0.1"/>
    <g id="Groupe_30" data-name="Groupe 30" transform="translate(142.172 74.455)" opacity="0.1">
      <path id="Tracé_356" data-name="Tracé 356" d="M370.008,210.931c1.851.838,4.188.963,5.361-.6,1.315-1.675.343-4.272-1.223-5.755s-3.627-2.354-5.16-3.87c-3.041-3.016-3.351-7.791-5.269-11.61-1.374-2.689-3.594-4.934-4.565-7.791-1.583-4.658.486-9.692,2.513-14.174,2.421-5.328,5.16-11.016,10.312-13.8,1.734-.938,3.652-1.491,5.428-2.346,4.423-2.119,9.943-7.129,12.1-11.61,1.818-3.778-.746-7.447-3.795-9.935,1.483.963,2.932,1.977,4.339,3.058,3.225,2.513,6.132,6.325,4.188,10.287-2.161,4.482-7.682,9.483-12.1,11.6-1.776.838-3.694,1.407-5.428,2.346-5.152,2.781-7.891,8.469-10.312,13.8-2.036,4.49-4.1,9.516-2.513,14.182.972,2.857,3.192,5.1,4.565,7.782,1.943,3.82,2.228,8.595,5.269,11.619,1.533,1.516,3.594,2.387,5.16,3.87s2.513,4.046,1.223,5.755-4.356,1.357-6.283.092C372.521,212.95,371.34,211.794,370.008,210.931Z" transform="translate(-315.9 -129.44)"/>
      <path id="Tracé_357" data-name="Tracé 357" d="M310.93,215.957l11.183-8.075a8.545,8.545,0,0,1,2.949-1.583c2.3-.528,4.557.913,6.484,2.279L355,225.163a7.213,7.213,0,0,0,.109-6.107c2.153.67,3.719,2.463,5.587,3.719a6.263,6.263,0,0,0-.838-.31,7.2,7.2,0,0,1-.109,6.1L336.3,211.978c-1.927-1.365-4.188-2.806-6.484-2.27a8.519,8.519,0,0,0-2.949,1.575l-11.183,8.084c-1.86,1.34-4.289,2.731-6.3,1.617a3.677,3.677,0,0,1-1.751-3.233,12.139,12.139,0,0,0,3.3-1.793Z" transform="translate(-307.628 -141.896)"/>
    </g>
    <path id="Tracé_358" data-name="Tracé 358" d="M633.95,281.276s-48,3.845-57.55-2.957l43.912-6.769Z" transform="translate(-209.08 -78.05)" fill="#e3e8f4"/>
    <path id="Tracé_359" data-name="Tracé 359" d="M633.95,281.276s-48,3.845-57.55-2.957l43.912-6.769Z" transform="translate(-209.08 -78.05)" opacity="0.1"/>
    <path id="Tracé_360" data-name="Tracé 360" d="M632.594,279.782l-13.445-8.511s-40.109,11.527-51.1,6.769l11.183-15.69,39.74,7.749Z" transform="translate(-207.724 -76.557)" fill="#e3e8f4"/>
    <path id="Tracé_361" data-name="Tracé 361" d="M570.191,144.863a23.562,23.562,0,0,0-3.527,6.191c-.385,1.181-.578,2.413-.9,3.61a27.746,27.746,0,0,1-4.188,8.3c-4.13,6.006-9.29,11.8-10.329,19.016A32.068,32.068,0,0,0,552,192.687a28.9,28.9,0,0,0,1.977,6.76c1.064,2.3,2.647,4.314,3.862,6.534a46.4,46.4,0,0,1,2.8,6.769c1.433-1.432,2.279-3.351,3.426-5.026s2.857-3.183,4.875-3.208c2.329,0,4.247,1.927,6.551,2.228a1.868,1.868,0,0,0,1.072-.1c.838-.394.9-1.525.838-2.429-.662-6.325-4.281-12.565-2.572-18.7,1.575-5.671,7.2-9.215,10.161-14.3,2.145-3.694,2.781-8.05,3.351-12.289.712-5.068,1.432-10.178,1.114-15.28-.159-2.572-2.2-18.823-5.939-17.122-1.3.586-2.429,3.074-3.242,4.188l-3.351,4.75Z" transform="translate(-204.965 -54.492)" fill="#3f3d56"/>
    <path id="Tracé_362" data-name="Tracé 362" d="M304.361,232.528l-26.949,21.939-34.672-6.2,23.347-18.329Z" transform="translate(-39.398 -37.32)" fill="#e3e8f4"/>
    <path id="Tracé_363" data-name="Tracé 363" d="M305.521,230.9l-26.949,21.939-34.672-6.2,23.347-18.329Z" transform="translate(-39.586 -37.055)" opacity="0.1"/>
    <path id="Tracé_364" data-name="Tracé 364" d="M305.289,229.507l-26.949,21.931-34.681-6.191,23.355-18.337Z" transform="translate(-39.547 -36.828)" fill="#e3e8f4"/>
    <path id="Tracé_365" data-name="Tracé 365" d="M306.219,226.478l-26.957,21.939-34.672-6.2,23.355-18.329Z" transform="translate(-39.698 -36.338)" opacity="0.1"/>
    <path id="Tracé_366" data-name="Tracé 366" d="M305.981,225.088l-26.949,21.939-34.672-6.2L267.707,222.5Z" transform="translate(-39.661 -36.112)" fill="#e3e8f4"/>
    <path id="Tracé_367" data-name="Tracé 367" d="M877.864,623.915h0a4.339,4.339,0,0,1,6.224,3.56l1.5,19.443-8.9,1.608L872,634.47Z" transform="translate(-257.057 -135.17)" fill="#3f3d56"/>
    <path id="Tracé_368" data-name="Tracé 368" d="M480.069,468.232l-136.15,69.093a9.474,9.474,0,0,0,.067,16.913L637.22,701.4a35.593,35.593,0,0,0,33.449-.838l123.51-69.646a9.474,9.474,0,0,0-.561-16.754L488.437,468.14a9.474,9.474,0,0,0-8.369.092Z" transform="translate(-170.507 -109.807)" fill="#3f3d56"/>
    <path id="Tracé_369" data-name="Tracé 369" d="M342.939,536.56l-4.264,3.167-.335,15.162a6.3,6.3,0,0,0,3.418,5.747L640,713.682a4.44,4.44,0,0,0,6.475-3.946V687.714Z" transform="translate(-170.441 -121.063)" fill="#3f3d56"/>
    <path id="Tracé_370" data-name="Tracé 370" d="M480.066,447.251l-136.15,69.085a9.474,9.474,0,0,0,.042,16.913l293.26,147.158a35.619,35.619,0,0,0,33.449-.838l123.51-69.654a9.474,9.474,0,0,0-.561-16.754l-305.18-146.01a9.474,9.474,0,0,0-8.369.1Z" transform="translate(-170.505 -106.401)" fill="#e3e8f4"/>
    <path id="Tracé_371" data-name="Tracé 371" d="M374.114,421.86,224.1,498.031,481.934,626.953l154.705-78.525Z" transform="translate(-36.373 -68.469)" fill="#3f3d56"/>
    <ellipse id="Ellipse_74" data-name="Ellipse 74" cx="15.824" cy="9.374" rx="15.824" ry="9.374" transform="translate(524.086 516.297)" fill="#3f3d56"/>
    <circle id="Ellipse_75" data-name="Ellipse 75" cx="1.466" cy="1.466" r="1.466" transform="translate(249.842 376.243)" fill="#3f3d56"/>
    <circle id="Ellipse_76" data-name="Ellipse 76" cx="1.759" cy="1.759" r="1.759" transform="translate(245.16 387.376)" fill="#3f3d56"/>
    <line id="Ligne_19" data-name="Ligne 19" y1="8.201" x2="17.583" transform="translate(253.361 378.002)" fill="none" stroke="#3f3d56" stroke-miterlimit="10" stroke-width="1"/>
    <rect id="Rectangle_65" data-name="Rectangle 65" width="87.472" height="30.157" rx="15.078" transform="translate(346.43 460.532) rotate(-30)" fill="#5878cf"/>
    <rect id="Rectangle_66" data-name="Rectangle 66" width="87.472" height="30.157" rx="15.078" transform="translate(390.827 483.152) rotate(-30)" fill="#5878cf"/>
    <rect id="Rectangle_67" data-name="Rectangle 67" width="87.472" height="30.157" rx="15.078" transform="translate(306.221 434.566) rotate(-30)" fill="#5878cf"/>
  </g>
</svg>
