<svg xmlns="http://www.w3.org/2000/svg" xmlns:xlink="http://www.w3.org/1999/xlink" width="813.092" height="457.242" viewBox="0 0 813.092 457.242">
  <defs>
    <linearGradient id="linear-gradient" x1="0.5" y1="1" x2="0.5" gradientUnits="objectBoundingBox">
      <stop offset="0" stop-color="gray" stop-opacity="0.251"/>
      <stop offset="0.54" stop-color="gray" stop-opacity="0.122"/>
      <stop offset="1" stop-color="gray" stop-opacity="0.102"/>
    </linearGradient>
    <linearGradient id="linear-gradient-2" x1="-4.28" y1="0.935" x2="-4.28" y2="-0.076" xlink:href="#linear-gradient"/>
    <linearGradient id="linear-gradient-3" x1="0.5" y1="1" x2="0.5" y2="0" xlink:href="#linear-gradient"/>
  </defs>
  <g id="Seo-windows" transform="translate(0.02)">
    <path id="Tracé_101" data-name="Tracé 101" d="M512.324,240.052c-51.061.39-100.108-11.149-147.012-24.008s-93.426-27.3-143.484-33.194c-32.2-3.81-68.841-3.211-94.155,11.546-24.354,14.187-31.556,37.437-35.113,58.9-2.677,16.15-3.983,33.093,5.441,47.792,6.545,10.2,17.816,18.567,25.747,28.28,27.609,33.8,10.492,77.291-16.886,112.217-12.823,16.359-27.832,32.1-37.6,49.423s-13.84,36.881-4.178,53.832c9.583,16.806,31.419,28.907,54.9,37.127,47.7,16.7,103.312,19.988,157.476,21.049,119.887,2.338,240.085-4.791,359.95-11.914,44.364-2.634,88.923-5.289,132.4-12.376,24.145-3.933,49.019-9.691,66.207-22.081,21.821-15.731,26.468-41.218,10.824-59.417-26.245-30.517-95.973-35.849-114.735-68.935-10.326-18.213-1.133-39.234,12.267-56.942,28.821-37.992,78.178-72.16,79.34-114.468.8-29.045-24.534-57.209-62.549-69.584-39.861-12.989-94.371-9.229-122.557,15.6C609.625,228.42,557.424,239.713,512.324,240.052Z" transform="translate(-42.999 -146.222)" fill="#5878cf" opacity="0.1"/>
    <path id="Tracé_102" data-name="Tracé 102" d="M958.758,682.9s-8.869-5.852-17.658-1.7c0,0,2.706,5.217,13.833,4.719Z" transform="translate(-288.415 -285.347)" fill="#5878cf"/>
    <path id="Tracé_103" data-name="Tracé 103" d="M964.811,684.56s2.7,10.276-4.063,17.268c0,0-4.07-4.236-.036-14.612Z" transform="translate(-293.378 -286.697)" fill="#5878cf"/>
    <path id="Tracé_104" data-name="Tracé 104" d="M974.542,668.408s-.657-8.739-20.393-5.845c0,0-.087,5.643,6.841,8.313S971.086,671.295,974.542,668.408Z" transform="translate(-292.048 -280.409)" fill="#5878cf"/>
    <path id="Tracé_105" data-name="Tracé 105" d="M981.857,670.81s8.342,2.677.9,21.186c0,0-5.5-1.227-6.495-8.594S978.242,673.487,981.857,670.81Z" transform="translate(-298.151 -282.869)" fill="#5878cf"/>
    <path id="Tracé_106" data-name="Tracé 106" d="M992.214,648.6s1.133-14.382-19.036-12.9c0,0-1.443,12.989,15.478,16.366Z" transform="translate(-297.337 -273.064)" fill="#5878cf"/>
    <path id="Tracé_107" data-name="Tracé 107" d="M1009.158,626.366s-2.764-16.3-22.918-11.445c0,0-.079,14.093,19.628,15.327Z" transform="translate(-300.982 -267.058)" fill="#5878cf"/>
    <path id="Tracé_108" data-name="Tracé 108" d="M1022.047,603.235s-4.633-15.875-24.607-11.127c0,0,4.755,14.281,23.279,14.057Z" transform="translate(-304.1 -260.712)" fill="#5878cf"/>
    <path id="Tracé_109" data-name="Tracé 109" d="M1035.173,580.341s-4.525-16.474-23.813-11.546c0,0,6.437,15.652,22.536,14.338Z" transform="translate(-307.975 -254.212)" fill="#5878cf"/>
    <path id="Tracé_110" data-name="Tracé 110" d="M1044.35,557.269s-3.478-20.147-21.461-15.688c0,0,5.217,18.329,20.133,18.617Z" transform="translate(-311.185 -246.712)" fill="#5878cf"/>
    <path id="Tracé_111" data-name="Tracé 111" d="M1051.74,531.52s-4.171-20.313-22.37-14.432c0,0,7.137,19.195,21.085,17.21Z" transform="translate(-312.989 -239.775)" fill="#5878cf"/>
    <path id="Tracé_112" data-name="Tracé 112" d="M1057.186,505.6s-6.632-20.306-20.7-19.758c0,0,6.783,21.453,19.483,23.813Z" transform="translate(-314.971 -231.372)" fill="#5878cf"/>
    <path id="Tracé_113" data-name="Tracé 113" d="M1061.018,480.815s-7.216-24.448-18.668-22.565c0,0,5,18.69,18.257,26.375Z" transform="translate(-316.603 -223.664)" fill="#5878cf"/>
    <path id="Tracé_114" data-name="Tracé 114" d="M1063.04,453.106s-6.761-20.371-18.04-21.186c0,0,4.6,20.046,17.809,26.476Z" transform="translate(-317.34 -216.363)" fill="#5878cf"/>
    <path id="Tracé_115" data-name="Tracé 115" d="M1065.715,426.954s-8.436-20.393-15.875-20.854c0,0,3.666,20.082,15.154,24.2Z" transform="translate(-318.688 -209.174)" fill="#5878cf"/>
    <path id="Tracé_116" data-name="Tracé 116" d="M1068.262,401.176s-5.181-22.153-12.642-23.986c0,0,1.017,18.119,11.892,25.646Z" transform="translate(-320.297 -201.126)" fill="#5878cf"/>
    <path id="Tracé_117" data-name="Tracé 117" d="M1072.565,370.492s-5.455-17.65-11.5-20.342c0,0,1.2,20.811,10.1,24.664Z" transform="translate(-321.814 -193.598)" fill="#5878cf"/>
    <path id="Tracé_118" data-name="Tracé 118" d="M1078.512,345.26l1.1-31.13s-11.272,23.5-1.934,36.621Z" transform="translate(-325.408 -183.57)" fill="#5878cf"/>
    <path id="Tracé_119" data-name="Tracé 119" d="M1090.655,305.141s8.125-22.73,10.1-24c0,0-15.948,14.75-14.389,33.721Z" transform="translate(-328.827 -174.386)" fill="#5878cf"/>
    <path id="Tracé_120" data-name="Tracé 120" d="M999.079,653.462s14.3-1.876,13.869,18.343c0,0-12.924,2.1-17.138-14.612Z" transform="translate(-303.646 -278.026)" fill="#5878cf"/>
    <path id="Tracé_121" data-name="Tracé 121" d="M1017.728,630.37s16.532-.051,15.154,20.638c0,0-13.869,2.475-18.451-16.727Z" transform="translate(-308.83 -271.61)" fill="#5878cf"/>
    <path id="Tracé_122" data-name="Tracé 122" d="M1031.25,609.2s15-7.036,24.607,11.127c0,0-13.862,5.859-25.927-8.19Z" transform="translate(-313.145 -265.344)" fill="#5878cf"/>
    <path id="Tracé_123" data-name="Tracé 123" d="M1044.333,584.755s15.363-7.483,24.383,10.254c0,0-16,5.513-25.646-7.447Z" transform="translate(-316.803 -258.475)" fill="#5878cf"/>
    <path id="Tracé_124" data-name="Tracé 124" d="M1052.088,561.775s14.786-14.129,26.591.159c0,0-15.11,11.618-27.27,2.987Z" transform="translate(-319.125 -250.779)" fill="#5878cf"/>
    <path id="Tracé_125" data-name="Tracé 125" d="M1059.007,534.43s14.88-14.432,26.584.664c0,0-16.7,11.856-27.111,2.367Z" transform="translate(-321.093 -243.169)" fill="#5878cf"/>
    <path id="Tracé_126" data-name="Tracé 126" d="M1063.07,506.8s11.459-18.04,24.946-14.006c0,0-11.885,19.1-24.823,18.249Z" transform="translate(-322.371 -233.146)" fill="#5878cf"/>
    <path id="Tracé_127" data-name="Tracé 127" d="M1067.636,481.983s11.546-22.723,22.464-18.762c0,0-8.32,17.463-22.76,22.593Z" transform="translate(-323.56 -224.948)" fill="#5878cf"/>
    <path id="Tracé_128" data-name="Tracé 128" d="M1068.407,453.541s11.87-17.881,22.99-15.7c0,0-9.706,18.134-24.138,20.876Z" transform="translate(-323.537 -217.959)" fill="#5878cf"/>
    <path id="Tracé_129" data-name="Tracé 129" d="M1070.1,426.595s9.2-20.061,16.683-20.2c0,0-4.423,19.923-16.063,23.611Z" transform="translate(-324.328 -209.255)" fill="#5878cf"/>
    <path id="Tracé_130" data-name="Tracé 130" d="M1072.63,401.974s10.225-20.328,17.91-20.364c0,0-5.232,17.376-17.571,22.146Z" transform="translate(-325.032 -202.356)" fill="#5878cf"/>
    <path id="Tracé_131" data-name="Tracé 131" d="M1074.76,372.848s7.649-16.813,13.985-18.718c0,0-3.825,20.494-13.141,23.178Z" transform="translate(-325.625 -194.706)" fill="#5878cf"/>
    <path id="Tracé_132" data-name="Tracé 132" d="M1080.559,346.405l17.095-26.035s-4.38,25.689-19.584,31.029Z" transform="translate(-326.547 -185.307)" fill="#5878cf"/>
    <path id="Tracé_133" data-name="Tracé 133" d="M1094.587,311.153s19.873-13.71,20.587-15.933c0,0-10.1,19.209-28.864,22.6Z" transform="translate(-328.841 -178.306)" fill="#5878cf"/>
    <path id="Tracé_134" data-name="Tracé 134" d="M1099.219,300.3s22.81-21.922,28.633-21.9c0,0-18.812.859-29.182,20.739Z" transform="translate(-332.282 -173.623)" fill="#5878cf"/>
    <path id="Tracé_135" data-name="Tracé 135" d="M1075.07,362.776l.83.108c4.286-33.555,10.535-53.4,17.6-55.83l-.274-.794C1085.735,308.858,1079.457,328.4,1075.07,362.776Z" transform="translate(-325.712 -181.379)" fill="#444053"/>
    <path id="Tracé_136" data-name="Tracé 136" d="M1066.34,463.84l1.256.108c.26-3.132.462-6.343.6-9.532,1.2-27.767,3.052-53.269,5.5-72.384l-.722-.9c-2.446,19.151-4.827,45.425-6.025,73.236C1066.816,457.526,1066.6,460.73,1066.34,463.84Z" transform="translate(-323.281 -202.223)" fill="#444053"/>
    <path id="Tracé_137" data-name="Tracé 137" d="M932.851,646.717c.224-.094,22.326-9.965,45.266-33.511a182.151,182.151,0,0,0,33.086-46.9c10.6-21.6,17.066-48.138,19.238-73.921l-1.313.613c-4.864,57.873-31.217,97.416-52.165,118.956-22.716,23.329-44.566,33.1-44.783,33.194Z" transform="translate(-285.932 -233.194)" fill="#444053"/>
    <path id="Tracé_138" data-name="Tracé 138" d="M792.132,155.707V529.8c0,11.12-10.73,20.2-23.979,20.2H260.6c-13.249,0-23.979-9.049-23.979-20.2V155.707c0-11.142,10.73-22.507,23.979-22.507l507.526,1.234C781.373,134.434,792.132,144.6,792.132,155.707Z" transform="translate(-92.29 -133.2)" fill="#fff"/>
    <path id="Tracé_139" data-name="Tracé 139" d="M792.132,155.822v17.318H236.62V155.822A22.622,22.622,0,0,1,259.264,133.2H769.517a22.622,22.622,0,0,1,22.615,22.622Z" transform="translate(-92.29 -133.2)" fill="#3f3d56"/>
    <circle id="Ellipse_46" data-name="Ellipse 46" cx="7.995" cy="7.995" r="7.995" transform="translate(163.25 11.971)" fill="#fa5959" opacity="0.8"/>
    <circle id="Ellipse_47" data-name="Ellipse 47" cx="7.995" cy="7.995" r="7.995" transform="translate(186.507 11.971)" fill="#fed253" opacity="0.8"/>
    <circle id="Ellipse_48" data-name="Ellipse 48" cx="7.995" cy="7.995" r="7.995" transform="translate(209.765 11.971)" fill="#8ccf4d" opacity="0.8"/>
    <g id="Groupe_18" data-name="Groupe 18" transform="translate(354.793 134.529)" opacity="0.2">
      <path id="Tracé_140" data-name="Tracé 140" d="M644.978,322.062v40.41c0,1.205-2.259,2.165-5.051,2.165h-106.6c-2.785,0-5.051-.974-5.051-2.165v-40.41c0-1.205,2.251-2.432,5.051-2.432h106.6C642.726,319.623,644.978,320.85,644.978,322.062Z" transform="translate(-528.28 -319.63)" fill="#5878cf"/>
    </g>
    <rect id="Rectangle_37" data-name="Rectangle 37" width="55.535" height="1.963" transform="translate(406.019 148.953)" fill="#5878cf"/>
    <path id="Tracé_141" data-name="Tracé 141" d="M555.252,333.66a13.169,13.169,0,0,0-7.259,24.152v-.873a3,3,0,0,1,2.634-2.966,5.224,5.224,0,0,0,9.164,0,3,3,0,0,1,2.634,2.966v.931a13.169,13.169,0,0,0-7.173-24.21Zm5.167,16.7a5.217,5.217,0,0,1-10.413,0A5.715,5.715,0,0,1,553,342.7a1.775,1.775,0,0,1-.281-.945,1.739,1.739,0,0,1,1.746-1.739h.123a1.739,1.739,0,0,0-1.616,1.732,1.76,1.76,0,0,0,.231.866h.051a1.876,1.876,0,0,1,0-.346,1.7,1.7,0,0,1,.332-1.01,1.732,1.732,0,0,1,1.66-1.227h.123a1.725,1.725,0,0,0-1.328.779,1.688,1.688,0,0,1,.96-.289,1.84,1.84,0,0,1,1.739,1.934,5.722,5.722,0,0,1,4.243,5.527A5.823,5.823,0,0,1,560.418,350.358Z" transform="translate(-177.332 -189.007)" fill="#5878cf" opacity="0.2"/>
    <rect id="Rectangle_38" data-name="Rectangle 38" width="55.535" height="1.963" transform="translate(406.019 153.73)" fill="#5878cf" opacity="0.2"/>
    <rect id="Rectangle_39" data-name="Rectangle 39" width="55.535" height="1.963" transform="translate(406.019 158.507)" fill="#5878cf" opacity="0.2"/>
    <rect id="Rectangle_40" data-name="Rectangle 40" width="55.535" height="1.963" transform="translate(406.019 163.292)" fill="#5878cf" opacity="0.2"/>
    <g id="Groupe_19" data-name="Groupe 19" transform="translate(229.659 213.667)" opacity="0.2">
      <path id="Tracé_142" data-name="Tracé 142" d="M471.568,431.732v40.41c0,1.2-2.251,2.165-5.051,2.165h-106.6c-2.785,0-5.051-.981-5.051-2.165v-40.41c0-1.205,2.251-2.432,5.051-2.432h106.61C469.316,429.3,471.568,430.527,471.568,431.732Z" transform="translate(-354.87 -429.3)" fill="#5878cf"/>
    </g>
    <rect id="Rectangle_41" data-name="Rectangle 41" width="55.535" height="1.963" transform="translate(280.879 228.099)" fill="#5878cf"/>
    <path id="Tracé_143" data-name="Tracé 143" d="M381.838,443.33a13.169,13.169,0,0,0-7.259,24.159v-.88a2.987,2.987,0,0,1,2.634-2.959,5.224,5.224,0,0,0,9.164,0,2.987,2.987,0,0,1,2.634,2.959v.938a13.169,13.169,0,0,0-7.173-24.217Zm5.159,16.7a5.217,5.217,0,0,1-10.413,0,5.738,5.738,0,0,1,3-7.657,1.725,1.725,0,0,1-.275-.938,1.746,1.746,0,0,1,1.739-1.746h.13a1.739,1.739,0,0,0-1.393,2.6h.058a1.747,1.747,0,0,1,0-.339,2.555,2.555,0,0,1,1.992-2.244h.065a1.746,1.746,0,0,0-1.328.779,1.725,1.725,0,0,1,.953-.289,1.746,1.746,0,0,1,1.746,1.746,1.774,1.774,0,0,1,0,.195,5.715,5.715,0,0,1,3.723,7.938Z" transform="translate(-129.051 -219.539)" fill="#5878cf" opacity="0.2"/>
    <rect id="Rectangle_42" data-name="Rectangle 42" width="55.535" height="1.963" transform="translate(280.879 232.876)" fill="#5878cf" opacity="0.2"/>
    <rect id="Rectangle_43" data-name="Rectangle 43" width="55.535" height="1.963" transform="translate(280.879 237.653)" fill="#5878cf" opacity="0.2"/>
    <rect id="Rectangle_44" data-name="Rectangle 44" width="55.535" height="1.963" transform="translate(280.879 242.43)" fill="#5878cf" opacity="0.2"/>
    <g id="Groupe_20" data-name="Groupe 20" transform="translate(200.889 85.517)" opacity="0.2">
      <path id="Tracé_144" data-name="Tracé 144" d="M431.683,254.142v40.41c0,1.2-2.251,2.165-5.051,2.165H320.051c-2.778,0-5.051-.981-5.051-2.165v-40.41c0-1.205,2.259-2.432,5.051-2.432h106.6C429.432,251.71,431.683,252.937,431.683,254.142Z" transform="translate(-315 -251.71)" fill="#5878cf"/>
    </g>
    <rect id="Rectangle_45" data-name="Rectangle 45" width="55.535" height="1.963" transform="translate(252.094 99.949)" fill="#5878cf"/>
    <rect id="Rectangle_46" data-name="Rectangle 46" width="55.535" height="1.963" transform="translate(252.094 104.726)" fill="#5878cf" opacity="0.2"/>
    <rect id="Rectangle_47" data-name="Rectangle 47" width="55.535" height="1.963" transform="translate(252.094 109.503)" fill="#5878cf" opacity="0.2"/>
    <rect id="Rectangle_48" data-name="Rectangle 48" width="55.535" height="1.963" transform="translate(252.094 114.28)" fill="#5878cf" opacity="0.2"/>
    <path id="Tracé_145" data-name="Tracé 145" d="M341.941,265.74a13.176,13.176,0,0,0-7.216,24.159v-2.23a3,3,0,0,1,2.634-2.966,5.224,5.224,0,0,0,9.164,0,2.987,2.987,0,0,1,2.634,2.966v2.28a13.169,13.169,0,0,0-7.216-24.21Zm5.773,16.077a.89.89,0,0,1-.173.224.722.722,0,0,1-.382.13h-.267a5.232,5.232,0,0,1-10.24-1.487,5.153,5.153,0,0,1,.686-2.57l-.058-.035a1.739,1.739,0,0,1,.173-2.417,3.479,3.479,0,0,1,1.082-.4,4.835,4.835,0,0,0,2.742-2.1,5.771,5.771,0,0,1,0,.794,1.162,1.162,0,0,1,1.652-.058,3.322,3.322,0,0,0,.469.534,1.443,1.443,0,0,0,.585.166l1.313.166a2.511,2.511,0,0,1,1.494.541,2.367,2.367,0,0,1,.5.88,13.165,13.165,0,0,1,.859,2.778,4.452,4.452,0,0,1-.4,2.836Z" transform="translate(-117.96 -170.099)" fill="#5878cf" opacity="0.2"/>
    <g id="Groupe_21" data-name="Groupe 21" transform="translate(383.917 276.691)" opacity="0.2">
      <path id="Tracé_146" data-name="Tracé 146" d="M685.345,519.064v40.41c0,1.205-2.251,2.165-5.051,2.165h-106.6c-2.785,0-5.051-.974-5.051-2.165v-40.41c0-1.205,2.251-2.425,5.051-2.425H680.308C683.094,516.6,685.345,517.823,685.345,519.064Z" transform="translate(-568.64 -516.639)" fill="#5878cf"/>
    </g>
    <rect id="Rectangle_49" data-name="Rectangle 49" width="55.535" height="1.963" transform="translate(435.143 291.081)" fill="#5878cf"/>
    <rect id="Rectangle_50" data-name="Rectangle 50" width="55.535" height="1.963" transform="translate(435.143 295.858)" fill="#5878cf" opacity="0.2"/>
    <rect id="Rectangle_51" data-name="Rectangle 51" width="55.535" height="1.963" transform="translate(435.143 300.642)" fill="#5878cf" opacity="0.2"/>
    <rect id="Rectangle_52" data-name="Rectangle 52" width="55.535" height="1.963" transform="translate(435.143 305.419)" fill="#5878cf" opacity="0.2"/>
    <path id="Tracé_147" data-name="Tracé 147" d="M595.612,530.62a13.169,13.169,0,0,0-7.259,24.152v-2.23a3,3,0,0,1,2.634-2.959,5.224,5.224,0,0,0,9.164,0,2.988,2.988,0,0,1,2.634,2.959v2.287a13.169,13.169,0,0,0-7.173-24.21Zm5.773,16.07a.806.806,0,0,1-.173.231.722.722,0,0,1-.383.13h-.274A5.224,5.224,0,1,1,591.008,543h-.058a1.739,1.739,0,0,1,.173-2.417,3.476,3.476,0,0,1,1.082-.4,4.829,4.829,0,0,0,2.742-2.093,5.779,5.779,0,0,1,0,.794,1.162,1.162,0,0,1,1.652-.058,2.982,2.982,0,0,0,.469.527,1.377,1.377,0,0,0,.584.173l1.313.166a2.468,2.468,0,0,1,1.494.541,2.365,2.365,0,0,1,.5.88,13.025,13.025,0,0,1,.859,2.778,4.43,4.43,0,0,1-.411,2.8Z" transform="translate(-188.568 -243.84)" fill="#5878cf" opacity="0.2"/>
    <path id="Tracé_148" data-name="Tracé 148" d="M506.476,654.477l-15.832-22.954s-.3-5.686-1.335-7.014-.224-4.279-.224-4.279,1.111-1.624.152-1.775-.152-3.767-.152-3.767l-.072-5.773s.888-5.542.152-6.87a2.165,2.165,0,0,1,.072-2.36s.888-3.175,0-3.99-.671-5.773-.447-9.67-1.551-6.126-1.551-6.718-5.845-6.343-5.845-6.862-3.7-2.655-5.924-3.247-3.327-1.032-3.254-1.328-3.478-1.443-3.478-1.443-3.1-.224-4.294-1.768-4.8-2.006-4.907-2.013l-.065-.31-.065-.332c.274-.469.534-.953.772-1.443.072-.152.137-.3.2-.447a6.336,6.336,0,0,0,3.644-1.133,4.943,4.943,0,0,0,1.768-3.543,7.815,7.815,0,0,0-.859-3.933c-.649-1.328-1.6-2.706-1.277-4.149.144-.62.52-1.169.722-1.775a4.69,4.69,0,0,0-.534-3.5c-.556-1.068-1.335-2.013-1.963-3.052a11.848,11.848,0,0,1-1.559-4.33,6.668,6.668,0,0,0-.577-2.352,4.5,4.5,0,0,0-1.3-1.313,12.989,12.989,0,0,0-7.938-2.41c-2.013.072-4.027.613-6.025.368a22.093,22.093,0,0,1-3.514-.916c-2.482-.722-5.347-1.039-7.5.382s-3.024,4.214-4.488,6.4c-1.3,1.927-3.189,3.55-4.178,5.6v-.123a7.116,7.116,0,0,0-.548,1.494,10.636,10.636,0,0,0,.325,4.892,3.406,3.406,0,0,0,1.2,2.165,6.936,6.936,0,0,0,2.591.512c-.036.137-.072.281-.1.419a16.6,16.6,0,0,0-.368,3.514,16.914,16.914,0,0,0,12.08,16.214v.447a11.812,11.812,0,0,1-.072,1.27h0s-7.44-1.53-9.431-.491-5.924,1.84-6.494,2.432-2.071.152-3.406,3.608-1.479,7.014-3.175,8.659-2.591,2.735-2.67,3.918.224,1.443-.44,1.84-1.631,1.919-1.335,2.511a2.093,2.093,0,0,1-.815,2.215,2.461,2.461,0,0,0-1.032,2.215s-.447,1.624-1.479,1.992-1.7,2.807-1.7,2.807l-3.355,3.861-6.653-7.36a2.807,2.807,0,0,0-3.954-.2l-3.276,2.908a6.451,6.451,0,0,0-3.269,1.948,8.479,8.479,0,0,0-1.689,2.518l-1.79,1.609a4.532,4.532,0,0,0-.462,5.015l4.265,4.712v.043a7.454,7.454,0,0,0-4.12,1.674c-6.357,5.614-6.437,10.781-5.47,13.14s9.027,11.445,9.027,11.445a36.046,36.046,0,0,0,11.445,9.33h0l-.051.051c-.137.144-.267.3-.4.462l-.108.144a1.024,1.024,0,0,0-.1.144l-.123.173-.094.144-.13.216-.079.137-.152.289s-.036.065-.051.094-.123.267-.18.4l-.065.152a.808.808,0,0,1-.115.289l-.065.195a1.22,1.22,0,0,1-.094.289l-.065.209q-.043.152-.087.325a.967.967,0,0,1-.051.195c-.014.065-.079.354-.115.534a1.8,1.8,0,0,0,0,.209,3.256,3.256,0,0,0-.065.382.7.7,0,0,1-.036.267,1.74,1.74,0,0,0-.051.368,1.821,1.821,0,0,0,0,.281v1.4c-.152,8.659.354,9.893.354,9.893a4.792,4.792,0,0,0,3.926,2.944,5.178,5.178,0,0,0,1.27-.065c3.846-.671,12.873-2.215,16.056-1.624,1.912.354,5.455-.173,7.974-.649l.664-.13.462,1.443,1.443-.4,1.241.722.787.447c1.443,4.95,7.389,3.262,7.389,3.262l1.407.815,14.281.368a28.708,28.708,0,0,0,5.051,2.425,4.542,4.542,0,0,0,.722.159,32.037,32.037,0,0,0,3.976.072c1.1,0,1.941-.072,1.941-.072s-.144-3.875-.354-8.219a116.48,116.48,0,0,0,13.227-1.082c7.627-1.342,10.824-8.277,11.979-11.979a33.839,33.839,0,0,1,.722,4.6,33.526,33.526,0,0,0,1.183,3.983,13.31,13.31,0,0,0,1.631,2.959c5.621-1.919,2.215-4.8,1.032-6.054s.815-2.287.815-2.287,1.559-1.039,1.443-2-.224-1.992,4.813-1.919S506.476,654.477,506.476,654.477Zm-78.135-47.135c.065.426.765,4.972,1.4,6.17a7.864,7.864,0,0,1,.166,2.432c-2.98-.238-6.083-.368-6.083-.368a.721.721,0,0,1,.159.382l-.469-.108-.686-.166,5.5-8.349ZM417.459,624.66l5.159.823.433.065a18.43,18.43,0,0,0-.267,2.439c0,.072.115.166.281.274a7.749,7.749,0,0,0-.1,1.22c.087.411,2.5,1.292,5.268,2.028-.043.144-.079.289-.115.419h0c-2.446-1.284-6.292-1.883-6.74-2.836s-13.537-5.535-13.537-5.535-.483-.253-1.306-.65l3.449.65.945-.094a51.567,51.567,0,0,0,6.531,1.191Z" transform="translate(-131.565 -242.961)" fill="url(#linear-gradient)"/>
    <path id="Tracé_149" data-name="Tracé 149" d="M496.854,697.226s-2.057,12.4-12.469,14.23-45.172,1.443-45.172,1.443-19.873-2.886-27.06-19.649-11.813-23.474-5.65-23.762,39.385,11.221,41.29,11.365S498.687,655.352,496.854,697.226Z" transform="translate(-138.785 -282.499)" fill="#65617d"/>
    <path id="Tracé_150" data-name="Tracé 150" d="M496.854,697.226s-2.057,12.4-12.469,14.23-45.172,1.443-45.172,1.443-19.873-2.886-27.06-19.649-11.813-23.474-5.65-23.762,39.385,11.221,41.29,11.365S498.687,655.352,496.854,697.226Z" transform="translate(-138.785 -282.499)" opacity="0.05"/>
    <path id="Tracé_151" data-name="Tracé 151" d="M403.49,719.762a4.755,4.755,0,0,0,3.875,2.958,5.051,5.051,0,0,0,1.256-.072c3.81-.657,12.758-2.165,15.911-1.609,1.9.354,5.412-.173,7.938-.642,1.66-.31,2.886-.606,2.886-.606s-2.93-9.756-3.3-10.045-13.227-8.024-13.227-8.024L408.664,701h0a5.347,5.347,0,0,0-3.442,2.028c-1.075,1.3-2,3.428-2.057,6.92C402.985,718.542,403.49,719.762,403.49,719.762Z" transform="translate(-138.645 -291.273)" fill="#3f3d56"/>
    <path id="Tracé_152" data-name="Tracé 152" d="M403.494,719.762a4.755,4.755,0,0,0,3.875,2.958,41.591,41.591,0,0,1-2.756-4.026l.05-7.115a12.541,12.541,0,0,1,4-10.579h0s-5.354.368-5.5,8.948S403.494,719.762,403.494,719.762Z" transform="translate(-138.649 -291.273)" opacity="0.05"/>
    <path id="Tracé_153" data-name="Tracé 153" d="M462.45,696.9l9.46-7.4L486.8,674.83l-4.034-.18c-.606.383-2.295,1.595-2.36,3.067-.072,1.79-4.019.123-6.076,1.147s-12.1,13.884-13.848,13.8-3.153-.895-3.882.354a.712.712,0,0,1-.058.079Z" transform="translate(-153.515 -283.938)" opacity="0.1"/>
    <path id="Tracé_154" data-name="Tracé 154" d="M406,703.042l1.025.469c7.216,3.081,16.056,9.532,16.72,10.709.4.722,5.549,3.839,9.518,6.177,1.66-.31,2.886-.606,2.886-.606s-2.93-9.756-3.3-10.045-13.22-8.024-13.22-8.024L409.464,701h0A5.347,5.347,0,0,0,406,703.042Z" transform="translate(-139.445 -291.273)" opacity="0.1"/>
    <path id="Tracé_155" data-name="Tracé 155" d="M378.167,668.982c.953,2.345,8.948,11.365,8.948,11.365s5.051,6.6,12.267,9.684,16.063,9.532,16.72,10.709c.426.722,6.155,4.2,10.189,6.574l.909.527,2,1.162,1.061.606s2.453-1.97,4.9-3.954,4.82-3.926,4.856-4.034c.072-.224,1.025-2.713.8-2.886-.115-.072-.613-1.09-1.544-2.266a10.4,10.4,0,0,0-3.731-3.088,10.593,10.593,0,0,1-4.842-5.051s-.325-.231-.808-.541a9.813,9.813,0,0,0-3.3-1.443c-1.616-.2-4.618-3.5-4.618-3.5a9.042,9.042,0,0,1-2.886-3.009c-.772-1.609-12.145-9.381-13.2-10.1L433.486,687.4l6.6,4.236,9.46-7.4,14.887-14.67-4.914-.216c-7.216-.318-20.082-.808-21.706-.44a12.265,12.265,0,0,1-4.034.26,14.144,14.144,0,0,1-6.083-1.111c-2.417-1.277-6.242-1.876-6.682-2.821s-13.422-5.5-13.422-5.5-17.672-9.381-23.979-3.81S377.2,666.637,378.167,668.982Z" transform="translate(-131.572 -278.234)" fill="#65617d"/>
    <path id="Tracé_156" data-name="Tracé 156" d="M457.31,591.7l2.273,7.555,2.93,17.015,10.781.722,3.125-5.181,3.11-5.159s1.941-6.877,3.341-13.53c1.234-5.881,2.035-11.6.722-12.217-1.191-.548-1.97-2.533-2.482-4.662-.065-.26-.123-.527-.173-.794a41.5,41.5,0,0,1-.722-5.47s-22.593-1.176-19.44,8.14a14.706,14.706,0,0,1,.852,4.95,11.79,11.79,0,0,1-.072,1.263A10.557,10.557,0,0,1,457.31,591.7Z" transform="translate(-153.73 -254.785)" fill="#ee8e9e"/>
    <path id="Tracé_157" data-name="Tracé 157" d="M450.8,596.02l.808,12.837,1.833,10.925,2.057,5.051,1.833,27.681s17.679,2.049,21.98,0a1.883,1.883,0,0,0,.779-.606c5.2-7.844,3.493-30.56,3.493-30.56l2-14.692-1.32-7.613-3.19-.339-2.461-.26s-.556.678-1.349,1.739c-2.165,2.886-6.177,8.515-5.91,10.875.368,3.226-.44,6.494-1.689,7.036s-2.273,1.4-2.49.52a3.969,3.969,0,0,1-.224-2.345c.224-1.248-.953-5.051-.953-5.051s-1.977-4.474-1.833-6.379-.216-4.106-.808-4.618-1.393-1.032-.722-3.377-2.886-6.913-2.886-6.913Z" transform="translate(-151.917 -260.352)" fill="#e3e8f4"/>
    <path id="Tracé_158" data-name="Tracé 158" d="M483.158,624.895l.722,21.93,4.236,2.352a1.833,1.833,0,0,0,.779-.613c5.2-7.844,3.493-30.56,3.493-30.56l1.977-14.67-1.321-7.613-3.189-.339c1.234-5.881,2.042-11.589.722-12.21-1.191-.556-1.977-2.533-2.482-4.662h0L485.8,594.017s.195,1.393.26,2.836a8.033,8.033,0,0,1-.188,2.735,9.122,9.122,0,0,0-.144,3.666c-1.321,2.331-1.984,6.646-2.3,10.824C482.992,619.62,483.158,624.895,483.158,624.895Z" transform="translate(-160.917 -257.173)" opacity="0.1"/>
    <path id="Tracé_159" data-name="Tracé 159" d="M488.312,578s3.695.462,4.864,2,4.257,1.761,4.257,1.761,3.521,1.176,3.442,1.443,1.032.722,3.233,1.321,5.867,2.713,5.867,3.233,5.773,6.227,5.773,6.819,1.753,2.785,1.537,6.675-.44,8.8.44,9.6,0,3.962,0,3.962a2.165,2.165,0,0,0-.072,2.345c.722,1.32-.152,6.819-.152,6.819l.079,5.722s-.808,3.608.144,3.738-.144,1.761-.144,1.761-.808,2.937.216,4.257,1.321,6.964,1.321,6.964l15.695,22.81s.216,4.178-4.77,4.106-4.914.953-4.763,1.905-1.393,1.984-1.393,1.984-1.984,1.025-.808,2.273,4.546,4.106-1.025,6.011a13.264,13.264,0,0,1-1.616-2.93,34.141,34.141,0,0,1-1.176-3.962s-.512-5.578-1.537-6.307-.88-4.258-.88-4.258,1.443-2.886-.585-4.034-31.83-17.672-31.83-17.672l-.722-21.929s-.512-16.207,2.569-21.648a9.122,9.122,0,0,1,.144-3.666c.512-1.321-.072-5.578-.072-5.578Z" transform="translate(-161.07 -257.031)" fill="#3f3d56"/>
    <path id="Tracé_160" data-name="Tracé 160" d="M453.114,589.891s-7.375-1.523-9.381-.5-5.867,1.833-6.451,2.425-2.057.144-3.377,3.608-1.443,6.963-3.153,8.58-2.569,2.713-2.641,3.882.224,1.443-.44,1.833-1.609,1.912-1.321,2.5S441.6,625.712,441.6,625.712s.722,4.914,1.393,6.162-.722,18.408-2.2,19.577,9.929,1.061,9.929,1.061.52-11.257.96-11.849-.3-12.614-.3-12.614-.072-10.268.88-12.989.844-11.733.844-11.733.844-5.412,1.869-6.675S453.114,589.891,453.114,589.891Z" transform="translate(-145.095 -260.104)" opacity="0.1"/>
    <path id="Tracé_161" data-name="Tracé 161" d="M452.816,589.583s-7.375-1.515-9.381-.491-5.867,1.833-6.451,2.417-2.057.151-3.37,3.608-1.443,6.971-3.153,8.58-2.569,2.713-2.641,3.889.216,1.443-.44,1.833-1.616,1.905-1.321,2.5,15.255,13.494,15.255,13.494.722,4.914,1.393,6.155-.722,18.408-2.2,19.584,9.9,1.061,9.9,1.061.512-11.257.953-11.841-.3-12.614-.3-12.614-.072-10.268.88-12.989.852-11.733.852-11.733.837-5.412,1.862-6.675S452.816,589.583,452.816,589.583Z" transform="translate(-145.014 -260.02)" fill="#3f3d56"/>
    <path id="Tracé_162" data-name="Tracé 162" d="M461.963,578.141a14.706,14.706,0,0,1,.852,4.95,16.8,16.8,0,0,0,19.3-7.62,41.506,41.506,0,0,1-.722-5.47S458.81,568.825,461.963,578.141Z" transform="translate(-154.941 -254.791)" opacity="0.1"/>
    <path id="Tracé_163" data-name="Tracé 163" d="M446.64,558.762a16.756,16.756,0,1,0,.361-3.493,16.756,16.756,0,0,0-.361,3.493Z" transform="translate(-150.759 -247)" fill="#ee8e9e"/>
    <path id="Tracé_164" data-name="Tracé 164" d="M426.024,619.11l-4.034,1.248a2.078,2.078,0,0,1-.808,2.165,2.446,2.446,0,0,0-1.025,2.165s-.44,1.616-1.443,1.984-1.681,2.785-1.681,2.785l-3.377,3.889s-1.248,1.025-1.025,1.537-1.321.657-1.321.657l.808,13.061,6.963,1.313,4.33-.44,3.521-1.313,3.081-1.84,1.393-3.608,6.155-9.381Z" transform="translate(-140.923 -268.475)" fill="#3f3d56"/>
    <path id="Tracé_165" data-name="Tracé 165" d="M405.753,640.312s-8.948-12.91-15.623-5.939,2.713,18.257,4.914,17.889,12.693-.953,12.693-.953Z" transform="translate(-134.37 -272.15)" fill="#ee8e9e"/>
    <path id="Tracé_166" data-name="Tracé 166" d="M447.14,555.279a2.036,2.036,0,0,1,1.234.556c.563.6.592,1.66,1.335,2.035a1.558,1.558,0,0,0,.873.1c1.948-.281,3.074-2.482,4.95-3.089a5.051,5.051,0,0,1,3.283.281,2.5,2.5,0,0,1,1.082.722c.628.815.188,2.006.476,2.987.4,1.364,2.028,1.905,3.442,2.078s2.995.281,3.933,1.342a3.608,3.608,0,0,1,.722,2.836,2.265,2.265,0,0,0,0,1.053c.39,1.1,2.295.938,2.793.065.361-.628.253-1.155,1.1-1.328a3.608,3.608,0,0,1,1.8.31,13.069,13.069,0,0,0,4.647.722,16.8,16.8,0,1,0-31.635-10.636Z" transform="translate(-150.898 -247.009)" opacity="0.1"/>
    <path id="Tracé_167" data-name="Tracé 167" d="M466.841,562.249a2.266,2.266,0,0,1,0-1.054,3.608,3.608,0,0,0-.722-2.836c-.938-1.061-2.526-1.162-3.933-1.342s-3.038-.722-3.442-2.078c-.289-.981.152-2.165-.476-2.987a2.418,2.418,0,0,0-1.082-.722,5.051,5.051,0,0,0-3.283-.289c-1.876.606-3,2.807-4.95,3.088a1.565,1.565,0,0,1-.873-.1c-.722-.375-.772-1.443-1.335-2.035-.895-.945-2.583-.339-3.673-1.039a3.341,3.341,0,0,1-1.183-2.165,10.514,10.514,0,0,1-.325-4.864c.635-2.728,3.074-4.6,4.633-6.927,1.443-2.165,2.266-4.914,4.445-6.357s4.979-1.111,7.44-.383a20.814,20.814,0,0,0,3.485.916c1.977.245,3.969-.3,5.968-.361a12.787,12.787,0,0,1,7.88,2.4,4.329,4.329,0,0,1,1.284,1.3,6.551,6.551,0,0,1,.577,2.338,11.863,11.863,0,0,0,1.544,4.286c.621,1.032,1.393,1.97,1.948,3.038a4.64,4.64,0,0,1,.527,3.471c-.188.606-.556,1.147-.722,1.768-.325,1.443.621,2.8,1.263,4.12a7.779,7.779,0,0,1,.859,3.911,4.936,4.936,0,0,1-1.761,3.514,6.291,6.291,0,0,1-3.716,1.126,13.227,13.227,0,0,1-4.741-.722,3.609,3.609,0,0,0-1.79-.31c-.859.173-.722.722-1.111,1.328C469.136,563.187,467.231,563.346,466.841,562.249Z" transform="translate(-149.305 -243.538)" fill="#3f3d56"/>
    <path id="Tracé_168" data-name="Tracé 168" d="M461.578,697.5l9.46-7.4,14.887-14.67-4.914-.216a3.2,3.2,0,0,0-1.039,2c-.072,1.8-4.019.13-6.076,1.155s-12.1,13.884-13.848,13.8-3.153-.888-3.882.354l-.058.087a2.086,2.086,0,0,1-1.118.664Z" transform="translate(-153.084 -284.094)" opacity="0.1"/>
    <path id="Tracé_169" data-name="Tracé 169" d="M437.69,695.013l4.755,15.154.722,2.381,2.266-.621,4.993-1.371,22.225-6.1a19.282,19.282,0,0,0,8-2.165,24.2,24.2,0,0,1,13.811-3.016c2.937.274,6.206-.989,8.919-6,0,0,6.155-18.184-9.381-23.387s-16.294,2.764-16.294,2.764l-.209.13c-.606.382-2.295,1.595-2.36,3.067-.072,1.79-4.019.123-6.076,1.147s-12.087,13.941-13.833,13.862-3.153-.895-3.882.354a.718.718,0,0,1-.058.079c-.541.722-2.165.924-3.254.952H447.02l-.137.043-1.126.332Z" transform="translate(-148.267 -282.119)" fill="#65617d"/>
    <path id="Tracé_170" data-name="Tracé 170" d="M439.4,660.854l2.288.368.953-9.46s-1.046-.159-2.36-.462C440.627,652.613,439.833,657.722,439.4,660.854Z" transform="translate(-148.744 -277.437)" opacity="0.1"/>
    <path id="Tracé_171" data-name="Tracé 171" d="M499.486,603.192s6.819-1.977,5.138,17.383a54.077,54.077,0,0,1-14.3,31.606s-14.526,6.379-21.049,5.354-11.279-1.248-11.279-1.248a16.689,16.689,0,0,0-6.6-1.761c-3.666-.144-11.365-2.417-11.546-3.153s1.912-11.51,1.032-12.318c0,0,10.268.419,11.293,1.162s2.49.209,3.608,0,4.474-3.139,11.149-.577c0,0,2.273.224,3.153-.368a3.16,3.16,0,0,1,2.295-.144,6.312,6.312,0,0,0,1.588-.808c.224-.289,1.984,0,1.984,0a.779.779,0,0,0,1.1-.512,4.806,4.806,0,0,1,1.025-1.609s1.984-11.149,5.722-15.327a2.4,2.4,0,0,0,.808-2.129C484.3,617.566,490.683,600.825,499.486,603.192Z" transform="translate(-148.865 -263.98)" opacity="0.1"/>
    <path id="Tracé_172" data-name="Tracé 172" d="M448.85,701.911l9.684,11.726.065-.072c.072-.216,1.025-2.713.8-2.886s-1.9-3.817-5.282-5.354a10.052,10.052,0,0,1-4.142-3.774Z" transform="translate(-151.374 -291.427)" opacity="0.1"/>
    <path id="Tracé_173" data-name="Tracé 173" d="M448.919,725.156l1.061.606s2.453-1.97,4.9-3.954,4.82-3.926,4.856-4.034c.072-.224,1.025-2.713.8-2.886-.115-.072-.613-1.09-1.544-2.266-6.567-1.84-2.381,2.72-1.826,2.93,0,0-8-1.833-8.436,6.87A10.391,10.391,0,0,0,448.919,725.156Z" transform="translate(-151.336 -294.387)" opacity="0.1"/>
    <path id="Tracé_174" data-name="Tracé 174" d="M457.306,728.851l1.4.808,14.151.368a28.576,28.576,0,0,0,5.008,2.41,4.644,4.644,0,0,0,.722.159,33.016,33.016,0,0,0,3.947.072c1.082,0,1.919-.072,1.919-.072s-.671-17.853-1.176-19.729c-.238-.9-1.443-.722-2.6-.252a16.736,16.736,0,0,0-2.533,1.284s-6.011.577-6.971,1.1-3.666-.3-5.354,0-4.69-1.984-4.69-1.984c-8.212-2.713-3.608,2.345-3.009,2.569,0,0-7.988-1.833-8.428,6.87S457.306,728.851,457.306,728.851Z" transform="translate(-151.604 -294.395)" fill="#3f3d56"/>
    <path id="Tracé_175" data-name="Tracé 175" d="M488.607,721.965c.152,3.695,3.031,8.284,4.755,10.709,1.082,0,1.919-.072,1.919-.072s-.671-17.853-1.176-19.729c-.238-.9-1.443-.722-2.6-.253C490.087,715.283,488.485,718.985,488.607,721.965Z" transform="translate(-162.441 -294.4)" fill="#565387"/>
    <path id="Tracé_176" data-name="Tracé 176" d="M488.607,721.965c.152,3.695,3.031,8.284,4.755,10.709,1.082,0,1.919-.072,1.919-.072s-.671-17.853-1.176-19.729c-.238-.9-1.443-.722-2.6-.253C490.087,715.283,488.485,718.985,488.607,721.965Z" transform="translate(-162.441 -294.4)" opacity="0.1"/>
    <path id="Tracé_177" data-name="Tracé 177" d="M485.168,722.456c.974,3.565.96,7.57,2.511,9.987a4.658,4.658,0,0,0,.722.159,33.017,33.017,0,0,0,3.947.072c1.082,0,1.919-.072,1.919-.072s-.671-17.853-1.176-19.729c-.238-.9-1.443-.722-2.6-.253a16.735,16.735,0,0,0-2.533,1.284S483.919,717.888,485.168,722.456Z" transform="translate(-161.418 -294.4)" opacity="0.05"/>
    <path id="Tracé_178" data-name="Tracé 178" d="M417.59,676.26s7.028,2.28,12.989,10.384Z" transform="translate(-142.672 -284.386)" opacity="0.1"/>
    <g id="Groupe_22" data-name="Groupe 22" transform="translate(292.124 298.867)" opacity="0.1">
      <path id="Tracé_179" data-name="Tracé 179" d="M496.649,554.3l-.043.159a4.946,4.946,0,0,1-.245.613A4.334,4.334,0,0,1,496.649,554.3Z" transform="translate(-456.725 -549.299)"/>
      <path id="Tracé_180" data-name="Tracé 180" d="M441.582,548.813a6.6,6.6,0,0,1,.541-1.443c-.036.123-.072.253-.1.383a10.52,10.52,0,0,0,.325,4.864,3.341,3.341,0,0,0,1.183,2.165c1.09.722,2.778.094,3.666,1.032.57.6.6,1.667,1.335,2.035a1.443,1.443,0,0,0,.88.1c1.948-.274,3.074-2.475,4.95-3.081a4.95,4.95,0,0,1,3.276.281,2.417,2.417,0,0,1,1.09.722c.628.808.188,2.006.476,2.987.4,1.357,2.028,1.9,3.435,2.078s2.995.274,3.94,1.342a3.55,3.55,0,0,1,.722,2.836,2.331,2.331,0,0,0,0,1.046c.39,1.1,2.295.938,2.793.072.361-.635.253-1.155,1.1-1.335a3.68,3.68,0,0,1,1.8.31,13.211,13.211,0,0,0,4.741.722,6.394,6.394,0,0,0,3.716-1.126,4.438,4.438,0,0,0,1.14-1.393,4.69,4.69,0,0,1-1.58,2.49,6.292,6.292,0,0,1-3.716,1.126,13.2,13.2,0,0,1-4.741-.722,3.609,3.609,0,0,0-1.8-.31c-.852.173-.722.722-1.1,1.328-.5.873-2.4,1.032-2.793-.065a2.36,2.36,0,0,1,0-1.054,3.55,3.55,0,0,0-.722-2.836c-.945-1.061-2.526-1.162-3.94-1.342s-3.031-.722-3.435-2.078c-.289-.981.152-2.165-.476-2.987a2.417,2.417,0,0,0-1.082-.721,5.051,5.051,0,0,0-3.283-.289c-1.876.606-3,2.807-4.95,3.089a1.588,1.588,0,0,1-.88-.1c-.722-.375-.765-1.443-1.335-2.035-.888-.945-2.576-.339-3.666-1.039a3.341,3.341,0,0,1-1.183-2.165,10.514,10.514,0,0,1-.325-4.885Z" transform="translate(-441.433 -547.37)"/>
    </g>
    <path id="Tracé_181" data-name="Tracé 181" d="M496.068,629.363c-1.342,1.811-2.886,3.493-4.063,5.412a10.268,10.268,0,0,0-1.782,6.4c1.227-1.263,1.79-3.009,2.569-4.589,1.313-2.684,3.276-4.957,4.929-7.418.318-.469,2.345-3.19,1.321-3.319C498.2,625.741,496.552,628.742,496.068,629.363Z" transform="translate(-162.888 -270.351)" opacity="0.1"/>
    <path id="Tracé_182" data-name="Tracé 182" d="M415.866,589.444l14.7,27.8c.44.823-.758,2.316-2.67,3.334l-73.365,38.8c-1.912,1.01-3.824,1.162-4.257.332l-14.7-27.789c-.44-.83.664-2.5,2.576-3.507l73.365-38.8C413.434,588.593,415.433,588.615,415.866,589.444Z" transform="translate(-119.812 -260.047)" fill="#fff"/>
    <g id="Groupe_23" data-name="Groupe 23" transform="translate(215.665 328.787)" opacity="0.2">
      <path id="Tracé_183" data-name="Tracé 183" d="M415.866,589.444l14.7,27.8c.44.823-.758,2.316-2.67,3.334l-73.365,38.8c-1.912,1.01-3.824,1.162-4.257.332l-14.7-27.789c-.44-.83.664-2.5,2.576-3.507l73.365-38.8C413.434,588.593,415.433,588.615,415.866,589.444Z" transform="translate(-335.476 -588.833)" fill="#5878cf"/>
    </g>
    <rect id="Rectangle_53" data-name="Rectangle 53" width="43.231" height="1.523" transform="translate(255.347 361.526) rotate(-27.87)" fill="#5878cf"/>
    <rect id="Rectangle_54" data-name="Rectangle 54" width="43.231" height="1.523" transform="translate(257.088 364.82) rotate(-27.87)" fill="#5878cf" opacity="0.2"/>
    <rect id="Rectangle_55" data-name="Rectangle 55" width="43.231" height="1.523" transform="translate(258.825 368.1) rotate(-27.87)" fill="#5878cf" opacity="0.2"/>
    <rect id="Rectangle_56" data-name="Rectangle 56" width="43.231" height="1.523" transform="translate(260.565 371.394) rotate(-27.87)" fill="#5878cf" opacity="0.2"/>
    <path id="Tracé_184" data-name="Tracé 184" d="M359.423,643.759a10.247,10.247,0,0,0,3.8,19.26l-.808-1.53a2.331,2.331,0,0,1,.722-3,4.063,4.063,0,0,0,6.307-3.334,2.338,2.338,0,0,1,2.886,1.082l.83,1.573a10.247,10.247,0,0,0-13.747-14.05Zm9.835,8.955a.548.548,0,0,1-.036.216.607.607,0,0,1-.216.231l-.18.1a4.07,4.07,0,1,1-8.053.722h-.051a1.364,1.364,0,0,1-.758-1.732,2.6,2.6,0,0,1,.6-.664,3.759,3.759,0,0,0,1.126-2.439,4.322,4.322,0,0,1,.267.556.909.909,0,0,1,1.111-.642,3.046,3.046,0,0,0,.52.195,1.184,1.184,0,0,0,.469-.094l.96-.368a1.443,1.443,0,0,1,1.891.26,10.468,10.468,0,0,1,1.6,1.595,3.456,3.456,0,0,1,.75,2.064Z" transform="translate(-124.958 -275.005)" fill="#5878cf" opacity="0.2"/>
    <path id="Tracé_185" data-name="Tracé 185" d="M404.66,645.4c-.072,9.677,19.952,11.733,19.952,11.733l5.116.808,2.288.368.953-9.46s-1.046-.159-2.36-.462c-1.934-.455-4.445-1.234-4.972-2.331C424.757,644.229,404.732,635.721,404.66,645.4Z" transform="translate(-139.072 -274.53)" fill="#ee8e9e"/>
    <path id="Tracé_186" data-name="Tracé 186" d="M499.231,601.135s6.819-1.977,5.138,17.383a54.076,54.076,0,0,1-14.3,31.606s-14.526,6.379-21.049,5.354-11.293-1.248-11.293-1.248a16.69,16.69,0,0,0-6.6-1.761c-3.666-.144-11.365-2.417-11.546-3.153s1.912-11.546,1.032-12.318c0,0,10.268.419,11.293,1.162s2.49.209,3.608,0,4.474-3.146,11.149-.577c0,0,2.273.224,3.153-.368a3.161,3.161,0,0,1,2.295-.144,6.311,6.311,0,0,0,1.588-.808c.224-.289,1.984,0,1.984,0a.772.772,0,0,0,1.1-.512,4.878,4.878,0,0,1,1.025-1.616s1.984-11.142,5.722-15.327a2.374,2.374,0,0,0,.808-2.122C484.048,615.509,490.434,598.811,499.231,601.135Z" transform="translate(-148.789 -263.41)" fill="#3f3d56"/>
    <path id="Tracé_187" data-name="Tracé 187" d="M869.727,268.4v40.41c0,1.205-2.251,2.165-5.051,2.165H758.051c-2.785,0-5.051-.974-5.051-2.165V268.4c0-1.205,2.251-2.432,5.051-2.432H864.69C867.475,265.992,869.727,267.2,869.727,268.4Z" transform="translate(-236.049 -170.163)" fill="#fff"/>
    <g id="Groupe_24" data-name="Groupe 24" transform="translate(504.482 103.16)" opacity="0.1">
      <path id="Tracé_188" data-name="Tracé 188" d="M852.425,278.592V319c0,1.2-2.259,2.165-5.051,2.165h-106.6c-2.785,0-5.051-.981-5.051-2.165v-40.41c0-1.205,2.251-2.432,5.051-2.432H847.388C850.166,276.16,852.425,277.387,852.425,278.592Z" transform="translate(-735.72 -276.16)" fill="#5878cf"/>
    </g>
    <path id="Tracé_189" data-name="Tracé 189" d="M869.727,268.4v40.41c0,1.205-2.251,2.165-5.051,2.165H758.051c-2.785,0-5.051-.974-5.051-2.165V268.4c0-1.205,2.251-2.432,5.051-2.432H864.69C867.475,265.992,869.727,267.2,869.727,268.4Z" transform="translate(-236.049 -170.163)" fill="#fff"/>
    <g id="Groupe_25" data-name="Groupe 25" transform="translate(516.951 95.807)" opacity="0.2">
      <path id="Tracé_190" data-name="Tracé 190" d="M869.727,268.4v40.41c0,1.205-2.251,2.165-5.051,2.165H758.051c-2.785,0-5.051-.974-5.051-2.165V268.4c0-1.205,2.251-2.432,5.051-2.432H864.69C867.475,265.992,869.727,267.2,869.727,268.4Z" transform="translate(-753 -265.97)" fill="#5878cf"/>
    </g>
    <rect id="Rectangle_57" data-name="Rectangle 57" width="55.535" height="1.963" transform="translate(568.2 110.239)" fill="#5878cf"/>
    <rect id="Rectangle_58" data-name="Rectangle 58" width="55.535" height="1.963" transform="translate(568.2 115.016)" fill="#5878cf" opacity="0.2"/>
    <rect id="Rectangle_59" data-name="Rectangle 59" width="55.535" height="1.963" transform="translate(568.2 119.793)" fill="#5878cf" opacity="0.2"/>
    <rect id="Rectangle_60" data-name="Rectangle 60" width="55.535" height="1.963" transform="translate(568.2 124.57)" fill="#5878cf" opacity="0.2"/>
    <path id="Tracé_191" data-name="Tracé 191" d="M780,280a13.169,13.169,0,0,0-7.281,24.159v-2.23a3,3,0,0,1,2.634-2.966,5.224,5.224,0,0,0,9.164,0,3,3,0,0,1,2.634,2.966v2.287A13.169,13.169,0,0,0,780,280Zm5.773,16.07a.57.57,0,0,1-.556.354,1.659,1.659,0,0,1-.267,0,5.224,5.224,0,0,1-10.232-1.487,5.167,5.167,0,0,1,.678-2.569l-.058-.036a1.746,1.746,0,0,1,.173-2.417,3.541,3.541,0,0,1,1.082-.4,4.8,4.8,0,0,0,2.742-2.093,4.91,4.91,0,0,1,0,.794,1.162,1.162,0,0,1,1.652-.058c.166.166.274.4.476.527a1.248,1.248,0,0,0,.585.166l1.306.173a1.847,1.847,0,0,1,1.992,1.443,12.64,12.64,0,0,1,.859,2.778,4.387,4.387,0,0,1-.419,2.829Z" transform="translate(-239.892 -174.069)" fill="#5878cf" opacity="0.2"/>
    <path id="Tracé_192" data-name="Tracé 192" d="M899.179,609.087c-1-3.608-1.645-6.769-1.645-6.769a14.069,14.069,0,0,0-1.847-6.862l-.036-.989h0l-.289-7.331a24.7,24.7,0,0,1,1.7-3.9c1.227-2.345-.411-10.716-.411-10.716s-5.34-11.683-4.438-19.252-11.308-33.042-11.308-33.042a33.2,33.2,0,0,1,.772-7.418,5.9,5.9,0,0,0,.079-1.559,1.659,1.659,0,0,0,0-.188v.058c-.361-4.957-4.64-14.107-4.64-14.107l-.159-17.759s2.107-10.557-2.526-24.433c-1.616-4.842-2.677-8.731-3.37-11.733-.079-.339-.159-.664-.224-.981,8.363-1.6,14.742-2.886,14.742-2.886s-5.657-20.2-9.092-23.669S870,400.984,870,400.984s-2.266-14.353.339-18.668,2.706-11.661,2.706-11.661,6.148-4.842,6.862-6.913,1.855-6.718,1.761-9.135-.967-4.568-.722-5.852-2.085-6.054-1.118-8.392a6.221,6.221,0,0,0,.339-2.23v-.094a31.118,31.118,0,0,0-.787-5.96,16.986,16.986,0,0,0-6.393-3.11l-.159-.541-.411-1.443c-.216-.13-.426-.245-.635-.346v-.52l-.137-2.071.808-4.7c1.638-8.176-9.222-8.97-9.222-8.97a5.643,5.643,0,0,0-3.161-2.562c-2.208-.722.1,12.2,1.155,12.989.787.592,3.3,4.561,4.517,6.494h0l.2.318a4.927,4.927,0,0,0-.476.541l.52,2.793.079.433a11.31,11.31,0,0,0-1.609,3s2.057,2.093,1.753,4.532a13.912,13.912,0,0,0,.873,5.585c-.123-.13-1.573-1.58-2.944-1.155s-5.217,1.732-5.217,1.732-2.886.621-2.591,1.248-1.84,3.521-1.84,3.521l-8.082-7.086c-.087-.216-.173-.433-.253-.657a18.491,18.491,0,0,1-.8-3.211,17.553,17.553,0,0,0,2.461-.888,5.39,5.39,0,0,0,2.107-1.443,8.837,8.837,0,0,0,1.126-3.406c.527-2.295,1.775-4.366,2.641-6.559a20.977,20.977,0,0,0,1.061-11.589,7.693,7.693,0,0,0-1.328-3.341c-1.342-1.7-3.673-2.331-5.4-3.659s-2.886-3.42-4.893-4.395a9.1,9.1,0,0,0-5.932-.281,31.657,31.657,0,0,0-10.9,4.438c-1.1.722-2.324,1.544-3.608,1.357a4.918,4.918,0,0,1-2.735-1.855.6.6,0,0,1,0-.108l-.094-.094a13.777,13.777,0,0,0-.981,5.874,4.046,4.046,0,0,0,.072.931v.325a1.75,1.75,0,0,1,0,.274h0a1.651,1.651,0,0,1-.043.419,3,3,0,0,1-.722,1.075,6.488,6.488,0,0,0-.606.895,1.105,1.105,0,0,1,.094-.325,4.561,4.561,0,0,0-.722,2.49,2.454,2.454,0,0,0,.649,1.739,8.481,8.481,0,0,0,1.313.974,14.1,14.1,0,0,0-.137,2.6,15.089,15.089,0,0,0,7.837,12.577c.1.217.195.433.3.657a18.675,18.675,0,0,1,1.739,8.443,4.423,4.423,0,0,1-.072.621c-.029.2-.188.224-.267.339h0s-12.866.621-16-2.006-7.389,6.992-7.389,6.992-4.575,1.075-5.535.216-6.336.115-6.336.115a11.6,11.6,0,0,0-8.147-2.627,23.88,23.88,0,0,0-6.033-3.052h0l-.152-.043h0a6.625,6.625,0,0,0-2.886-.26s-6.531-4.986-8.486-7.721-11.142-12.808-11.185-12.859l-.05-.5-.159-1.515a5.445,5.445,0,0,1-.787.1l-.195-.52a27.784,27.784,0,0,0-2.035-4.214s-.072-1.919.469-2.417-.52-7.49-.52-7.49-6.213-13.112-10.939-2.959c0,0-9.381,6.812-1.017,13.992,0,0,3.3,1.443,3.8,2.67.332.794,1.515,3,2.309,4.467.13.245.253.462.354.657l-.087.079.166,1.248.065.483c-1.487.924-2.49,1.826-2.215,2.468a13.949,13.949,0,0,1,1.054,3.406s11.748,13.6,13.429,19.548c0,0,30.74,16.705,40.677,17.6l-1.3,8.977a71.174,71.174,0,0,0-.115,7.288c.2,1.912-.779,10.636-.779,10.636s-1.227,12.823-2.6,14.67-.83,9.482-.83,9.482A64.476,64.476,0,0,1,793.3,434.82c-1.263,4.9,0,10.86,0,10.86s-4.568,11.676,7.13,3.428c0,0,5.874-.592,12.643-1.082v.678c0,.873.043,1.818.072,2.814.159,6.581.469,15.644,1.032,22.492,1,12.1,5.614,35.914,5.614,35.914l.462,12.051a16.556,16.556,0,0,0-.209,3.456,22.37,22.37,0,0,0,3.68,11.971l1.234,8s2.367,5.217,2.533,8.378a4.336,4.336,0,0,1-.065.772,5.337,5.337,0,0,0-.058,1.234c0,3.651,2.555,12.3,2.555,12.3s.469,8.8,1.8,9.258c1.147.39-1.306,5.131-2.042,6.494q-.035-.125-.058-.253c-.094.18-.152.274-.152.274a6.27,6.27,0,0,0-.325,2.244,3.19,3.19,0,0,0,1.58,3.038c2.562,1.443,3.954,2.656,1.855,3.247a22.379,22.379,0,0,0-2.309.585c0-.1-.087-.2-.123-.3a1.443,1.443,0,0,0-.808,1.573,6.639,6.639,0,0,0,.9,2.959,32.058,32.058,0,0,0,3.825,6.372l1-.152a5.248,5.248,0,0,1-.541,1.111,4.278,4.278,0,0,1-1.443,1.378,4.554,4.554,0,0,1-1.775.722,5.052,5.052,0,0,0-3.666,1.963c-1.248,1.746-1.984,4.1.722,6.033l9.554,2.886s16.294,1.487,15.291-2.122-1.645-6.769-1.645-6.769a14.433,14.433,0,0,0-1.566-6.4,7.936,7.936,0,0,0-.606-.931l.57-.087s.873-8.082,2.4-9.677c.354-.361.426-.635.332-.844.144-.447-.274-.722-.815-.808a1.153,1.153,0,0,1-.1.318,8.087,8.087,0,0,0-1.58-.115s-.722-4.185.967-5.773a1.617,1.617,0,0,0,.281-1.263,6.837,6.837,0,0,0-.245-1.7.442.442,0,0,0-.05.1,62.587,62.587,0,0,0-4.171-9.749s-.274-3.824.722-5.39-.938-20.8-.938-20.8.043-9.33-1.313-13.617,1.09-9.5,1.09-9.5a1.347,1.347,0,0,0-.043-.281v-.065s-.079-.57-.209-1.443a.477.477,0,0,1,0,.094c-.354-2.453-1.032-6.9-1.443-8.955-.642-2.886-.52-16.972-.52-16.972l2.165-6.09,4.618,10.175,5.015,13.609a11.758,11.758,0,0,1,2.5,5.773v.433a7.958,7.958,0,0,0,0,.924,8.211,8.211,0,0,0,1.551,4.849s1.443,6.494,3.348,8.053,2.035,4.777,2.035,4.777,2.6,9.381,3.723,10.976c.938,1.364,1.133,5.2,1.169,6.379h0v.346s.447,3.363.541,6.2v.938a10.26,10.26,0,0,1-.188,2.3c0,.043,0,.086,0,.137v-.476a24.261,24.261,0,0,0-.447,5.9c.072,3.4.722,7.4,2.886,9.677,3.716,3.947,5.939,3.348,5.939,3.348s-1.515,5.167-3.608,6.271a1.511,1.511,0,0,0-.224.152,2.03,2.03,0,0,0-.058-.289,2.468,2.468,0,0,0-.548,1.919,13.772,13.772,0,0,0,2.886,7.469,4.2,4.2,0,0,0,1.818.967,3.524,3.524,0,0,1-.317.224,6.814,6.814,0,0,1-.722.368,3.533,3.533,0,0,1-1.068.318,5.088,5.088,0,0,0-3.666,1.963c-1.241,1.746-1.984,4.091.722,6.033l9.554,2.886S900.211,612.7,899.179,609.087Z" transform="translate(-231.723 -180.296)" fill="url(#linear-gradient-2)"/>
    <path id="Tracé_193" data-name="Tracé 193" d="M871.822,732.057l-9.251-2.886c-2.591-1.941-1.876-4.294-.671-6.04a4.871,4.871,0,0,1,3.543-1.956,4.331,4.331,0,0,0,1.717-.722,4.042,4.042,0,0,0,1.393-1.378,6.756,6.756,0,0,0,.909-3.565s9.9-3.319,12.758-.491a7.708,7.708,0,0,1,1.284,1.732,14.9,14.9,0,0,1,1.523,6.408s.635,3.161,1.6,6.769S871.822,732.057,871.822,732.057Z" transform="translate(-266.063 -294.859)" fill="#2d293d"/>
    <path id="Tracé_194" data-name="Tracé 194" d="M933.463,723.463l-9.244-2.886c-2.6-1.934-1.883-4.286-.678-6.025a4.82,4.82,0,0,1,3.543-1.956,3.6,3.6,0,0,0,1.032-.325,5.947,5.947,0,0,0,.722-.368c2.5-1.5,2.3-4.943,2.3-4.943s9.908-3.319,12.758-.491a7.053,7.053,0,0,1,1.01,1.263,14.457,14.457,0,0,1,1.8,6.87s.635,3.175,1.6,6.776S933.463,723.463,933.463,723.463Z" transform="translate(-283.224 -292.478)" fill="#2d293d"/>
    <path id="Tracé_195" data-name="Tracé 195" d="M885.207,715.059a7.71,7.71,0,0,1,1.285,1.732h0l-14.952,2.316a6.755,6.755,0,0,0,.909-3.565S882.35,712.23,885.207,715.059Z" transform="translate(-269.05 -294.869)" opacity="0.1"/>
    <path id="Tracé_196" data-name="Tracé 196" d="M947.056,707.712l.108,2.814c-2.165,3.94-13.508,3.529-16.864,1.725a5.956,5.956,0,0,0,.722-.368c2.5-1.5,2.3-4.943,2.3-4.943s9.908-3.319,12.758-.491A7.061,7.061,0,0,1,947.056,707.712Z" transform="translate(-285.408 -292.473)" opacity="0.1"/>
    <path id="Tracé_197" data-name="Tracé 197" d="M923.886,634.519a24.762,24.762,0,0,0-1.638,3.9l.382,10.1c-2.388,4.33-15.709,3.42-17.585,1.191s-4.019-8.147-2.013-9.251,3.464-6.263,3.464-6.263-2.165.592-5.773-3.356-2.93-13.047-2.374-15.24-.368-9.446-.368-9.446-.065-5.109-1.147-6.725-3.608-10.976-3.608-10.976-.123-3.19-1.97-4.784-3.247-8.053-3.247-8.053a8.371,8.371,0,0,1-1.487-5.434c.26-3.2-2.425-6.552-2.425-6.552l-4.871-13.609-4.481-10.182-2.057,6.1s-.1,14.057.527,16.972,1.689,10.665,1.689,10.665-2.36,5.2-1.039,9.5,1.292,13.624,1.292,13.624,1.883,19.216.924,20.789-.722,5.39-.722,5.39,5.665,11.026,4.063,12.621-.931,5.773-.931,5.773,3.608-.137,2.107,1.443-2.316,9.677-2.316,9.677l-15.356,2.381a31.994,31.994,0,0,1-3.709-6.379c-2.223-4.647.224-4.221,2.259-4.813s.722-1.811-1.8-3.254-1.212-4.936-1.212-4.936,3.456-6.393,2.165-6.855-1.761-9.258-1.761-9.258-2.951-10.362-2.425-13.2-2.41-9.489-2.41-9.489l-1.2-8a22.11,22.11,0,0,1-3.392-15.074L849,561.089s-4.5-23.813-5.47-35.95c-.628-7.75-.945-18.343-1.09-24.96-.079-3.709-.108-6.17-.108-6.17l54.892-7.858a45.839,45.839,0,0,0,1.313,8.147c.678,3,1.71,6.891,3.283,11.733,4.5,13.884,2.475,24.441,2.475,24.441l.173,17.751s5.3,11.676,4.438,15.8a34.317,34.317,0,0,0-.722,7.44s11.841,25.48,10.983,33.049,4.33,19.26,4.33,19.26S925.076,632.174,923.886,634.519Z" transform="translate(-260.918 -231.46)" fill="#65617d"/>
    <path id="Tracé_198" data-name="Tracé 198" d="M908.13,600.206l16.691-2.886S915.692,607.394,908.13,600.206Z" transform="translate(-279.236 -262.409)" opacity="0.05"/>
    <path id="Tracé_199" data-name="Tracé 199" d="M925.939,574.74s.8,5.91-2.749,8.284C923.212,583.024,929.684,581.754,925.939,574.74Z" transform="translate(-283.429 -256.123)" opacity="0.1"/>
    <path id="Tracé_200" data-name="Tracé 200" d="M917.078,548.63s-13.581,12.087-18.762,11.329S917.078,548.63,917.078,548.63Z" transform="translate(-276.3 -248.854)" opacity="0.1"/>
    <path id="Tracé_201" data-name="Tracé 201" d="M875.468,610s-10.557,2.829-10.709,7.115S875.468,610,875.468,610Z" transform="translate(-267.162 -265.939)" opacity="0.1"/>
    <path id="Tracé_202" data-name="Tracé 202" d="M881.3,683.55s-14.93,3.384-10.6,5.131a73.028,73.028,0,0,0,11.423,3.016S886.975,691.762,881.3,683.55Z" transform="translate(-268.595 -286.415)" opacity="0.05"/>
    <g id="Groupe_26" data-name="Groupe 26" transform="translate(581.391 262.173)" opacity="0.05">
      <path id="Tracé_203" data-name="Tracé 203" d="M866.262,694.179a3,3,0,0,1-1.443-2.129c-.087.173-.144.274-.144.274s-1.27,3.492,1.212,4.936c.289.166.556.325.808.483.447-.1.924-.18,1.385-.318C870.058,696.87,868.708,695.622,866.262,694.179Z" transform="translate(-848.439 -550.955)"/>
      <path id="Tracé_204" data-name="Tracé 204" d="M893.5,691.577c.4-.4.346-1.378.043-2.627a7.086,7.086,0,0,0-.722,3.724A2.958,2.958,0,0,1,893.5,691.577Z" transform="translate(-856.359 -550.092)"/>
      <path id="Tracé_205" data-name="Tracé 205" d="M886.847,604.75a17.317,17.317,0,0,0-.837,4.734,18.4,18.4,0,0,1,1.046-3.269S886.977,605.652,886.847,604.75Z" transform="translate(-854.469 -526.651)"/>
      <path id="Tracé_206" data-name="Tracé 206" d="M934.491,593.09a5.674,5.674,0,0,0,.087-1.4c-.151.96-.253,1.847-.318,2.627C934.332,593.92,934.4,593.508,934.491,593.09Z" transform="translate(-867.901 -523.015)"/>
      <path id="Tracé_207" data-name="Tracé 207" d="M888.963,666.523a8.113,8.113,0,0,0,.267-2.843,9.6,9.6,0,0,0-.592,3.608A3.468,3.468,0,0,1,888.963,666.523Z" transform="translate(-855.199 -543.057)"/>
      <path id="Tracé_208" data-name="Tracé 208" d="M886.347,700.8a50.22,50.22,0,0,0-1.443,7.938l-15.356,2.381a32.33,32.33,0,0,1-3.7-6.372c-.195-.411-.354-.779-.483-1.111-.909.462-1.234,1.443.087,4.193a32.033,32.033,0,0,0,3.709,6.372l15.356-2.381s.837-8.082,2.309-9.669C887.538,701.334,887.04,700.944,886.347,700.8Z" transform="translate(-848.499 -553.391)"/>
      <path id="Tracé_209" data-name="Tracé 209" d="M858.882,621.8s.469,8.8,1.761,9.265h0c.592-1.479.967-2.886.39-3.081-1.3-.462-1.761-9.266-1.761-9.266s-2.959-10.362-2.425-13.191-2.41-9.489-2.41-9.489l-1.205-8a22.11,22.11,0,0,1-3.392-15.074l-.476-12.375s-4.5-23.813-5.47-35.95c-.628-7.75-.945-18.35-1.09-24.96,0-1.2-.043-2.259-.065-3.153l-.44.065s0,2.453.115,6.17c.144,6.61.462,17.21,1.082,24.96.981,12.1,5.477,35.95,5.477,35.95l.476,12.376a22.11,22.11,0,0,0,3.392,15.074l1.2,8s2.944,6.653,2.41,9.489S858.882,621.8,858.882,621.8Z" transform="translate(-842.3 -496.52)"/>
      <path id="Tracé_210" data-name="Tracé 210" d="M928.533,705.7a14.922,14.922,0,0,1-2.67-5.96c-1.523,1.443.5,6.927,2.28,9.042,1.876,2.23,15.2,3.125,17.586-1.183l-.094-2.432C942.323,708.731,930.308,707.822,928.533,705.7Z" transform="translate(-865.414 -553.096)"/>
      <path id="Tracé_211" data-name="Tracé 211" d="M955.248,686.961a24.764,24.764,0,0,0-1.638,3.9l.065,1.79c.267-.664.649-1.551,1.183-2.6a7.745,7.745,0,0,0,.433-3.182Z" transform="translate(-873.288 -549.51)"/>
      <path id="Tracé_212" data-name="Tracé 212" d="M927.176,683.616a24.093,24.093,0,0,0,1.14-3.081s-2.165.592-5.773-3.355c-2.619-2.886-2.98-8.479-2.764-12.159-.556,2.165-1.227,11.293,2.374,15.24C924.527,682.844,926.259,683.479,927.176,683.616Z" transform="translate(-863.747 -543.43)"/>
      <path id="Tracé_213" data-name="Tracé 213" d="M909.854,625.167a69.286,69.286,0,0,1,.548,7.548,9.307,9.307,0,0,1,.216-1.191c.556-2.165-.368-9.439-.368-9.439s-.072-5.109-1.155-6.733-3.608-10.976-3.608-10.976-.123-3.189-1.977-4.777-3.247-8.053-3.247-8.053a8.4,8.4,0,0,1-1.486-5.441c.26-3.2-2.425-6.545-2.425-6.545l-4.878-13.617-4.481-10.175-2.064,6.083v1.941l1.681-4.943,4.481,10.175,4.864,13.609s2.684,3.341,2.425,6.545a8.356,8.356,0,0,0,1.487,5.441s1.393,6.494,3.247,8.053,1.97,4.777,1.97,4.777,2.533,9.381,3.608,10.976S909.854,625.167,909.854,625.167Z" transform="translate(-854.168 -513.015)"/>
    </g>
    <path id="Tracé_214" data-name="Tracé 214" d="M916.825,321.605l-.779,4.7.137,2.071.1,1.53-5.3.722-.642-1.082h0c-1.176-1.956-3.608-5.932-4.387-6.494-1.01-.787-3.269-13.674-1.133-12.989a5.592,5.592,0,0,1,3.074,2.569S918.412,313.437,916.825,321.605Z" transform="translate(-278.067 -182.43)" fill="#ffcdd3"/>
    <path id="Tracé_215" data-name="Tracé 215" d="M918.756,336.76l-5.3.722-.642-1.082h0a4.7,4.7,0,0,1,5.845-1.2Z" transform="translate(-280.539 -189.285)" opacity="0.1"/>
    <path id="Tracé_216" data-name="Tracé 216" d="M920.049,339.438l-6.956,1.9-.188-1.039-.505-2.8a4.831,4.831,0,0,1,6.761-1.183l.4,1.443Z" transform="translate(-280.425 -189.489)" fill="#dce6f2"/>
    <path id="Tracé_217" data-name="Tracé 217" d="M758.211,324.317l-7.339,4.33s-.31-.577-.722-1.386c-.772-1.443-1.919-3.68-2.244-4.474-.491-1.22-3.68-2.67-3.68-2.67-8.132-7.216.967-13.992.967-13.992,4.561-10.146,10.586,2.973,10.586,2.973s1.039,6.992.512,7.49-.447,2.41-.447,2.41a28.349,28.349,0,0,1,1.97,4.221C758.074,323.884,758.211,324.317,758.211,324.317Z" transform="translate(-232.665 -180.27)" fill="#ffcdd3"/>
    <path id="Tracé_218" data-name="Tracé 218" d="M761.8,332.4l-7.339,4.33s-.31-.577-.722-1.385c1.017-.924,4.654-4.113,5.888-4.019a9.516,9.516,0,0,0,1.775,0C761.663,331.971,761.8,332.4,761.8,332.4Z" transform="translate(-236.255 -188.358)" opacity="0.1"/>
    <path id="Tracé_219" data-name="Tracé 219" d="M762.747,334.79l-8.262,4.474-.238-1.8-.166-1.248s4.719-4.366,6.17-4.265a7.808,7.808,0,0,0,2.165-.087l.159,1.508Z" transform="translate(-236.349 -188.506)" fill="#dce6f2"/>
    <path id="Tracé_220" data-name="Tracé 220" d="M883.347,359.131s-36.556,5.556-29.781,3.067c4.719-1.746,6.494-4.856,6.769-8.234a19.281,19.281,0,0,0-1.7-8.45,36.871,36.871,0,0,0-3.536-6.494s27.471-16.518,22.37-2.266a22.325,22.325,0,0,0-1.335,6.711,18.76,18.76,0,0,0,.981,6.7,20.06,20.06,0,0,0,6.227,8.962Z" transform="translate(-263.813 -188.255)" fill="#ffcdd3"/>
    <path id="Tracé_221" data-name="Tracé 221" d="M878.419,336.766a22.326,22.326,0,0,0-1.335,6.711c-2.554,2.324-5.463,2.288-9.186,2.432-2.886.108-6,.924-8.342-.368a36.868,36.868,0,0,0-3.536-6.494S883.492,322.522,878.419,336.766Z" transform="translate(-264.729 -188.26)" opacity="0.1"/>
    <circle id="Ellipse_49" data-name="Ellipse 49" cx="15.197" cy="15.197" r="15.197" transform="translate(586.932 128.265)" fill="#ffcdd3"/>
    <path id="Tracé_222" data-name="Tracé 222" d="M883.347,366.005s-36.556,5.556-29.781,3.067c4.719-1.746,6.494-4.856,6.769-8.233,1.753-2.057,5.369-3.608,7.7-4.474a10.961,10.961,0,0,1,6.646-.361,9.258,9.258,0,0,1,2.468,1.025A20.06,20.06,0,0,0,883.347,366.005Z" transform="translate(-263.813 -195.13)" opacity="0.1"/>
    <path id="Tracé_223" data-name="Tracé 223" d="M920.244,340.269l-6.956,1.9-.188-1.039a6.22,6.22,0,0,1,6.66-2.569Z" transform="translate(-280.62 -190.32)" opacity="0.1"/>
    <path id="Tracé_224" data-name="Tracé 224" d="M762.81,335.385l-8.262,4.474-.238-1.8A61.163,61.163,0,0,1,762.666,334Z" transform="translate(-236.413 -189.102)" opacity="0.1"/>
    <path id="Tracé_225" data-name="Tracé 225" d="M898.527,494.337c-14.129,2.793-34.254,6.494-37.523,5.636-2.7-.722-11.2-.3-18.6.245-.079-3.709-.108-6.17-.108-6.17l54.892-7.858A45.84,45.84,0,0,0,898.527,494.337Z" transform="translate(-260.909 -231.471)" opacity="0.1"/>
    <path id="Tracé_226" data-name="Tracé 226" d="M887.283,448.267s-46.515,9.835-51.6,8.5-30.82,1.313-30.82,1.313c-11.308,8.226-6.906-3.442-6.906-3.442s-1.248-5.953,0-10.86a66.713,66.713,0,0,0,1.494-10.918s-.548-7.642.787-9.482,2.5-14.663,2.5-14.663.938-8.724.722-10.636a69.431,69.431,0,0,1,.108-7.281l1.3-8.991c-9.619-.909-39.392-17.65-39.392-17.65-1.638-5.939-12.989-19.555-12.989-19.555a14.655,14.655,0,0,0-1.025-3.413c-.844-2.013,10.485-6.538,10.485-6.538s8.948,10.1,10.824,12.873,8.219,7.736,8.219,7.736a6.134,6.134,0,0,1,2.822.253l.144.043h0a22.844,22.844,0,0,1,5.838,3.06,11.084,11.084,0,0,1,7.894,2.634s5.2-.967,6.126-.108,5.362-.2,5.362-.2,4.1-9.619,7.137-6.985,15.493,2.02,15.493,2.02c1.573-2.266,5.549-4,8.046-4.914a10.961,10.961,0,0,1,6.646-.368,8.53,8.53,0,0,1,2.677,1.169l7.837,7.108s2.064-2.886,1.782-3.521,2.511-1.241,2.511-1.241,3.651-1.292,5.051-1.732,2.728,1.039,2.85,1.162a14.765,14.765,0,0,1-.852-5.585c.281-2.374-1.71-4.532-1.71-4.532,4.048-11.142,14.475-2.345,14.475-2.345s1.385,5.953.447,8.291,1.3,7.1,1.09,8.385.642,3.428.722,5.852a35.38,35.38,0,0,1-1.689,9.136c-.686,2.071-6.639,6.9-6.639,6.9s-.1,7.288-2.619,11.6-.3,18.668-.3,18.668,2.987,11.127,6.314,14.576S887.283,448.267,887.283,448.267Z" transform="translate(-235.608 -189.283)" fill="#3f3d56"/>
    <path id="Tracé_227" data-name="Tracé 227" d="M838.066,376.466s-1.566-4.156-2.886-4.488a30.61,30.61,0,0,1-3.76-1.515l.722-1.6s4.842,1.126,5.665,2.5S838.066,376.466,838.066,376.466Z" transform="translate(-257.881 -198.807)" opacity="0.1"/>
    <path id="Tracé_228" data-name="Tracé 228" d="M800.146,366.666c-.209,1.284-11.546,2.886-11.546,2.886l5.52-5.982h0l.144.043h0A22.844,22.844,0,0,1,800.146,366.666Z" transform="translate(-245.96 -197.334)" opacity="0.1"/>
    <circle id="Ellipse_50" data-name="Ellipse 50" cx="1.025" cy="1.025" r="1.025" transform="translate(519.636 152.056)" fill="#575988"/>
    <circle id="Ellipse_51" data-name="Ellipse 51" cx="1.025" cy="1.025" r="1.025" transform="translate(521.021 154.048)" fill="#575988"/>
    <circle id="Ellipse_52" data-name="Ellipse 52" cx="1.025" cy="1.025" r="1.025" transform="translate(522.371 155.881)" fill="#575988"/>
    <circle id="Ellipse_53" data-name="Ellipse 53" cx="1.025" cy="1.025" r="1.025" transform="translate(523.785 157.872)" fill="#575988"/>
    <circle id="Ellipse_54" data-name="Ellipse 54" cx="0.83" cy="0.83" r="0.83" transform="translate(644.242 153.326)" fill="#575988"/>
    <circle id="Ellipse_55" data-name="Ellipse 55" cx="0.83" cy="0.83" r="0.83" transform="translate(644.444 155.203)" fill="#575988"/>
    <circle id="Ellipse_56" data-name="Ellipse 56" cx="0.83" cy="0.83" r="0.83" transform="translate(644.625 157.079)" fill="#575988"/>
    <path id="Tracé_229" data-name="Tracé 229" d="M842.56,427.31c-.123-.144,30.033,35.07,51.559,13.22C894.111,440.53,859.02,446.67,842.56,427.31Z" transform="translate(-260.982 -215.079)" opacity="0.1"/>
    <path id="Tracé_230" data-name="Tracé 230" d="M820.67,454.36s17.232-.195,19.224,4.683l.195,5.152a3.283,3.283,0,0,1-3.2.123c-1.768-.866-12.375-5.773-15.947-3.067Z" transform="translate(-254.888 -222.609)" opacity="0.1"/>
    <path id="Tracé_231" data-name="Tracé 231" d="M821.12,454.34s16.474-.188,18.379,4.467l.188,4.914a3.16,3.16,0,0,1-3.067.115c-1.689-.83-11.834-5.484-15.247-2.922Z" transform="translate(-255.013 -222.604)" fill="#656691"/>
    <path id="Tracé_232" data-name="Tracé 232" d="M831.7,402.07a55.36,55.36,0,0,0,7.115,11.192,44.905,44.905,0,0,0,10.824,9.684S832.075,404.422,831.7,402.07Z" transform="translate(-257.958 -208.052)" opacity="0.1"/>
    <path id="Tracé_233" data-name="Tracé 233" d="M822.83,374.66s3.348,12.267,10.911,16.207Z" transform="translate(-255.489 -200.422)" opacity="0.1"/>
    <path id="Tracé_234" data-name="Tracé 234" d="M816.729,376.629c-.087-.231-2.165,9.9,10.1,14.98C826.853,391.609,821.65,390.065,816.729,376.629Z" transform="translate(-253.739 -200.969)" opacity="0.1"/>
    <path id="Tracé_235" data-name="Tracé 235" d="M920.488,361.093c-.188,0,6.119,3.687,7.858,5.448C928.347,366.541,924.118,360.7,920.488,361.093Z" transform="translate(-282.676 -196.639)" opacity="0.1"/>
    <path id="Tracé_236" data-name="Tracé 236" d="M860.9,337.939a2.389,2.389,0,0,0,2.706,2.273c4.64.108,9.467.13,13.71-1.818a5.166,5.166,0,0,0,2.028-1.443,8.636,8.636,0,0,0,1.09-3.406c.512-2.288,1.71-4.33,2.554-6.552a21.7,21.7,0,0,0,1.025-11.639,7.75,7.75,0,0,0-1.284-3.341c-1.3-1.71-3.565-2.331-5.239-3.666s-2.807-3.428-4.741-4.4a8.673,8.673,0,0,0-5.773-.289,30.134,30.134,0,0,0-10.535,4.431c-1.075.722-2.251,1.537-3.529,1.349a4.917,4.917,0,0,1-2.706-1.912,14.15,14.15,0,0,0-.88,6.66,2.89,2.89,0,0,1,0,1,3.06,3.06,0,0,1-.671,1.075c-1.09,1.371-1.725,3.5-.541,4.791.512.57,1.277.859,1.782,1.443.895,1.032.664,2.576.722,3.94a2,2,0,0,0,.39,1.335,1.97,1.97,0,0,0,1.891.375,5.1,5.1,0,0,1,1.984-.267,3.305,3.305,0,0,1,1.79,1.27C858.931,331.747,859.877,334.706,860.9,337.939Z" transform="translate(-262.351 -180.557)" fill="#2d293d"/>
    <g id="Groupe_27" data-name="Groupe 27" transform="translate(585.138 126.793)" opacity="0.1">
      <path id="Tracé_237" data-name="Tracé 237" d="M879.79,340.931a5.173,5.173,0,0,1-2.035,1.443c-4.214,1.948-9.034,1.934-13.674,1.818a2.388,2.388,0,0,1-2.713-2.266c-1.018-3.24-1.97-6.2-4.214-8.832a3.319,3.319,0,0,0-1.782-1.27,5.275,5.275,0,0,0-1.992.267,1.97,1.97,0,0,1-1.891-.375,2.042,2.042,0,0,1-.39-1.335c0-1.364.2-2.886-.721-3.94-.5-.577-1.27-.866-1.782-1.443a3,3,0,0,1-.411-3.038c-.758,1.32-1.046,2.987-.058,4.077.512.563,1.284.852,1.782,1.443.895,1.032.671,2.576.722,3.947a1.992,1.992,0,0,0,.39,1.328,1.948,1.948,0,0,0,1.891.375,5.253,5.253,0,0,1,1.992-.267,3.355,3.355,0,0,1,1.782,1.27c2.244,2.641,3.19,5.592,4.214,8.832a3.211,3.211,0,0,0,1.263,2.006,3.254,3.254,0,0,0,1.443.267c4.64.108,9.467.123,13.711-1.826a5.232,5.232,0,0,0,2.035-1.443,4.128,4.128,0,0,0,.606-1.256,2.088,2.088,0,0,1-.166.216Z" transform="translate(-847.494 -312.543)"/>
      <path id="Tracé_238" data-name="Tracé 238" d="M850.084,316.314a2.163,2.163,0,0,0,.433-.787,2.719,2.719,0,0,0,0-1,14.137,14.137,0,0,1,.505-5.52l-.094-.1a14.173,14.173,0,0,0-.88,6.66,4.28,4.28,0,0,1,.036.743Z" transform="translate(-848.182 -308.91)"/>
    </g>
    <path id="Tracé_239" data-name="Tracé 239" d="M862.82,363.763s19.065,1.79,20.66-1.133" transform="translate(-266.622 -197.072)" opacity="0.1"/>
    <path id="Tracé_240" data-name="Tracé 240" d="M913.5,351.356s10.535-.39,12.989,3.471" transform="translate(-280.731 -193.931)" opacity="0.1"/>
    <path id="Tracé_241" data-name="Tracé 241" d="M153.285,304.312v40.41c0,1.205-2.259,2.165-5.051,2.165H41.631c-2.785,0-5.051-.974-5.051-2.165v-40.41c0-1.205,2.251-2.432,5.051-2.432H148.248C151.026,301.88,153.285,303.107,153.285,304.312Z" transform="translate(-36.6 -180.16)" fill="#fff"/>
    <g id="Groupe_28" data-name="Groupe 28" transform="translate(-0.02 121.72)" opacity="0.2">
      <path id="Tracé_242" data-name="Tracé 242" d="M153.285,304.312v40.41c0,1.205-2.259,2.165-5.051,2.165H41.631c-2.785,0-5.051-.974-5.051-2.165v-40.41c0-1.205,2.251-2.432,5.051-2.432H148.248C151.026,301.88,153.285,303.107,153.285,304.312Z" transform="translate(-36.58 -301.88)" fill="#5878cf"/>
    </g>
    <rect id="Rectangle_61" data-name="Rectangle 61" width="55.535" height="1.963" transform="translate(51.207 136.152)" fill="#5878cf"/>
    <path id="Tracé_243" data-name="Tracé 243" d="M63.552,315.92a13.169,13.169,0,0,0-7.259,24.152v-.88a2.987,2.987,0,0,1,2.634-2.959,5.224,5.224,0,0,0,9.164,0,2.987,2.987,0,0,1,2.634,2.959v.938a13.169,13.169,0,0,0-7.173-24.21Zm5.159,16.691a5.217,5.217,0,0,1-10.406,0,5.715,5.715,0,0,1,2.995-7.656,1.674,1.674,0,0,1-.281-.938,1.739,1.739,0,0,1,1.746-1.739h.123a1.739,1.739,0,0,0-1.616,1.739,1.667,1.667,0,0,0,.231.859h.051a1.746,1.746,0,0,1,0-.339,2.558,2.558,0,0,1,1.992-2.237h.123a1.746,1.746,0,0,0-1.328.779,1.739,1.739,0,0,1,2.7,1.443,1.769,1.769,0,0,1,0,.195,5.715,5.715,0,0,1,3.723,7.9Z" transform="translate(-40.444 -184.069)" fill="#5878cf" opacity="0.2"/>
    <rect id="Rectangle_62" data-name="Rectangle 62" width="55.535" height="1.963" transform="translate(51.207 140.929)" fill="#5878cf" opacity="0.2"/>
    <rect id="Rectangle_63" data-name="Rectangle 63" width="55.535" height="1.963" transform="translate(51.207 145.706)" fill="#5878cf" opacity="0.2"/>
    <rect id="Rectangle_64" data-name="Rectangle 64" width="55.535" height="1.963" transform="translate(51.207 150.483)" fill="#5878cf" opacity="0.2"/>
    <path id="Tracé_244" data-name="Tracé 244" d="M242.847,438.4a43.655,43.655,0,0,1-.722-6.646c0-2.67-3.608-5.051-3.608-5.051s-2.244-5.2-3.716-5.953-6.112-7.562-6.112-7.562a6.162,6.162,0,0,0-1.393-3.666,52.52,52.52,0,0,1-3.781-5.708h0c-.621-.765-.31-1.3-1.241-5.73q-.079-.346-.173-.671a1,1,0,0,0-.094-.281,7.49,7.49,0,0,0,1.761-7.75,3.182,3.182,0,0,0-.888-1.371c-1.054-.859-2.735-.505-3.817-1.321l1.147-5.094c.281-1.241.426-2.829-.671-3.5a5.5,5.5,0,0,0-1.284-.433c-1.891-.6-2.951-2.591-3.435-4.5a15.413,15.413,0,0,1-.375-5.628c.209-1.8.722-3.565.938-5.376a14.843,14.843,0,0,0-2.287-9.569,7.462,7.462,0,0,0-3.024-2.85c-1.162-.52-2.511-.584-3.608-1.27-2.324-1.443-2.208-4.972-4.055-7s-5.131-2.006-7.829-1.313-5.376,1.883-8.147,1.573c-1.782-.195-3.456-1-5.239-1.191a5.237,5.237,0,0,0-1.537.072l.036-.065a3.321,3.321,0,0,0-2.85,2.23,3.442,3.442,0,0,0-.087.909c0,.722.173,1.487.188,2.165a2.107,2.107,0,0,1-.505,1.537c-.354.382-.88.585-1.227.974a1.587,1.587,0,0,0-.455,1.147c0,1.111,1.385,2.085,2.316,2.533h0c-.253.253-.5.512-.722.779a16.4,16.4,0,0,0-4.063,10.918,16.633,16.633,0,0,0,10.1,15.233c-.043.137-.079.267-.13.4a21.446,21.446,0,0,1-.909,2.36,4.676,4.676,0,0,0-3.918.433c-1.782,1.22-5.26,1.147-6.191.916s-10.6-1.443-11.372-1.147-2.324-1.068-3.327.765-1.443,2.829-2.475,3.283-2.785,1.912-2.554,2.215-2.554,2.165-2.554,2.165-2.4,2.518-3.788,2.829a21.091,21.091,0,0,0-4.33,2.215l-3.406,2.67s-2.554.382-1.782-1.371-1.393-3.976-1.393-3.976-4.33-8.782-4.33-10.608-3.557-9.547-3.557-9.547l-.44-.043c-.065-.188-.13-.375-.2-.57a53.858,53.858,0,0,0-2.165-5.419c-1.227-2.518-2.021-2.807-2.021-2.807s-15.009-11.271-24.758-7.837,17.795,13.667,20.27,14.742c.866.368,1.486,1.58,1.927,2.987a12.823,12.823,0,0,0-5.3,4.828s5.953,13.205,6.1,16.489,4.106,12.448,4.106,12.448,1.443,6.8,9.439,6.415c0,0,10.983,2.013,13.379,0s4.568-3.608,5.73-3.832a4.511,4.511,0,0,0,2.165-1.53s-3.608,22.9-5.412,24.9-17.564,27.717-11.921,32.292a113.146,113.146,0,0,0,14.158,9.381c.483.238,1.919-2.165,3.976-3.861v1.321c.036,9.15,1.227,23.091,2.923,26.209,2.475,4.582,1.443,13.443,1.443,13.443a10.677,10.677,0,0,0,4.185,1c.072.3.159.606.245.931,1.364,5.152,3.572,13.119,4.7,15.24,1.71,3.211,2.944,13.364,2.944,13.364s1,10,.621,11.38c-.152.527.505,4.676,1.53,9.944h0c-.628,7.158-1.8,20.963-2.006,25.978h0v.837h0a5.67,5.67,0,0,0,0,.938,2.937,2.937,0,0,1-.1,1.443,23.186,23.186,0,0,1-1.681,4,19.149,19.149,0,0,0-.722,1.941,3.5,3.5,0,0,0-1.8,2.562c-.772,2.98-1.934,11.228-1.934,11.228s-.462,5.051-1.393,6.184-1.855,8.32,4.719,9.237,9.439-3.493,9.439-3.493l-.231-19.988h0a2.892,2.892,0,0,0,.339-.548v-.043c.043-.1.094-.195.137-.31s0-.094.058-.144.065-.159.094-.245a.4.4,0,0,1,0-.087,13.133,13.133,0,0,0,.556-5.953s0-.065,0-.1v-.31a.925.925,0,0,0,0-.137,1.388,1.388,0,0,1,0-.173v-.123a1.31,1.31,0,0,1,.043-.4.267.267,0,0,1,0-.079v-.238a.556.556,0,0,0,0-.108,1.736,1.736,0,0,1,.051-.253v-.058c.058-.3.137-.592.216-.9v-.065l.087-.3h0c.1-.325.209-.642.318-.96v-.065l.108-.3v-.036c.108-.3.224-.6.339-.88v-.079l.108-.253v-.072l.238-.563h0L182.8,596.7s1,4.2.462,5.188.621,5.123,1.393,5.2l-.722,5.2a79.438,79.438,0,0,0-.722,8.659c-.051.325-.1.606-.137.823-.5,2.656.722,6.783.722,6.783,6.112,7.216,13.386.563,13.386.563s.851-3.825,0-4.582-.462-3.514-.462-3.514.382-6.8.462-11.762-4.063-9.33-4.063-9.33l-.231.209c-.722-1.941-1.609-4.214-1.443-5.232.31-1.753-.851-20.306-.851-20.306a110.748,110.748,0,0,0,.267-14.923h0c.1-.844.195-1.674.289-2.475.469-3.991.844-7.4,1-9.186h0V547.8c.036-.483.058-.823.051-.989,0-.592,0-1.335.058-2.114.152-2.165.483-4.532.483-4.532l1.624-9.85a30.561,30.561,0,0,1,3.016-7.483l.209-.339h0c.072-.115.144-.245.216-.382v-.058l.216-.411v-.058c.253-.491.52-1.061.794-1.681l.065-.137.209-.476.079-.188.209-.476c0-.065.051-.123.079-.188.079-.195.159-.39.245-.585l.115-.281c.065-.144.123-.289.18-.44l.159-.375.108-.281.173-.426c0-.065.058-.13.079-.195.44-1.1.873-2.165,1.248-3.189h0c.123-.31.238-.606.346-.895,3.962.245,6.653.469,6.653.469s1.241-8.933.851-14.815a54.584,54.584,0,0,1,.974-11.856c.058-.31.108-.584.152-.83l.108.087c1.941,1.523,3.327-3.514,3.327-3.514s-.52-4.712-1.22-10.406a5.125,5.125,0,0,0-.072-.57,29.961,29.961,0,0,0,3.384.52s.621-.058,1.443-.166a41,41,0,0,0,7.346,3.291l4.1-7.635a31.133,31.133,0,0,1,2.706-4.5c1.241-1.53,5.65-6.415,5.571-7.332a25.045,25.045,0,0,1,3.016-8.551A20.469,20.469,0,0,0,242.847,438.4Zm-17.174,5.773c-1.624.686-3.175,4.5-3.247,5.65s-1.782,6.184-3.565,6.8c-1.631.563-4.763,3.435-5.26,3.9-.512.051-1.09.115-1.7.216-.678-4.82-1.349-8.8-1.782-9.612-1.234-2.295,1.364-9.619,1.364-9.619s.26-7.4,1.883-9.164,1.241-6.184,1.241-6.184.382-1.833.541-2.67,2.3,0,2.316,0h0s4.178,2.287,4.8,5.722,5.181,9.381,5.181,9.381-.722,2.057,0,3.132-.144,1.8-1.768,2.482Z" transform="translate(-52.782 -190.698)" fill="url(#linear-gradient-3)"/>
    <path id="Tracé_245" data-name="Tracé 245" d="M121.15,391.754a12.477,12.477,0,0,1,12.5-5.867v8.919h-5.39l-4.272-1.1Z" transform="translate(-60.144 -203.509)" fill="#4c4981"/>
    <path id="Tracé_246" data-name="Tracé 246" d="M121.15,391.754a12.477,12.477,0,0,1,12.5-5.867v8.919h-5.39l-4.272-1.1Z" transform="translate(-60.144 -203.509)" opacity="0.1"/>
    <path id="Tracé_247" data-name="Tracé 247" d="M126.828,381.64l-6.632,4.654s-.058-.938-.224-2.208c-.332-2.4-1.075-6.011-2.677-6.711-2.439-1.068-29.586-11.279-19.96-14.706s24.383,7.815,24.383,7.815.765.26,1.977,2.778c.642,1.321,1.443,3.572,2.122,5.4C126.4,380.327,126.828,381.64,126.828,381.64Z" transform="translate(-52.942 -196.902)" fill="#ae6e79"/>
    <path id="Tracé_248" data-name="Tracé 248" d="M175.181,265.8l.75-.361,2.122,2.417-1.732,3.695-2.951-1.183.686-2.951Z" transform="translate(-48.271 -73.897)" fill="#4c4981"/>
    <path id="Tracé_249" data-name="Tracé 249" d="M196.018,699.068s-1.905-.224-2.67,2.742-1.905,11.207-1.905,11.207-.455,5.051-1.371,6.17-1.826,8.306,4.647,9.222,9.3-3.485,9.3-3.485l-.231-19.988Z" transform="translate(-79.152 -290.735)" fill="#444053"/>
    <path id="Tracé_250" data-name="Tracé 250" d="M226.01,700.32s4.077,4.33,4,9.309-.462,11.74-.462,11.74-.375,2.742.462,3.507,0,4.568,0,4.568-7.166,6.653-13.184-.556c0,0-1.176-4.12-.722-6.776s1.826-14.612,1.826-14.612Z" transform="translate(-86.551 -291.084)" fill="#444053"/>
    <path id="Tracé_251" data-name="Tracé 251" d="M229.329,572.377s-4.12,11.546-5.874,14.172-2.966,7.476-2.966,7.476l-1.6,9.835a53.939,53.939,0,0,0-.534,6.632c.072,2.208-3.962,34.442-3.962,34.442l-6.4,8.154s-2.821,5.715-2.367,8.082-.3,6.17-1.22,7.31c0,0-.152,7.469-.382,9.15s.844,6.4,0,7.216-12.036.455-12.347-.916,1.378-8,1.378-8l.989-6.4s1.977-3.507,1.523-4.647.837-3.81.916-4.041,2.165-3.962,1.753-5.4,2.36-32.162,2.36-32.162l7.851-55.1Z" transform="translate(-79.767 -254.294)" fill="#ae6e79"/>
    <path id="Tracé_252" data-name="Tracé 252" d="M229.331,572.382s-.621,1.732-1.486,4.012c-1.357,3.608-3.312,8.529-4.387,10.16a30.847,30.847,0,0,0-2.973,7.469l-1.595,9.835a53.921,53.921,0,0,0-.534,6.624c0,.873-.585,6.444-1.335,12.852-1.155,9.807-2.627,21.6-2.627,21.6l-6.408,8.154s-.325.657-.722,1.609c-.8,1.869-1.934,4.907-1.631,6.494.455,2.367-.3,6.177-1.22,7.317,0,0-.152,7.476-.382,9.143s.844,6.408,0,7.216-12.036.462-12.347-.917,1.371-8,1.371-8l1-6.408s1.977-3.507,1.523-4.647.837-3.81.916-4.041,2.165-3.962,1.753-5.412c-.3-1.1,1.227-19.151,1.963-27.71.238-2.7.4-4.445.4-4.445l6.754-47.4.541-3.824.556-3.875Z" transform="translate(-79.77 -254.3)" opacity="0.1"/>
    <path id="Tracé_253" data-name="Tracé 253" d="M221.615,688.484c.072.837-10.745,2.057-12.267,1.14s0-12.267,0-12.267l.722-5.181c-.765-.079-1.905-4.193-1.371-5.188s-.462-5.181-.462-5.181l-1.8-5.628-1.1-3.435c-1.775-3.933-4.33-15.154-5.96-23.524-1.01-5.26-1.652-9.381-1.508-9.937.382-1.371-.613-11.351-.613-11.351s-1.212-10.1-2.886-13.335c-1.111-2.122-3.283-10.1-4.633-15.219-.686-2.634-1.162-4.524-1.162-4.524s11.546-.967,18.5-1.306c3.218-.152,5.47-.173,5.2.094s-.325,1.66-.31,3.673c0,5.232.758,14.432,1.53,16.9,1.068,3.428,2.165,13.711,1.674,14.706s-.3,7.62-.3,7.62a34.225,34.225,0,0,1,1.335,8.277,111.7,111.7,0,0,1-.267,14.894s1.147,18.516.837,20.27,2.439,7.216,2.439,8.306.693,8.306.693,8.306S221.543,687.647,221.615,688.484Z" transform="translate(-78.916 -255.76)" fill="#ae6e79"/>
    <path id="Tracé_254" data-name="Tracé 254" d="M231.675,411.92l-1.313,1.443-.851.916-4.993,5.3-12.881,1.443-6.841-1.833-1.7-.447s0-3.442.31-7.57c.433-5.289,1.479-11.719,3.962-13.465a9.842,9.842,0,0,0,2.886-3.673,20.552,20.552,0,0,0,1.248-3.081c.051-.137.087-.267.13-.4a33.764,33.764,0,0,0,1.212-5.657s1.645-.909,3.926-1.97c5.968-2.785,16.272-6.624,12.686,1.97a32.406,32.406,0,0,0-1.342,3.868c-.058.188-.108.383-.152.57-1.2,4.791-.4,7.692.491,9.294h0a6.5,6.5,0,0,0,.52.787,3.97,3.97,0,0,0,.866.88l1.486,9.417.123.779Z" transform="translate(-82.959 -201.803)" fill="#ae6e79"/>
    <path id="Tracé_255" data-name="Tracé 255" d="M232.714,385.591c-.678,1.631.332-1.335,0,0C230,387.525,223.6,393.023,220,393.023c-2.425,0-3.153-.44-5.239-1.378a33.843,33.843,0,0,0,1.342-6.054S237.664,373.7,232.714,385.591Z" transform="translate(-86.205 -201.993)" opacity="0.1"/>
    <path id="Tracé_256" data-name="Tracé 256" d="M234.418,367.352a16.6,16.6,0,0,1-14.872,16.518,15.413,15.413,0,0,1-1.739.094,16.6,16.6,0,1,1,16.6-16.6Z" transform="translate(-82.432 -193.771)" fill="#ae6e79"/>
    <path id="Tracé_257" data-name="Tracé 257" d="M234.654,459.941l-2.36,6.177s-1.934.087-4.936.18c-10.1.325-32.472.722-33.475-1.862a6.256,6.256,0,0,1-.346-2.049c-.137-3.969,1.717-10.066,1.717-10.066s1.068-12.2,1.068-12.722-.916-9.107-.916-9.107l1.826-6.855,5.109-3.608s2.287,3.507,3.659,3.81a9.589,9.589,0,0,1,3.2,1.984s4.488,2.742,5.939,1.212,12.729-8.226,12.729-8.226l5.946,6.552Z" transform="translate(-80.294 -212.713)" opacity="0.1"/>
    <path id="Tracé_258" data-name="Tracé 258" d="M234.654,461.211l-2.36,6.177s-1.934.087-4.936.173h-.3l-4.38.115c-8.053.18-19.159.231-24.953-.613-2.165-.318-3.608-.722-3.846-1.371a5.05,5.05,0,0,1-.274-1.133,9.076,9.076,0,0,1-.072-.916c-.137-3.969,1.717-10.1,1.717-10.1s1.068-12.2,1.068-12.729-.916-9.071-.916-9.071l1.826-6.855,3.514-2.461,1.595-1.118a23.032,23.032,0,0,0,1.753,2.3,4.59,4.59,0,0,0,1.905,1.5,9.71,9.71,0,0,1,3.2,1.984s4.488,2.749,5.939,1.22c1.111-1.169,7.938-5.362,11.127-7.274l1.6-.96.8.888,5.145,5.672Z" transform="translate(-80.294 -213.066)" fill="#fff"/>
    <path id="Tracé_259" data-name="Tracé 259" d="M136.355,388.063l-6.632,4.654s-.058-.938-.224-2.208a13.419,13.419,0,0,0,5.845-5.419C135.929,386.75,136.355,388.063,136.355,388.063Z" transform="translate(-62.469 -203.325)" opacity="0.1"/>
    <path id="Tracé_260" data-name="Tracé 260" d="M157.346,404.074,155.9,403.7s-2.367,2.511-3.738,2.814a20.329,20.329,0,0,0-4.265,2.215l-3.355,2.663s-2.518.382-1.753-1.371-1.371-3.962-1.371-3.962-4.265-8.767-4.265-10.593-3.507-9.525-3.507-9.525-4.423,8.609-12.5,5.867c0,0,5.867,13.184,6.018,16.46s4.041,12.426,4.041,12.426,1.443,6.783,9.294,6.4c0,0,10.824,2.013,13.184,0s4.5-3.608,5.643-3.824a4.467,4.467,0,0,0,2.129-1.523v-9.063Z" transform="translate(-60.144 -203.562)" fill="#3f3d56"/>
    <path id="Tracé_261" data-name="Tracé 261" d="M152.51,423s1.905,7.086.722,7.851Z" transform="translate(-68.874 -213.879)" opacity="0.1"/>
    <path id="Tracé_262" data-name="Tracé 262" d="M227.362,484.374c-10.1.325-32.472.722-33.475-1.855a6.256,6.256,0,0,1-.346-2.049l33.114,1.746Z" transform="translate(-80.297 -229.879)" opacity="0.1"/>
    <path id="Tracé_263" data-name="Tracé 263" d="M228.452,572.382s-.621,1.732-1.479,4.012c-4.207-.26-9.778-.527-15.067-.563-1.876,0-3.709,0-5.434.058a40.7,40.7,0,0,0-8.883.989,23.439,23.439,0,0,1-7.938,1.018c-.686-2.634-1.162-4.525-1.162-4.525s11.546-.967,18.5-1.306l.556-3.875Z" transform="translate(-78.891 -254.3)" opacity="0.1"/>
    <path id="Tracé_264" data-name="Tracé 264" d="M234.472,520.413l-1.292,2.742s-.18.815-.411,2.114A55.33,55.33,0,0,0,231.8,537.1c.39,5.867-.837,14.778-.837,14.778s-28.042-2.36-36.268,0-12.267,0-12.267,0,.989-8.84-1.443-13.407c-1.674-3.132-2.843-17.03-2.886-26.158,0-4.221.209-7.418.722-8.06,1.674-2.064,8.84-22.637,8.84-22.637l1.631.087,4.33.231,24.816,1.306,3.889.2.411,1.263Z" transform="translate(-75.999 -230.199)" fill="#65617d"/>
    <path id="Tracé_265" data-name="Tracé 265" d="M268.912,518.524l.231,2.439s-12.267-4-11.661-8.912,0-4.33,0-4.33l9.872.837Z" transform="translate(-98.092 -237.459)" fill="#4c4981"/>
    <path id="Tracé_266" data-name="Tracé 266" d="M268.912,518.524l.231,2.439s-12.267-4-11.661-8.912,0-4.33,0-4.33l9.872.837Z" transform="translate(-98.092 -237.459)" opacity="0.1"/>
    <path id="Tracé_267" data-name="Tracé 267" d="M163.141,424.976a10.946,10.946,0,0,0,4.33,2.251,2.814,2.814,0,0,1-1.277-.6c-.88-.628-1.717-1.306-2.562-1.97a7.524,7.524,0,0,0-2.381-1.638,13.139,13.139,0,0,0,1.891,1.956Z" transform="translate(-71.308 -213.885)" opacity="0.1"/>
    <path id="Tracé_268" data-name="Tracé 268" d="M162.815,429.006a5.3,5.3,0,0,1,.945,1.508,6.06,6.06,0,0,1,.274,1.948,6.148,6.148,0,0,1-.339,2.764l-2-4.741c-.339-.808-.722-1.616-1.1-2.4-.18-.332-1.313-1.7-1.183-1.992C159.791,425.269,162.447,428.552,162.815,429.006Z" transform="translate(-70.794 -214.705)" opacity="0.1"/>
    <path id="Tracé_269" data-name="Tracé 269" d="M237.235,465.977a6.379,6.379,0,0,0,3.608-1.667c-2.028.253-3.94,1.046-5.939,1.443a8.825,8.825,0,0,1-5.535-.505A13.309,13.309,0,0,0,237.235,465.977Z" transform="translate(-90.272 -225.38)" opacity="0.1"/>
    <path id="Tracé_270" data-name="Tracé 270" d="M228.506,444.963a1.364,1.364,0,0,1-1.032-.26q-2.28-1.3-4.5-2.728a27.31,27.31,0,0,1-4.4-3.045C221.594,441.665,224.408,443.974,228.506,444.963Z" transform="translate(-87.265 -218.314)" opacity="0.1"/>
    <path id="Tracé_271" data-name="Tracé 271" d="M236.6,469.11a9.683,9.683,0,0,0,2.374-.188,3.211,3.211,0,0,0,1.956-1.284,1.1,1.1,0,0,0-.83.13,14.013,14.013,0,0,1-7.649.916A11.13,11.13,0,0,0,236.6,469.11Z" transform="translate(-91.129 -226.298)" opacity="0.1"/>
    <path id="Tracé_272" data-name="Tracé 272" d="M210.7,518.475a24.456,24.456,0,0,1-4.871.96,29.893,29.893,0,0,1-3.853-.072l-6.242-.4-3.125-.2c-.368,0-1.876,0-1.133-.722.375-.354,2.461-.13,2.995-.144,1.039,0,2.071-.051,3.1-.058,2.064,0,4.135,0,6.2.13Q207.246,518.107,210.7,518.475Z" transform="translate(-79.665 -240.282)" opacity="0.1"/>
    <path id="Tracé_273" data-name="Tracé 273" d="M202.671,522.78c-1.061-.043-2.425.592-3.514.722a23.131,23.131,0,0,1-3.673.152,20.667,20.667,0,0,1-7.093-1.443C193.16,522.448,197.915,522.592,202.671,522.78Z" transform="translate(-78.863 -241.499)" opacity="0.1"/>
    <path id="Tracé_274" data-name="Tracé 274" d="M188.834,527.455a11.181,11.181,0,0,1,1.364.368c2.627.758,5.426.094,8.075-.563a4.781,4.781,0,0,1-3.067,1.7,14.432,14.432,0,0,1-5.982.216c-.628-.123-2.165-.346-2.511-1C186.236,527.224,188.249,527.361,188.834,527.455Z" transform="translate(-78.376 -242.905)" opacity="0.1"/>
    <path id="Tracé_275" data-name="Tracé 275" d="M208.618,533.8a22.119,22.119,0,0,1,2.331.606c2.959.722,6.033-.274,9.006-.952a41.657,41.657,0,0,1,10.9-1.01,10.689,10.689,0,0,0-2.338.772c-.844.253-1.7.483-2.547.722a51.231,51.231,0,0,1-5.095,1,52.183,52.183,0,0,1-10.449.455c-1.595-.087-4.33.079-5.73-.722A6.336,6.336,0,0,1,208.618,533.8Z" transform="translate(-83.404 -244.34)" opacity="0.1"/>
    <path id="Tracé_276" data-name="Tracé 276" d="M202.331,402.7s.152,7.021-1,10.218c-.354,1-.916,2.836-1.523,4.9-.671,2.287-1.4,4.849-1.963,6.834s-.931,3.355-.931,3.355-2.576,20.97-3.247,30.957v.52c-.036.563-.1,1.147-.188,1.753-1.486,9.922-10.045,25.22-12.917,26.447a8.66,8.66,0,0,0-2.417,1.66c0-4.221.209-7.418.722-8.06,1.674-2.064,8.84-22.637,8.84-22.637l1.631.087a9.071,9.071,0,0,1-.072-.916c-.137-3.969,1.717-10.1,1.717-10.1s1.068-12.2,1.068-12.729-.916-9.071-.916-9.071l1.826-6.855,3.514-2.461c.433-5.289,1.479-11.719,3.962-13.465a9.843,9.843,0,0,0,2.886-3.673c.5.065-.4-.368-.4-.368Z" transform="translate(-76.013 -207.223)" opacity="0.1"/>
    <path id="Tracé_277" data-name="Tracé 277" d="M196.308,398.547a4.56,4.56,0,0,0-3.861.44c-1.754,1.212-5.181,1.14-6.1.909s-10.442-1.443-11.2-1.14-2.287-1.068-3.276.758-1.443,2.821-2.439,3.283-2.749,1.905-2.518,2.208-2.511,2.165-2.511,2.165l5.556,18.04s-3.608,22.86-5.333,24.838-17.318,27.666-11.733,32.241a112.526,112.526,0,0,0,13.941,9.381c.613.3,2.821-3.81,5.874-5.109s12.5-18.48,13.119-28.207,3.276-31.476,3.276-31.476,3.276-11.892,4.423-15.089.96-10.225.96-10.225Z" transform="translate(-68.647 -207.005)" fill="#3f3d56"/>
    <path id="Tracé_278" data-name="Tracé 278" d="M249.955,499.542l-1.292,2.742s-.18.815-.411,2.114a1.2,1.2,0,0,1-.657-.281c-1.905-1.53-13.112-13.032-13.638-23.25-.4-7.534-.209-14.021-.087-16.914.043-.909.072-1.443.079-1.58,0,0,8.659-10.521,7.692-14.252s-3.276-23.7-3.276-23.7l-.339-2.619-.577-4.423-1.364-10.723,1.443.332a3.97,3.97,0,0,0,.866.88l1.486,9.417,5.145,5.672.837,34.522-2.36,6.177s-1.934.087-4.936.173h-.3Z" transform="translate(-91.482 -209.327)" opacity="0.1"/>
    <path id="Tracé_279" data-name="Tracé 279" d="M255.113,442.354s-2.165-.837-2.287,0-.534,2.663-.534,2.663.375,4.423-1.22,6.177-1.855,9.143-1.855,9.143-2.562,7.317-1.349,9.6c.44.83,1.126,4.993,1.811,9.973.433,3.11.866,6.538,1.256,9.662.722,5.693,1.205,10.391,1.205,10.391s-1.371,5.051-3.276,3.507-13.112-13.047-13.646-23.243c-.375-7.18-.224-13.407-.1-16.481.058-1.306.1-2.042.1-2.042s8.659-10.514,7.7-14.244-3.276-23.7-3.276-23.7l-.4-3.081-.426-3.319-.094-.722L237.34,406h0c.245.051,8.8,1.984,9.922,3.11s8.075,2.742,8.075,2.742a6.112,6.112,0,0,1,4.33,4.445c.065.209.115.433.166.664.916,4.423.613,4.95,1.227,5.715S255.113,442.354,255.113,442.354Z" transform="translate(-91.834 -209.146)" fill="#3f3d56"/>
    <path id="Tracé_280" data-name="Tracé 280" d="M254.141,518.092c-3.132-.606-7.743-2.057-7.642-5.232.1-2.98,3.68-4.048,6.386-4.431C253.355,511.54,253.751,514.968,254.141,518.092Z" transform="translate(-95.04 -237.663)" opacity="0.1"/>
    <path id="Tracé_281" data-name="Tracé 281" d="M263.99,516.268c-.123.267-.642.5-1.328.722a34.83,34.83,0,0,1-5.051.823s-10.593-.837-10.442-5.636c.108-3.449,4.892-4.33,7.584-4.568,1.054-.094,1.79-.079,1.79-.079S264.452,515.28,263.99,516.268Z" transform="translate(-95.227 -237.412)" fill="#ae6e79"/>
    <path id="Tracé_282" data-name="Tracé 282" d="M266.688,516.268c-.123.267-.642.5-1.328.722-2.764-3.695-6.617-8.436-8.5-8.854,0,0,.216-.209.57-.527,1.054-.094,1.79-.079,1.79-.079S267.15,515.28,266.688,516.268Z" transform="translate(-97.925 -237.412)" opacity="0.1"/>
    <path id="Tracé_283" data-name="Tracé 283" d="M264.2,428.5l3.125.455a53.721,53.721,0,0,0,3.738,5.715,6.213,6.213,0,0,1,1.371,3.659s4.575,6.783,6.018,7.548,3.659,5.946,3.659,5.946,3.608,2.36,3.608,5.051a44.021,44.021,0,0,0,.685,6.624c.072.382-.534,5.109-2.064,7.469a25.58,25.58,0,0,0-2.966,8.537c.079.916-4.272,5.773-5.491,7.317a30.792,30.792,0,0,0-2.663,4.5l-4.041,7.62s-8.537-12.57-11.661-13.256c0,0,3.507-3.355,5.26-3.962s3.428-5.643,3.507-6.783,1.595-4.957,3.2-5.643,2.439-1.371,1.753-2.439,0-3.125,0-3.125-4.5-5.946-5.109-9.381-4.719-5.715-4.719-5.715l-2.367-5.773Z" transform="translate(-98.109 -215.41)" fill="#3f3d56"/>
    <path id="Tracé_284" data-name="Tracé 284" d="M281.384,467.021a9.879,9.879,0,0,1,6.155-2.331,7.507,7.507,0,0,0-4.027,1.573,9.2,9.2,0,0,0-1.111,1.443c-.368.52-3.3,4.257-3.774,3.673C277.928,470.484,280.793,467.526,281.384,467.021Z" transform="translate(-103.955 -225.486)" opacity="0.1"/>
    <path id="Tracé_285" data-name="Tracé 285" d="M272.93,458.232a2.627,2.627,0,0,0,2.165-1.537,8.66,8.66,0,0,0,.678-2.706,40.11,40.11,0,0,1,.945-4.625,2.944,2.944,0,0,0,.151-.967,2.735,2.735,0,0,0-.281-.931,6.638,6.638,0,0,0-.664-1.385c-.57.642-.722,2.078-.96,2.886q-.419,1.559-.8,3.117C274.041,452.632,272.98,458.232,272.93,458.232Z" transform="translate(-102.399 -220.305)" opacity="0.1"/>
    <path id="Tracé_286" data-name="Tracé 286" d="M251.826,400.992a6.8,6.8,0,0,1-1.054,1.082c-1.22.989-2.886,1.826-3.06,3.384a3.73,3.73,0,0,1-.18,1.508c-.4.678-1.378.628-2.165.491a3.81,3.81,0,0,1-1.826-.671c-.815-.722-.895-1.948-1.515-2.822a3.853,3.853,0,0,0-3.088-1.385c-1.169-.036-2.331.224-3.493.281a9.676,9.676,0,0,1-2.237-.152c-.245-.043-.483-.094-.722-.152a9.465,9.465,0,0,1-1.523-.52,7.688,7.688,0,0,1-.722-.346,9.807,9.807,0,0,1-2.165-1.494,5.349,5.349,0,0,1-1.992-4.048,24.863,24.863,0,0,1,.649-2.771c.469-2.692-1.321-5.239-3.262-7.166-.772-.758-1.595-1.508-2.367-2.288a11.416,11.416,0,0,1-2.793-3.969,12.094,12.094,0,0,1-.5-4.965,33.765,33.765,0,0,0,.152-5.116c-.577-6.061-5.773-10.7-10.925-13.234l-.224-.115a16.6,16.6,0,1,1,22.37,24.3c-.058.188-.108.382-.152.57-1.2,4.791-.4,7.692.491,9.294h0c.245.051,8.8,1.984,9.922,3.11s8.075,2.742,8.075,2.742A6.112,6.112,0,0,1,251.826,400.992Z" transform="translate(-83.994 -193.826)" opacity="0.1"/>
    <path id="Tracé_287" data-name="Tracé 287" d="M205.056,349.2c.339-.39.859-.592,1.205-.974,1.075-1.169,0-3.081.4-4.625.426-1.717,2.526-2.468,4.286-2.28s3.406.989,5.159,1.183c2.728.31,5.369-.873,8.031-1.566s5.874-.722,7.714,1.306,1.7,5.513,3.983,6.992c1.054.678,2.381.722,3.521,1.263a7.3,7.3,0,0,1,2.98,2.85,14.93,14.93,0,0,1,2.244,9.547c-.188,1.8-.722,3.565-.924,5.369a15.658,15.658,0,0,0,.368,5.614c.483,1.9,1.523,3.889,3.392,4.488a5.329,5.329,0,0,1,1.263.433c1.075.664.938,2.251.664,3.485l-1.155,5.087c1.068.815,2.72.462,3.76,1.321a3.052,3.052,0,0,1,.873,1.371,7.5,7.5,0,0,1-2.237,8.183c-1.219,1-2.886,1.826-3.06,3.392a3.608,3.608,0,0,1-.18,1.5c-.4.678-1.378.628-2.165.491a3.738,3.738,0,0,1-1.818-.671c-.823-.722-.895-1.948-1.515-2.821a3.853,3.853,0,0,0-3.088-1.386c-1.176-.036-2.331.224-3.5.281a10.3,10.3,0,0,1-7.368-2.663,5.34,5.34,0,0,1-2-4.041,26.7,26.7,0,0,1,.649-2.778c.469-2.684-1.321-5.239-3.254-7.158s-4.214-3.7-5.159-6.264c-1.183-3.175,0-6.711-.354-10.1-.577-6.061-5.773-10.7-10.918-13.227C205.676,352.229,203.713,350.721,205.056,349.2Z" transform="translate(-83.377 -190.914)" fill="#444053"/>
    <path id="Tracé_288" data-name="Tracé 288" d="M245.8,401.852c-.815-.722-.888-1.941-1.508-2.821a3.882,3.882,0,0,0-3.1-1.378c-1.169-.036-2.324.224-3.493.281a10.333,10.333,0,0,1-7.368-2.627,5.368,5.368,0,0,1-2-4.048,26.576,26.576,0,0,1,.649-2.771c.469-2.692-1.321-5.239-3.262-7.165s-4.207-3.7-5.159-6.264c-1.176-3.168,0-6.711-.346-10.1-.577-6.061-5.773-10.709-10.925-13.234-1.205-.592-3.168-2.093-1.826-3.608.339-.39.852-.584,1.205-.967,1.075-1.169,0-3.088.4-4.633a2.446,2.446,0,0,1,.39-.844,3.3,3.3,0,0,0-2.807,2.215c-.382,1.544.678,3.464-.4,4.633-.346.382-.866.577-1.205.967-1.342,1.53.621,3.031,1.833,3.608,5.174,2.533,10.341,7.173,10.918,13.234.318,3.363-.83,6.906.354,10.1.945,2.562,3.218,4.33,5.159,6.264s3.723,4.474,3.254,7.166a27.012,27.012,0,0,0-.649,2.771,5.368,5.368,0,0,0,2,4.048,10.3,10.3,0,0,0,7.368,2.663c1.169-.058,2.324-.318,3.5-.281a3.868,3.868,0,0,1,3.088,1.378c.621.88.722,2.129,1.515,2.821a3.738,3.738,0,0,0,1.818.671c.779.144,1.761.195,2.165-.491a1.7,1.7,0,0,0,.173-.895,3.507,3.507,0,0,1-1.746-.693Z" transform="translate(-83.377 -191.237)" opacity="0.1"/>
  </g>
</svg>
