<svg xmlns="http://www.w3.org/2000/svg" width="91.002" height="91" viewBox="0 0 91.002 91">
  <g id="seo" transform="translate(-0.001 -0.001)">
    <path id="Tracé_11" data-name="Tracé 11" d="M403.341,85.332a2.275,2.275,0,1,0,2.275,2.275A2.275,2.275,0,0,0,403.341,85.332Zm0,0" transform="translate(-329.783 -70.165)" fill="#5878cf"/>
    <path id="Tracé_12" data-name="Tracé 12" d="M381.657.445a1.516,1.516,0,0,0-2.145,0L367.378,12.578a1.519,1.519,0,0,0-.444,1.073V24.267a1.517,1.517,0,0,0,1.517,1.517h10.617a1.516,1.516,0,0,0,1.072-.444l12.133-12.134a1.516,1.516,0,0,0,0-2.145ZM378.44,22.751h-8.472V14.279L380.584,3.662l8.472,8.472Zm0,0" transform="translate(-301.717 0)" fill="#5878cf"/>
    <path id="Tracé_13" data-name="Tracé 13" d="M1.517,170.85h4.55v.194a5.873,5.873,0,0,0,4.55,5.708v13.814a1.517,1.517,0,0,0,1.516,1.517h9.1a1.517,1.517,0,0,0,1.517-1.517V184.5h1.529a4.55,4.55,0,0,0,4.538-4.538v-3.21A5.865,5.865,0,0,0,33,173.02L58.535,184.37a1.517,1.517,0,0,0,2.132-1.386v-36.4a1.517,1.517,0,0,0-2.132-1.386L33,156.546a5.86,5.86,0,0,0-5.506-3.9H11.94a5.878,5.878,0,0,0-5.873,5.872v.194H1.517A1.517,1.517,0,0,0,0,160.233v9.1a1.517,1.517,0,0,0,1.517,1.517Zm50.05-19.238,6.067-2.695v31.731l-6.067-2.695Zm-18.2,8.09,15.167-6.742v23.653l-15.167-6.749Zm-13.65,23.28v6.067H13.65V176.916h6.067Zm6.067-3.021a1.506,1.506,0,0,1-1.5,1.5H22.75v-4.55h3.033ZM9.1,169.333V158.522a2.842,2.842,0,0,1,2.84-2.839H27.494a2.842,2.842,0,0,1,2.84,2.839v12.522a2.842,2.842,0,0,1-2.84,2.839H11.94a2.842,2.842,0,0,1-2.84-2.839ZM3.033,161.75H6.067v6.067H3.033Zm0,0" transform="translate(0 -119.282)" fill="#5878cf"/>
    <path id="Tracé_14" data-name="Tracé 14" d="M363.433,333.492a1.516,1.516,0,0,0-2.145,0l-10.726,10.726a1.517,1.517,0,0,0,0,2.145l15.015,15.015a1.516,1.516,0,0,0,2.145,0l10.724-10.724a1.516,1.516,0,0,0,0-2.145Zm9.971,14.257-8.559-.657-.658-8.559Zm-6.754,10.407-12.871-12.868,7.321-7.32.821,10.653a1.517,1.517,0,0,0,1.395,1.4l10.655.819Zm0,0" transform="translate(-287.89 -273.853)" fill="#5878cf"/>
    <path id="Tracé_15" data-name="Tracé 15" d="M181.168,30.873a10.6,10.6,0,0,0,8.493-16.963l9.265-9.265L196.779,2.5l-9.265,9.262a10.617,10.617,0,1,0-6.346,19.11Zm0-18.2a7.584,7.584,0,1,1-7.584,7.584,7.584,7.584,0,0,1,7.584-7.584Zm0,0" transform="translate(-140.218 -2.055)" fill="#5878cf"/>
    <path id="Tracé_16" data-name="Tracé 16" d="M359.919,193.322H367.5v1.516a1.517,1.517,0,0,0,1.517,1.517h12.133a1.517,1.517,0,0,0,1.516-1.517v-7.554a6.085,6.085,0,0,0-4.066-5.722,6.067,6.067,0,1,0-7.034,0,6.087,6.087,0,0,0-2.542,1.732,6.063,6.063,0,0,0-1.9-1.464,4.55,4.55,0,1,0-5.321,0,6.054,6.054,0,0,0-3.406,5.425v4.55a1.517,1.517,0,0,0,1.516,1.517ZM375.086,173.6a3.033,3.033,0,1,1-3.033,3.033A3.033,3.033,0,0,1,375.086,173.6Zm-4.55,18.2v-4.521a3.067,3.067,0,0,1,3.062-3.062h2.976a3.066,3.066,0,0,1,3.062,3.062v6.037h-9.1Zm-6.067-15.167a1.517,1.517,0,1,1-1.517,1.516A1.516,1.516,0,0,1,364.469,176.638Zm-3.033,10.616a3.033,3.033,0,0,1,6.067,0v3.034h-6.067Zm0,0" transform="translate(-294.702 -140.237)" fill="#5878cf"/>
    <path id="Tracé_17" data-name="Tracé 17" d="M161.751,349.867h-6.067a1.517,1.517,0,0,0-1.073.444l-9.1,9.1a1.516,1.516,0,0,0,0,2.145L162.2,378.239a1.516,1.516,0,0,0,2.145,0l12.134-12.133a1.518,1.518,0,0,0,0-2.145l-13.65-13.65A1.517,1.517,0,0,0,161.751,349.867Zm1.517,25.156-14.539-14.539,7.583-7.584h4.811l12.133,12.133Zm0,0" transform="translate(-119.284 -287.683)" fill="#5878cf"/>
    <path id="Tracé_18" data-name="Tracé 18" d="M198.77,392.567l6.067-6.067,2.145,2.145-6.067,6.067Zm0,0" transform="translate(-163.442 -317.805)" fill="#5878cf"/>
    <path id="Tracé_19" data-name="Tracé 19" d="M224.363,418.164l6.067-6.067,2.145,2.145-6.067,6.067Zm0,0" transform="translate(-184.486 -338.852)" fill="#5878cf"/>
  </g>
</svg>
