<svg id="teacher" xmlns="http://www.w3.org/2000/svg" width="768.5" height="614.242" viewBox="0 0 768.5 614.242">
  <rect id="Rectangle_78" data-name="Rectangle 78" width="69.69" height="21.069" rx="7.43" transform="translate(157.102 105.345)" fill="#5878cf" opacity="0.1"/>
  <rect id="Rectangle_79" data-name="Rectangle 79" width="69.69" height="21.069" rx="7.43" transform="translate(230.033 126.414)" fill="#5878cf" opacity="0.1"/>
  <rect id="Rectangle_80" data-name="Rectangle 80" width="69.69" height="21.069" rx="7.43" transform="translate(302.964 147.483)" fill="#5878cf" opacity="0.1"/>
  <rect id="Rectangle_81" data-name="Rectangle 81" width="69.69" height="21.069" rx="7.43" transform="translate(157.102 73.742)" fill="#5878cf" opacity="0.1"/>
  <rect id="Rectangle_82" data-name="Rectangle 82" width="69.69" height="21.069" rx="7.43" transform="translate(230.033 94.811)" fill="#5878cf" opacity="0.1"/>
  <rect id="Rectangle_83" data-name="Rectangle 83" width="69.69" height="21.069" rx="7.43" transform="translate(302.964 115.88)" fill="#5878cf" opacity="0.1"/>
  <rect id="Rectangle_84" data-name="Rectangle 84" width="69.69" height="21.069" rx="7.43" transform="translate(383.999 105.345)" fill="#5878cf" opacity="0.1"/>
  <rect id="Rectangle_85" data-name="Rectangle 85" width="69.69" height="21.069" rx="7.43" transform="translate(456.93 126.414)" fill="#5878cf" opacity="0.1"/>
  <rect id="Rectangle_86" data-name="Rectangle 86" width="69.69" height="21.069" rx="7.43" transform="translate(529.861 147.483)" fill="#5878cf" opacity="0.1"/>
  <rect id="Rectangle_87" data-name="Rectangle 87" width="69.69" height="21.069" rx="7.43" transform="translate(383.999 73.742)" fill="#5878cf" opacity="0.1"/>
  <rect id="Rectangle_88" data-name="Rectangle 88" width="69.69" height="21.069" rx="7.43" transform="translate(456.93 94.811)" fill="#5878cf" opacity="0.1"/>
  <rect id="Rectangle_89" data-name="Rectangle 89" width="69.69" height="21.069" rx="7.43" transform="translate(529.861 115.88)" fill="#5878cf" opacity="0.1"/>
  <rect id="Rectangle_90" data-name="Rectangle 90" width="69.69" height="21.069" rx="7.43" transform="translate(157.102 31.604)" fill="#5878cf" opacity="0.1"/>
  <rect id="Rectangle_91" data-name="Rectangle 91" width="69.69" height="21.069" rx="7.43" transform="translate(230.033 52.673)" fill="#5878cf" opacity="0.1"/>
  <rect id="Rectangle_92" data-name="Rectangle 92" width="69.69" height="21.069" rx="7.43" transform="translate(302.964 73.742)" fill="#5878cf" opacity="0.1"/>
  <rect id="Rectangle_93" data-name="Rectangle 93" width="69.69" height="21.069" rx="7.43" transform="translate(157.102)" fill="#5878cf" opacity="0.1"/>
  <rect id="Rectangle_94" data-name="Rectangle 94" width="69.69" height="21.069" rx="7.43" transform="translate(230.033 21.069)" fill="#5878cf" opacity="0.1"/>
  <rect id="Rectangle_95" data-name="Rectangle 95" width="69.69" height="21.069" rx="7.43" transform="translate(302.964 42.138)" fill="#5878cf" opacity="0.1"/>
  <rect id="Rectangle_96" data-name="Rectangle 96" width="69.69" height="21.069" rx="7.43" transform="translate(383.999 31.604)" fill="#5878cf" opacity="0.1"/>
  <rect id="Rectangle_97" data-name="Rectangle 97" width="69.69" height="21.069" rx="7.43" transform="translate(456.93 52.673)" fill="#5878cf" opacity="0.1"/>
  <rect id="Rectangle_98" data-name="Rectangle 98" width="69.69" height="21.069" rx="7.43" transform="translate(529.861 73.742)" fill="#5878cf" opacity="0.1"/>
  <rect id="Rectangle_99" data-name="Rectangle 99" width="69.69" height="21.069" rx="7.43" transform="translate(383.999)" fill="#5878cf" opacity="0.1"/>
  <rect id="Rectangle_100" data-name="Rectangle 100" width="69.69" height="21.069" rx="7.43" transform="translate(456.93 21.069)" fill="#5878cf" opacity="0.1"/>
  <rect id="Rectangle_101" data-name="Rectangle 101" width="69.69" height="21.069" rx="7.43" transform="translate(529.861 42.138)" fill="#5878cf" opacity="0.1"/>
  <rect id="Rectangle_102" data-name="Rectangle 102" width="69.69" height="21.069" rx="7.43" transform="translate(157.102 480.535)" fill="#5878cf" opacity="0.1"/>
  <rect id="Rectangle_103" data-name="Rectangle 103" width="69.69" height="21.069" rx="7.43" transform="translate(230.033 501.604)" fill="#5878cf" opacity="0.1"/>
  <rect id="Rectangle_104" data-name="Rectangle 104" width="69.69" height="21.069" rx="7.43" transform="translate(302.964 522.673)" fill="#5878cf" opacity="0.1"/>
  <rect id="Rectangle_105" data-name="Rectangle 105" width="69.69" height="21.069" rx="7.43" transform="translate(157.102 448.932)" fill="#5878cf" opacity="0.1"/>
  <rect id="Rectangle_106" data-name="Rectangle 106" width="69.69" height="21.069" rx="7.43" transform="translate(230.033 470.001)" fill="#5878cf" opacity="0.1"/>
  <rect id="Rectangle_107" data-name="Rectangle 107" width="69.69" height="21.069" rx="7.43" transform="translate(302.964 491.07)" fill="#5878cf" opacity="0.1"/>
  <rect id="Rectangle_108" data-name="Rectangle 108" width="69.69" height="21.069" rx="7.43" transform="translate(383.999 480.535)" fill="#5878cf" opacity="0.1"/>
  <rect id="Rectangle_109" data-name="Rectangle 109" width="69.69" height="21.069" rx="7.43" transform="translate(456.93 501.604)" fill="#5878cf" opacity="0.1"/>
  <rect id="Rectangle_110" data-name="Rectangle 110" width="69.69" height="21.069" rx="7.43" transform="translate(529.861 522.673)" fill="#5878cf" opacity="0.1"/>
  <rect id="Rectangle_111" data-name="Rectangle 111" width="69.69" height="21.069" rx="7.43" transform="translate(383.999 448.932)" fill="#5878cf" opacity="0.1"/>
  <rect id="Rectangle_112" data-name="Rectangle 112" width="69.69" height="21.069" rx="7.43" transform="translate(456.93 470.001)" fill="#5878cf" opacity="0.1"/>
  <rect id="Rectangle_113" data-name="Rectangle 113" width="69.69" height="21.069" rx="7.43" transform="translate(529.861 491.07)" fill="#5878cf" opacity="0.1"/>
  <rect id="Rectangle_114" data-name="Rectangle 114" width="69.69" height="21.069" rx="7.43" transform="translate(157.102 406.794)" fill="#5878cf" opacity="0.1"/>
  <rect id="Rectangle_115" data-name="Rectangle 115" width="69.69" height="21.069" rx="7.43" transform="translate(230.033 427.863)" fill="#5878cf" opacity="0.1"/>
  <rect id="Rectangle_116" data-name="Rectangle 116" width="69.69" height="21.069" rx="7.43" transform="translate(302.964 448.932)" fill="#5878cf" opacity="0.1"/>
  <rect id="Rectangle_117" data-name="Rectangle 117" width="69.69" height="21.069" rx="7.43" transform="translate(157.102 375.19)" fill="#5878cf" opacity="0.1"/>
  <rect id="Rectangle_118" data-name="Rectangle 118" width="69.69" height="21.069" rx="7.43" transform="translate(230.033 396.259)" fill="#5878cf" opacity="0.1"/>
  <rect id="Rectangle_119" data-name="Rectangle 119" width="69.69" height="21.069" rx="7.43" transform="translate(302.964 417.328)" fill="#5878cf" opacity="0.1"/>
  <rect id="Rectangle_120" data-name="Rectangle 120" width="69.69" height="21.069" rx="7.43" transform="translate(383.999 406.794)" fill="#5878cf" opacity="0.1"/>
  <rect id="Rectangle_121" data-name="Rectangle 121" width="69.69" height="21.069" rx="7.43" transform="translate(456.93 427.863)" fill="#5878cf" opacity="0.1"/>
  <rect id="Rectangle_122" data-name="Rectangle 122" width="69.69" height="21.069" rx="7.43" transform="translate(529.861 448.932)" fill="#5878cf" opacity="0.1"/>
  <rect id="Rectangle_123" data-name="Rectangle 123" width="69.69" height="21.069" rx="7.43" transform="translate(383.999 375.19)" fill="#5878cf" opacity="0.1"/>
  <rect id="Rectangle_124" data-name="Rectangle 124" width="69.69" height="21.069" rx="7.43" transform="translate(456.93 396.259)" fill="#5878cf" opacity="0.1"/>
  <rect id="Rectangle_125" data-name="Rectangle 125" width="69.69" height="21.069" rx="7.43" transform="translate(529.861 417.328)" fill="#5878cf" opacity="0.1"/>
  <ellipse id="Ellipse_84" data-name="Ellipse 84" cx="355.337" cy="29.172" rx="355.337" ry="29.172" transform="translate(35.55 555.898)" fill="#5878cf" opacity="0.1"/>
  <path id="Tracé_376" data-name="Tracé 376" d="M194.416,255.582c33.508,14.521,52.762,44.569,52.762,44.569s-35.08,6.483-68.6-8.031-52.762-44.569-52.762-44.569S160.9,241.061,194.416,255.582Z" transform="translate(-125.82 -104.209)" fill="#5878cf"/>
  <path id="Tracé_377" data-name="Tracé 377" d="M335.136,183.121C345.5,166.1,363.149,158,363.149,158s.81,19.4-9.522,36.368-28.022,25.064-28.022,25.064S324.763,200.041,335.136,183.121Z" transform="translate(-163.707 -87.5)" fill="#5878cf"/>
  <path id="Tracé_378" data-name="Tracé 378" d="M242.634,199.306c7.415,26.466,27.852,43.888,27.852,43.888s8.42-25.5,1-51.976-27.86-43.888-27.86-43.888S235.211,172.832,242.634,199.306Z" transform="translate(-147.394 -85.476)" fill="#46455b"/>
  <rect id="Rectangle_126" data-name="Rectangle 126" width="590.742" height="295.776" rx="7.21" transform="translate(96.326 112.638)" fill="#3f3d56"/>
  <path id="Tracé_379" data-name="Tracé 379" d="M118.87,482H709.612v11.985a5.843,5.843,0,0,1-5.843,5.843H124.713a5.843,5.843,0,0,1-5.843-5.843Z" transform="translate(-22.544 -91.413)" opacity="0.1"/>
  <rect id="Rectangle_127" data-name="Rectangle 127" width="43.759" height="21.879" rx="2.5" transform="translate(153.86 368.708)" fill="#5878cf"/>
  <rect id="Rectangle_128" data-name="Rectangle 128" width="29.983" height="3.241" rx="1.621" transform="translate(209.774 387.345)" fill="#5878cf"/>
  <path id="Tracé_380" data-name="Tracé 380" d="M340.6,278.124c21.385,3.946,43.2,0,64.5-2.674l64.722-8.1c2.617-.332,6.426-1.9,7.966,1.3.867,1.791.284,5.672.348,7.731.17,5.672.154,11.345,0,17.017-.292,10.842-1.086,21.661-2.1,32.454-1.969,21.126-4.757,42.138-6.151,63.345-.713,10.794-1.07,21.62-.754,32.414.073,2.577.178,5.154.332,7.723.17,2.877,1.459,7.147-1.677,9.068-1.791,1.1-5.316,1.045-7.366,1.37-3.241.511-6.483.916-9.789,1.248-21.79,2.18-43.864,1.272-65.735,1.143l-66.043-.34-16.11-.089c-1.459,0-6.718.875-7.617-.859-.381-.737.632-4.19.81-5.113q.373-2.285.81-4.562c1.88-10.656,4.1-21.247,6.337-31.83,4.805-22.69,9.724-45.493,11.7-68.669.981-11.628.332-23.362,1.532-34.966.559-5.389,1.224-17.414,8.4-17.892,6.078-.405,12.333,0,18.427,0a1.216,1.216,0,0,0,0-2.431c-5.753,0-11.515-.154-17.268-.04-3.825.073-6.483.98-8.306,4.5-4.659,9.027-4.181,21.069-4.327,30.923-.348,23.589-3.971,46.676-8.687,69.747-2.374,11.612-4.935,23.184-7.293,34.8-1.11,5.551-2.172,11.118-3.144,16.7-.454,2.658-2.747,8.517-.729,10.956s8.225,1.126,11,1.143l19.335.113,37.049.211c23.938.138,47.956.81,71.886.105,11.426-.34,23.5-.81,34.626-3.541,3.314-.81,4.911-2.334,5.04-5.867.194-5.478-.7-11.126-.81-16.628-.81-47.081,10.251-93.506,9.116-140.6-.073-3.2,1.135-11.272-2.366-13.209-1.572-.875-3.614-.4-5.267-.2-3.16.365-6.313.81-9.473,1.183l-41.044,5.121c-13.12,1.621-26.231,3.371-39.375,4.862-13.914,1.621-27.965,2.585-41.83,0-1.532-.284-2.188,2.058-.648,2.342Z" transform="translate(-157.443 -107.643)" fill="#5878cf"/>
  <path id="Tracé_381" data-name="Tracé 381" d="M319.726,314.3l161.923-7.941c1.564-.081,1.572-2.512,0-2.431l-161.923,7.941C318.17,311.944,318.162,314.375,319.726,314.3Z" transform="translate(-162.373 -115.176)" fill="#5878cf"/>
  <path id="Tracé_382" data-name="Tracé 382" d="M381.3,290.167a4.052,4.052,0,0,0,1.434,6.539c2.18,1,4.741.162,6.9-.381,3.241-.81,6.483-1.532,9.813-2.123a133.83,133.83,0,0,1,21.952-2.042c3.355-.041,6.685.113,10.04.259,2.431.1,5.048.292,7.107-1.216,2.35-1.718,3.112-5.073.81-7.163-3.241-2.958-10.227-1.24-13.97-.932a313.288,313.288,0,0,0-40.4,6.029c-1.523.324-.883,2.674.648,2.342q13.184-2.844,26.571-4.57,6.58-.81,13.184-1.369c2.074-.17,4.149-.324,6.223-.446.81-.049,1.669-.138,2.5-.113,2.569.057,2.869-.405,1.329,2.7-1.37,2.747-.932,2.431-3.306,2.342-1,0-2.01-.113-3.014-.162q-3.087-.13-6.175-.138-6.572,0-13.111.632c-3.7.357-7.382.859-11.037,1.507-2.285.405-4.554.875-6.815,1.394-1,.235-2,.478-3,.729-.478.13-.964.243-1.442.365q-2.658.924-4.53-2.431c1.086-1.126-.624-2.852-1.718-1.718Z" transform="translate(-174.063 -111.08)" fill="#5878cf"/>
  <path id="Tracé_383" data-name="Tracé 383" d="M408.739,334.242c-11.726-.454-24.391,2.715-32.114,12.155-6.045,7.382-9.489,20.048-3.087,28.362,6.88,8.914,21.969,7.342,31.069,3.541,9.627-4.052,20.161-12.406,23.054-22.86,3.606-13.055-8.1-22.925-20.3-23.071a1.216,1.216,0,0,0,0,2.431c6.953.081,13.776,3.063,17.017,9.538,3.4,6.823.47,13.987-4.052,19.448-7.245,8.7-18.573,15.251-30.112,15.064-6.928-.105-14.586-2.48-16.734-9.789-1.767-5.924-.421-12.4,2.658-17.649,6.661-11.345,20.218-15.186,32.649-14.7,1.564.057,1.564-2.374,0-2.431Z" transform="translate(-172.15 -120.57)" fill="#5878cf"/>
  <path id="Tracé_384" data-name="Tracé 384" d="M402.413,355a3.16,3.16,0,0,0-4.246,3.241c.243,3.16,3.728,4.052,6.345,3.865,2.261-.194,4.9-1.029,4.108-3.857a3.63,3.63,0,0,0-1.977-2.285,4.579,4.579,0,0,0-2.285-.284c-.3,0-3.047,1-1.88-.2l-1.912-.251a1.993,1.993,0,0,1,.583,1.621,1.224,1.224,0,0,0,1.823,1.045,1.621,1.621,0,0,1,2.2,1.9,1.224,1.224,0,0,0,2.22.94c.81-1.459,1.791-4.36.575-5.883-.81-1.029-2.374-.721-3.347-.122a11.727,11.727,0,0,0-1.669,1.434c-.981.867-1.621,1.272-1.256-.389.608-3.023,3.493-5.429,6.126-6.637l-1.783-1.369a25.623,25.623,0,0,1-4.9,9.6l2.074.859a5.413,5.413,0,0,1,3.306-5.275h-1.191l.632,1.037c-.235,1.532,2.107,2.188,2.342.64.308-2-.956-4.6-3.3-3.622-2.8,1.167-4.246,4.368-4.189,7.22,0,.972,1.378,1.726,2.083.867A28.573,28.573,0,0,0,408.41,348.4a1.232,1.232,0,0,0-1.791-1.369,13.59,13.59,0,0,0-5.9,5.138c-.989,1.621-2.228,4.149-1.224,6.013a2.577,2.577,0,0,0,3.525,1,9.483,9.483,0,0,0,2.034-1.621c.3-.267.632-.729,1.029-.81.357-.243.34-.105-.057.429a4.417,4.417,0,0,1-.705,2.366l2.22.932a4.052,4.052,0,0,0-5.762-4.643l1.831,1.053a4.416,4.416,0,0,0-.916-2.861,1.232,1.232,0,0,0-1.9-.251,3.179,3.179,0,0,0,.081,4.708c1.159.883,1.726,0,3-.2,4.319-.559,1.8,1.386.276,1.451a5.746,5.746,0,0,1-2.034-.146q-2.536-.859-.316-2.212c1.451.592,2.074-1.758.648-2.342Z" transform="translate(-177.469 -123.322)" fill="#5878cf"/>
  <path id="Tracé_385" data-name="Tracé 385" d="M398.171,362.03c1,3.241-3.12,4.311-5.073,5.429a11.3,11.3,0,0,0-3.509,3.071c-2.042,2.739-2.8,6.223-3.476,9.505-.308,1.532,2.034,2.18,2.35.648a27.554,27.554,0,0,1,2.05-6.993c1.459-2.9,3.549-3.873,6.272-5.365s4.692-3.8,3.728-6.945c-.454-1.491-2.8-.851-2.342.648Z" transform="translate(-175.18 -125.911)" fill="#5878cf"/>
  <path id="Tracé_386" data-name="Tracé 386" d="M402.967,360.37a2.35,2.35,0,0,0-2.026,2.431c0,.964.64,1.58,1.078,2.35a18.556,18.556,0,0,1,2.35,5.113c.389,1.742.77,4.862-.138,6.483-1.677,3.006-4.708,2.431-7.293,2.431-2.431,0-4.311.81-4.23-2.577.049-1.9,1.378-3.833,2.431-5.332l-2.22-.292a42.348,42.348,0,0,1,.737,7.5c0,1.126,1.726,1.75,2.261.608A46.943,46.943,0,0,0,399,370.548l-2.391-.324.421,6.159A1.224,1.224,0,0,0,399.3,377a2.755,2.755,0,0,0,.608-1.094c.081-.381-.664-2.95-.964-2.034l2.382.324.17-5.851-2.431.324a12.106,12.106,0,0,1,.454,5.105c-.154,1.353,2.123,1.661,2.431.324l1.523-7.86-2.22.284a5.373,5.373,0,0,1,.413,3.5c-.178,1.556,2.253,1.54,2.431,0a8.541,8.541,0,0,0-.745-4.724,1.224,1.224,0,0,0-2.22.292l-1.532,7.86,2.391.324a13.258,13.258,0,0,0-.543-5.745,1.216,1.216,0,0,0-2.383.316l-.17,5.851a1.221,1.221,0,0,0,2.391.324l.13-.4a1.232,1.232,0,0,0-.308-1.183c-2.52-2.739-3.031,1.621-3.906,2.828l2.269.616-.421-6.159a1.223,1.223,0,0,0-2.391-.324,43.571,43.571,0,0,1-2.836,7.966l2.269.616a45.82,45.82,0,0,0-.81-8.152c-.211-1.118-1.677-1.07-2.22-.292-1.621,2.334-4.424,7.431-2.261,10.227,1.888,2.431,7.828,1.491,10.364,1.337,4-.227,5.454-2.763,5.891-6.54a16.012,16.012,0,0,0-.3-5.413c-.219-.956-2.431-7.018-3.1-6.9,1.54-.284.883-2.634-.648-2.35Z" transform="translate(-175.924 -125.88)" fill="#5878cf"/>
  <path id="Tracé_387" data-name="Tracé 387" d="M398.519,366.327l-6.637,8.76,2.1,1.224,4.862-7.034-2.22-.94-2.423,9.246a1.224,1.224,0,0,0,2.22.94,42.71,42.71,0,0,1,3.7-5.21l-2.026-1.183a13.233,13.233,0,0,1-3.055,5.616l2.034,1.183a10.859,10.859,0,0,1,.883-3.241c.624-1.4-1.353-2.642-2.1-1.232a28.53,28.53,0,0,1-2.342,3.679l2.22.292.494-2.309-2.22-.292.357,2.026a1.224,1.224,0,0,0,2.034.535,24.2,24.2,0,0,0,4.862-7.334h-2.091a10.915,10.915,0,0,1,1.143,3.241c.292,1.459,2.228.916,2.382-.324a65.877,65.877,0,0,0,.535-8.185H400.8v5.1c0,1.321,2.164,1.71,2.391.324a9.287,9.287,0,0,1,1.191-3.484h-2.131a5.4,5.4,0,0,1,.81,2.755,1.215,1.215,0,1,0,2.431,0l.308-1.621h-2.342c.235,1.434,1.126,9.513-2.042,8.565-.535-.13-.689-.1-.462.089l.721-1.54,1.694-3.59-2.269-.616c.146,1.669.3,4.052-.7,5.478a4.2,4.2,0,0,1-4.578.94,8.1,8.1,0,0,1-2.115-2.22l-1.661,1.621c1.345.98,3.525,3.387,5.259,3.525,1.321.105,2.431-.989,3.3-1.864a14.124,14.124,0,0,0,3.963-10.4,1.215,1.215,0,1,0-2.431,0v2.771a1.216,1.216,0,0,0,2.431,0v-6.8a1.215,1.215,0,1,0-2.431,0,29.176,29.176,0,0,1-.421,4.862l2.391.324a55.963,55.963,0,0,1-.267-5.826,1.215,1.215,0,0,0-2.382-.324c-.365,1.548-.81,3.071-1.24,4.587l2.22-.292-.17-.648c-.113-1.548-2.544-1.556-2.431,0a4.449,4.449,0,0,0,.5,1.88,1.228,1.228,0,0,0,2.22-.292c.462-1.523.875-3.047,1.24-4.587l-2.391-.324a55.981,55.981,0,0,0,.267,5.826c.122,1.248,2.131,1.783,2.382.324a33.49,33.49,0,0,0,.51-5.543h-2.431v6.8h2.431v-2.771h-2.431a11.685,11.685,0,0,1-2.958,8.33,9.959,9.959,0,0,1-1.021,1c-.575.551-1.1.47-1.564-.251a20.248,20.248,0,0,1-3.347-2.431c-1-.721-2.382.705-1.669,1.661,1.864,2.48,4.643,5.243,8.1,4.052,3.638-1.288,4.133-6.215,3.857-9.457-.089-1.078-1.7-1.807-2.261-.608-.81,1.71-1.621,3.412-2.431,5.129a4.532,4.532,0,0,0-.729,2.139c.267,1.823,2.48,1.523,3.841,1.418,5.275-.4,4.441-7.877,3.833-11.637-.2-1.248-2.018-1.053-2.342,0a7.156,7.156,0,0,0-.4,2.3h2.431a9.635,9.635,0,0,0-1.143-3.979,1.224,1.224,0,0,0-2.1,0,11.815,11.815,0,0,0-1.442,4.052l2.431.324v-5.1a1.216,1.216,0,1,0-2.431,0,65.883,65.883,0,0,1-.535,8.185l2.391-.324a13.913,13.913,0,0,0-1.386-3.792,1.224,1.224,0,0,0-2.1,0,22.171,22.171,0,0,1-4.481,6.839l2.034.535-.357-2.026c-.186-1.078-1.71-1.11-2.22-.292a5.332,5.332,0,0,0-.737,4.181c.2,1.151,1.661,1.029,2.22.292a28.438,28.438,0,0,0,2.342-3.671l-2.1-1.232a13.824,13.824,0,0,0-1.135,3.817c-.146,1.07,1.126,2.188,2.034,1.183a16.207,16.207,0,0,0,3.679-6.693c.3-1.1-1.224-2.147-2.034-1.183a46.425,46.425,0,0,0-4.052,5.672l2.22.94,2.472-9.214a1.224,1.224,0,0,0-2.22-.94l-4.862,7.042c-.908,1.3,1.175,2.431,2.1,1.224l6.612-8.752c.94-1.248-1.167-2.431-2.1-1.232Z" transform="translate(-176.184 -126.375)" fill="#5878cf"/>
  <path id="Tracé_388" data-name="Tracé 388" d="M527.341,383.184c9.724-5.948,17.455-14.821,26.045-22.244,9.319-8.047,19.1-15.542,29.172-22.641,19.562-13.776,40.1-26.1,60.63-38.394a1.216,1.216,0,0,0-1.224-2.1C621.438,310.1,600.888,322.4,581.326,336.2c-9.23,6.483-18.241,13.354-26.879,20.648-9.4,7.941-17.771,17.828-28.362,24.237-1.337.81-.113,2.917,1.224,2.1Z" transform="translate(-201.622 -113.987)" fill="#5878cf"/>
  <path id="Tracé_389" data-name="Tracé 389" d="M701.844,253.848c-10.534,1.07-21.879,3.752-28.362,12.966-5.6,7.925-5.478,21.75-.219,29.886,5.972,9.246,18.176,9.578,27.657,6.588s19.294-8.233,19.205-19.562c-.049-6.078-2.245-12.406-4.668-17.917-2.091-4.757-5.794-8.914-11.4-8.387-1.548.146-1.564,2.577,0,2.431,7.512-.7,9.927,8.225,11.71,13.857,1.621,5.259,3.12,11.483.575,16.709s-8.679,7.893-13.922,9.805c-5.672,2.058-11.9,3.314-17.828,1.621-11.734-3.282-14.975-18.152-11.6-28.7,3.89-12.155,17.666-15.729,28.889-16.863,1.54-.154,1.556-2.585,0-2.431Z" transform="translate(-228.893 -105.677)" fill="#5878cf"/>
  <path id="Tracé_390" data-name="Tracé 390" d="M721.844,369.848c-10.534,1.07-21.879,3.752-28.362,12.966-5.6,7.925-5.478,21.75-.219,29.886,5.972,9.246,18.176,9.578,27.657,6.588s19.294-8.233,19.205-19.562c-.049-6.078-2.245-12.406-4.668-17.917-2.091-4.757-5.794-8.914-11.4-8.387-1.548.146-1.564,2.577,0,2.431,7.512-.7,9.927,8.225,11.71,13.857,1.621,5.259,3.12,11.483.575,16.709s-8.679,7.893-13.922,9.805c-5.672,2.058-11.9,3.314-17.828,1.621-11.734-3.282-14.975-18.152-11.6-28.7,3.89-12.155,17.666-15.729,28.889-16.863,1.54-.154,1.556-2.585,0-2.431Z" transform="translate(-232.686 -127.676)" fill="#5878cf"/>
  <path id="Tracé_391" data-name="Tracé 391" d="M689.781,273.359l7.674,8.752a1.224,1.224,0,0,0,2.026-.543c1.621-4.262,1.313-8.679,1.694-13.16a43.327,43.327,0,0,1,3.444-13.427A45.322,45.322,0,0,1,722.754,234.2c1.337-.81.113-2.917-1.224-2.1a47.584,47.584,0,0,0-18.338,20.145,46.571,46.571,0,0,0-4.052,12.86c-.81,5.259-.073,10.77-2.018,15.818l2.034-.543-7.634-8.736c-1.037-1.175-2.747.551-1.718,1.718Z" transform="translate(-232.722 -101.517)" fill="#5878cf"/>
  <path id="Tracé_392" data-name="Tracé 392" d="M532.325,414.035q62.7-1.912,125.425-.81a1.216,1.216,0,0,0,0-2.431q-62.713-1.118-125.425.81C530.761,411.653,530.753,414.084,532.325,414.035Z" transform="translate(-202.692 -135.365)" fill="#5878cf"/>
  <path id="Tracé_393" data-name="Tracé 393" d="M697.979,384.741a251.144,251.144,0,0,1,41.06,20.631c1.329.81,2.553-1.272,1.224-2.1a253.822,253.822,0,0,0-41.6-20.875c-1.451-.575-2.083,1.775-.64,2.342Z" transform="translate(-234.185 -130.041)" fill="#5878cf"/>
  <path id="Tracé_394" data-name="Tracé 394" d="M724.6,371.626a99.268,99.268,0,0,0-23.832,60.4c-.065,1.564,2.366,1.564,2.431,0a96.545,96.545,0,0,1,23.119-58.677c1.013-1.183-.7-2.909-1.718-1.718Z" transform="translate(-234.861 -127.939)" fill="#5878cf"/>
  <path id="Tracé_395" data-name="Tracé 395" d="M329.948,403.087,420.52,401.9l10.413-.138c1.872,0,3.744-.065,5.616-.073,2.634,0,4.408,2.188,4.36,4.862-.122,5.672-3.687,5.47-8.355,5.672l-11.256.51-45.833,2.018c-8.209.365-16.426.81-24.635,1.094-7.407.227-21.49-2.188-18.2-12.966.454-1.5-1.888-2.139-2.35-.648-1.621,5.3,1.248,10.68,5.867,13.46,6.556,3.938,15.194,2.6,22.43,2.277l56.27-2.553,13.662-.608c3.5-.162,8.371.551,11.588-1.078,3.776-1.9,4.441-9.465,2.058-12.649-1.224-1.621-2.942-1.767-4.862-1.839-5.04-.194-10.17.138-15.218.2l-28.054.373-64.106.81a1.216,1.216,0,0,0,0,2.431Z" transform="translate(-164.305 -133.242)" fill="#5878cf"/>
  <g id="Michel" transform="translate(520.195 182.021)">
    <path id="Tracé_396" data-name="Tracé 396" d="M779.146,767.483c-2.042,1.28-4.376,2-6.483,3.128s-4.157,2.82-4.757,5.154a3.241,3.241,0,0,0,.105,2.2,4.279,4.279,0,0,0,2.269,1.8,34.431,34.431,0,0,0,27.236.308,35.876,35.876,0,0,1,4.7-1.864,30.542,30.542,0,0,1,6.021-.616,46.286,46.286,0,0,0,6.329-.81,5.567,5.567,0,0,0,2.869-1.191,5.324,5.324,0,0,0,1.289-3.1,25.486,25.486,0,0,0-4.052-18.055,6.1,6.1,0,0,0-1.767-1.872,6.815,6.815,0,0,0-2.812-.754c-4.052-.494-8.3-1.4-12.39-1.5-2.933-.065-4.408,1.329-6.483,3.347C786.933,757.953,784.429,764.185,779.146,767.483Z" transform="translate(-767.762 -381.856)" fill="#323444"/>
    <path id="Tracé_397" data-name="Tracé 397" d="M855.388,766.792c0,3.971.478,8.176,2.885,11.345a14.986,14.986,0,0,0,3.938,3.444c5.089,3.241,11.831,4.433,17.2,1.686a5.105,5.105,0,0,0,2.139-1.8c.81-1.41.381-3.168-.073-4.724l-7.763-26.9c-5.016.77-12.39,1.313-16.847,3.857C853.63,755.537,855.388,763.243,855.388,766.792Z" transform="translate(-784.29 -381.766)" fill="#323444"/>
    <path id="Tracé_398" data-name="Tracé 398" d="M775.261,564.619c-.47,1.483-2.172,2.172-3.1,3.42-1.094,1.467-.981,3.5-.583,5.284a13.97,13.97,0,0,0,3.557,7.009,8.4,8.4,0,0,0,7.293,2.48,6.077,6.077,0,0,0,4.951-5.454,10.325,10.325,0,0,0-.762-3.509l-5.527-15.98a.6.6,0,0,0-1-.438c-1.3.616-3.922,1.264-4.684,2.617S775.812,563.152,775.261,564.619Z" transform="translate(-768.431 -345.251)" fill="#fbb3b2"/>
    <path id="Tracé_399" data-name="Tracé 399" d="M773,562.242c2.018-.316,3.784-1.5,5.672-2.277s4.254-1.078,5.843.219c.454.373.891.883,1.483.875a58.014,58.014,0,0,0-3.63-11.539.9.9,0,0,0-.316-.446.916.916,0,0,0-.689,0l-5.454,1.426c-2.018.527-2.253.365-2.1,2.35C773.851,553.734,774.3,562.242,773,562.242Z" transform="translate(-768.755 -343.677)" fill="#323444"/>
    <path id="Tracé_400" data-name="Tracé 400" d="M771.5,422.865a7.682,7.682,0,0,0-.81,4.271,145.194,145.194,0,0,0,1.134,21.482c.251,1.7.567,3.4.729,5.121a59.09,59.09,0,0,1,.113,7.188l-.81,31.2c-.1,3.817-.292,7.917-2.65,10.915a5.219,5.219,0,0,0-.948,3.46c.616,7.828,1.912,15.591,3.2,23.33a14.416,14.416,0,0,1,13.079.624,143.967,143.967,0,0,0,6.718-39.707c.186-6.637-.1-13.314.924-19.87,1.71-11.037,1.013-22.357-.243-33.459-.4-3.517-1.24-7.139-3.493-9.862a14.951,14.951,0,0,0-8.1-4.668C777.34,422.1,774.657,422.914,771.5,422.865Z" transform="translate(-767.852 -319.693)" fill="#5b5583"/>
    <path id="Tracé_401" data-name="Tracé 401" d="M771.5,422.865a7.682,7.682,0,0,0-.81,4.271,145.194,145.194,0,0,0,1.134,21.482c.251,1.7.567,3.4.729,5.121a59.09,59.09,0,0,1,.113,7.188l-.81,31.2c-.1,3.817-.292,7.917-2.65,10.915a5.219,5.219,0,0,0-.948,3.46c.616,7.828,1.912,15.591,3.2,23.33a14.416,14.416,0,0,1,13.079.624,143.967,143.967,0,0,0,6.718-39.707c.186-6.637-.1-13.314.924-19.87,1.71-11.037,1.013-22.357-.243-33.459-.4-3.517-1.24-7.139-3.493-9.862a14.951,14.951,0,0,0-8.1-4.668C777.34,422.1,774.657,422.914,771.5,422.865Z" transform="translate(-767.852 -319.693)" opacity="0.1"/>
    <path id="Tracé_402" data-name="Tracé 402" d="M783.86,532.036a143.115,143.115,0,0,0,8.525,82.85,22.472,22.472,0,0,1,1.977,6.126c.446,3.971-1.386,7.787-2.431,11.628-2.431,8.736-1.029,18.038.527,26.976q.972,5.591,2,11.175c.673,3.63,1.321,7.577-.365,10.867,1.451,6.045,2.31,12.034,3.76,18.079a3.435,3.435,0,0,1,.138,1.483,4.367,4.367,0,0,1-1.483,1.985,8.865,8.865,0,0,0-2.261,8.484c3.7-2.658,8.865-1.726,13.1,0s8.4,4.052,12.966,4.052c-.664-5.365-1.3-11,.673-16.029,1.151-2.917,3.177-5.672,3.12-8.792-.057-2.8-1.767-5.292-2.18-8.055a20.387,20.387,0,0,1,.194-5.154c1.086-9.919-.146-19.935-1.378-29.837a17.826,17.826,0,0,0-1.361-5.672c-.575-1.167-1.434-2.285-1.418-3.59,0-1.515,1.224-2.747,1.677-4.189.81-2.658-.681-6.272,1.564-7.917,5.916-4.343,3.647-14.716,3.517-22.05q-.154-9.489-.81-18.962a80.767,80.767,0,0,1,4.473,32.689c-.259,3.63-.737,7.447.681,10.8,1.086,2.577,3.241,4.7,3.825,7.431a31.1,31.1,0,0,1,.186,5.146c.081,1.718.664,3.59,2.147,4.457.113,7.812.81,16.166.932,23.978a59.149,59.149,0,0,0,.972,11.912,15.181,15.181,0,0,1,.6,3.841,16.052,16.052,0,0,1-1.28,4.724,27.09,27.09,0,0,0,4.052,25c1.912-3.4,5.9-5.194,9.789-5.478s7.731.7,11.5,1.686a22.52,22.52,0,0,1,2.69-13.695,11.207,11.207,0,0,0,1.418-3.047c.438-2.058-.583-4.109-1.135-6.143-.9-3.241-.583-6.734-.373-10.121a160.157,160.157,0,0,0-1.5-33.97,28.779,28.779,0,0,0-1.548-6.483c-.292-.745-.648-1.459-.891-2.212a17.439,17.439,0,0,1-.648-4.149l-.932-12.966c-.656-9.084,2.326-18.055,4.408-26.92.932-3.971,1.945-7.933,2.569-11.969.851-5.494.989-11.11,2.237-16.531,1.118-4.862,3.136-9.6,3.557-14.586.648-7.723-2.561-15.186-5.672-22.268-1.3-2.917-6.2-2.626-9.351-3.144-22.357-3.671-45.906-3.7-66.991,4.578a16.67,16.67,0,0,0-5.762,3.979Z" transform="translate(-770.312 -338.388)" fill="#3c354c"/>
    <path id="Tracé_403" data-name="Tracé 403" d="M803.6,355.535l2.48,9.643a25.767,25.767,0,0,1,1.11,6.815,5.032,5.032,0,0,1-.543,2.431,5.8,5.8,0,0,1-1.54,1.572c-1.694,1.288-2.869,4.295-4.805,5.186,1,1.734,2.374.608,4.173,1.475,3.168,1.54,6.069,3.752,9.505,4.514,3.241.713,6.645.041,9.862-.81,4.562-1.24,9.1-2.95,12.771-5.94s5.762-5.632,5.745-10.356c-4.052.478-7.658-3.614-9.449-7.293a19.816,19.816,0,0,1-1.361-4.368l-2.172-9.554c-2.366.519-4.295,2.212-6.556,3.1a23.8,23.8,0,0,1-7.447,1.078,80.214,80.214,0,0,0-13.257,1.718c-.6.122-1.353.5-1.207,1.086" transform="translate(-773.933 -305.716)" fill="#fbb3b2"/>
    <path id="Tracé_404" data-name="Tracé 404" d="M803.6,355.535l2.48,9.643a25.767,25.767,0,0,1,1.11,6.815,5.032,5.032,0,0,1-.543,2.431,5.8,5.8,0,0,1-1.54,1.572c-1.694,1.288-2.869,4.295-4.805,5.186,1,1.734,2.374.608,4.173,1.475,3.168,1.54,6.069,3.752,9.505,4.514,3.241.713,6.645.041,9.862-.81,4.562-1.24,9.1-2.95,12.771-5.94s5.762-5.632,5.745-10.356c-4.052.478-7.658-3.614-9.449-7.293a19.816,19.816,0,0,1-1.361-4.368l-2.172-9.554c-2.366.519-4.295,2.212-6.556,3.1a23.8,23.8,0,0,1-7.447,1.078,80.214,80.214,0,0,0-13.257,1.718c-.6.122-1.353.5-1.207,1.086" transform="translate(-773.933 -305.716)" opacity="0.1"/>
    <circle id="Ellipse_85" data-name="Ellipse 85" cx="21.458" cy="21.458" r="21.458" transform="translate(18.855 12.219)" fill="#fbb3b2"/>
    <path id="Tracé_405" data-name="Tracé 405" d="M818.968,377.265a19.45,19.45,0,0,1,4.862-6.483c3.022-2.65,7.155-4.8,7.868-8.752l6.548,7.625a3.524,3.524,0,0,1,.81,1.248,3.144,3.144,0,0,1-.616,2.52c-1.621,2.585-4.173,4.433-6.588,6.3a200.071,200.071,0,0,0-15.875,14,1.621,1.621,0,0,1-.851.519,1.532,1.532,0,0,1-.883-.251,36.861,36.861,0,0,1-11.32-9.206c-.235-.284-.527-.608-.908-.583a1.167,1.167,0,0,0-.608.316c-2.18,1.783-4.562,3.914-7.358,3.638,3.622-2.6,5.672-6.945,6.434-11.345a21.435,21.435,0,0,1,.924-4.433,4.627,4.627,0,0,1,3.16-3c-1.767,2.7-.559,6.523,1.815,8.7a17.892,17.892,0,0,0,8.039,3.9C817.177,382.507,817.988,379.388,818.968,377.265Z" transform="translate(-772.748 -308.216)" fill="#323444"/>
    <path id="Tracé_406" data-name="Tracé 406" d="M787.989,533.648c3.055.754,5.948,2.034,8.914,2.982a42.6,42.6,0,0,0,16.734,1.758,9.035,9.035,0,0,0,4.862-1.548c.381-.308.729-.673,1.135-.956a7.93,7.93,0,0,1,2.18-.9c7.431-2.326,13.654-7.342,19.691-12.253.194-.162.413-.365.4-.624a.811.811,0,0,0-.243-.462L838.482,518c-8.33,1.418-16.863.883-25.315.673a36.766,36.766,0,0,0-5.2.138c-1.669.195-3.314.616-4.959.972-6.248,1.361-12.633,1.88-18.962,2.771a2.925,2.925,0,0,0-1.256.389,2.829,2.829,0,0,0-.673.746l-2.22,3.12a9.817,9.817,0,0,0-1.864,3.574c-.519,2.431.567,3.241,2.634,2.925A19.238,19.238,0,0,1,787.989,533.648Z" transform="translate(-769.685 -337.796)" fill="#323444"/>
    <path id="Tracé_407" data-name="Tracé 407" d="M811.481,391.82a39.47,39.47,0,0,0-8.355-6.523,11.838,11.838,0,0,0-4.052-1.621,5.057,5.057,0,0,0-4.149,1.021c-.721.64-1.175,1.532-1.872,2.2a9.309,9.309,0,0,1-2.966,1.677,52.606,52.606,0,0,0-10.421,5.94,23.905,23.905,0,0,0-4.724,4.36c-3.671,4.7-4.222,11.094-4.125,17.058.073,4.149,4.052,7.228,6.791,10.332a76.133,76.133,0,0,1,6.953,9.724c1.475,2.334,3.014,4.862,2.828,7.642-.154,2.277-1.483,4.416-1.272,6.685.073.81.332,1.556.405,2.342.146,1.621-.494,3.241-.656,4.862-.219,2.293.527,4.57.567,6.88a21.879,21.879,0,0,1-.6,4.692c-1.556,7.407-3.509,14.854-3.112,22.414l-4.489.81a3.792,3.792,0,0,1-.867,6.053c7.01,2.342,14.586,1.159,22.017,1.151,6.151,0,12.277.81,18.419.7s12.479-1.224,17.544-4.7c1.378-.94,2.642-2.042,4.092-2.861a20.189,20.189,0,0,1,6.2-2.026,61.514,61.514,0,0,1,12.155-1.086c1.994,0,4.165.081,5.753-1.118,1.75-1.329,2.2-3.736,2.431-5.915.235-2.3.381-4.611.421-6.92a29.835,29.835,0,0,0-.284-5.381,35.244,35.244,0,0,0-.948-3.857l-3.055-10.761c-1.264-4.441.494-9.311.867-13.914.089-1.086.105-2.35-.729-3.047-.3-.251-.713-.421-.81-.81a1.386,1.386,0,0,1,.195-1.086c1.621-3.241,4.052-6.1,6.272-9.027a184.5,184.5,0,0,0,10.372-15.94,51.287,51.287,0,0,0-13.727-30.7,14.853,14.853,0,0,0-5.745-4.238,17.02,17.02,0,0,0-4.57-.737c-6.353-.429-12.966-.81-18.5-4a3.518,3.518,0,0,0-1.321-.559c-1.224-.138-2.115,1.07-2.909,2.026-2.042,2.431-5.048,3.825-7.69,5.616C818.887,382.526,815.038,387.129,811.481,391.82Z" transform="translate(-768.34 -310.017)" fill="#5b5583"/>
    <path id="Tracé_408" data-name="Tracé 408" d="M896.714,423.118c1.264,4,1.143,8.282,1.556,12.455a48.473,48.473,0,0,0,1.321,7.463,11.914,11.914,0,0,0,1.54,3.8c.729,1.07,1.775,1.937,2.237,3.144a7.593,7.593,0,0,1,.332,2.528l.1,5.591a20.105,20.105,0,0,1-1.321,8.7l-3.493,10.624c-1.888,5.753-3.825,11.6-7.228,16.6a4.789,4.789,0,0,1-2.083,1.953,10.116,10.116,0,0,1-2.1.324,5.4,5.4,0,0,0-4.449,5.243,12.309,12.309,0,0,0-2.99-3.055l-7.107-5.672a30.375,30.375,0,0,0-7.917-5.13,21.466,21.466,0,0,0,14.927-18.038,8.1,8.1,0,0,1,.81-3.549c.591-.956,1.685-1.686,1.767-2.812.1-1.418-1.507-2.488-1.507-3.906,0-.94.7-1.718,1-2.6a6.531,6.531,0,0,0,0-3.331l-.98-5.445a4.159,4.159,0,0,0-.486-1.556,10.06,10.06,0,0,0-1.216-1.28c-1.685-1.888-.94-4.862,0-7.188a68.706,68.706,0,0,1,8.282-14.529,49.684,49.684,0,0,0,3.3-4.716c.859-1.491,1.053-3.557,1.961-4.862C894.137,416.943,895.717,419.966,896.714,423.118Z" transform="translate(-786.224 -318.049)" fill="#5b5583"/>
    <path id="Tracé_409" data-name="Tracé 409" d="M863.725,505.206a3.907,3.907,0,0,0-.924.972,8.192,8.192,0,0,1-3.671,2.617c.81.583,1.548,1.159,2.31,1.75a101.2,101.2,0,0,1,15.4,14.724c.511-1.823,3.566-1.694,4.311-3.436a3.362,3.362,0,0,0,.162-1.556,47.451,47.451,0,0,0-1.167-8.1,9.172,9.172,0,0,0-1.621-3.792,9.724,9.724,0,0,0-4.587-2.593C871.382,504.9,866.318,503.642,863.725,505.206Z" transform="translate(-785.09 -335.229)" fill="#323444"/>
    <path id="Tracé_410" data-name="Tracé 410" d="M849.233,512.633c-2.431,1.8-4.562,4.052-7.293,5.283-1.929.875-4.125,1.256-5.81,2.561a5.773,5.773,0,0,0,5.51,2.982,13.1,13.1,0,0,0,6.167-2.261c1.451-.891,3.152-1.929,4.732-1.3.243,1.232-.81,2.391-.81,3.638s1.037,2.155,2.058,2.812c4.862,3.136,11.118,2.877,16.912,2.512a1.524,1.524,0,0,0,.932-.276,1.467,1.467,0,0,0,.348-1.07c.073-1.28.105-2.553.114-3.833a5.494,5.494,0,0,0-2.35-5.413,66.134,66.134,0,0,0-10.129-7.172C856.048,509.027,852.434,510.251,849.233,512.633Z" transform="translate(-780.728 -336.287)" fill="#fbb3b2"/>
    <path id="Tracé_411" data-name="Tracé 411" d="M825.433,326.1c-3.6.43-6.215,3.241-5.851,6.3s3.574,5.162,7.172,4.724,6.215-3.241,5.851-6.288S829.031,325.668,825.433,326.1Zm1.224,10.178c-3.047.365-5.762-1.426-6.078-4s1.912-4.959,4.951-5.324,5.762,1.426,6.078,4-1.912,4.959-4.951,5.324Z" transform="translate(-777.583 -301.391)" fill="#3c354c"/>
    <path id="Tracé_412" data-name="Tracé 412" d="M803.793,328.7c-3.6.43-6.215,3.241-5.851,6.288s3.574,5.162,7.172,4.732,6.215-3.241,5.851-6.3S807.391,328.267,803.793,328.7Zm1.224,10.17c-3.047.365-5.762-1.426-6.07-4s1.9-4.959,4.951-5.332,5.762,1.426,6.069,4S808.055,338.5,805.016,338.867Z" transform="translate(-773.479 -301.884)" fill="#3c354c"/>
    <path id="Tracé_413" data-name="Tracé 413" d="M663.2,259.64l7.82,1.669-.77,2.058L662.88,261.2Z" transform="translate(-645.913 -231.263)" fill="#3c354c"/>
    <path id="Tracé_414" data-name="Tracé 414" d="M715.382,253.18l-7.212,3.476,1.24,1.815,6.653-3.849Z" transform="translate(-654.502 -230.037)" fill="#3c354c"/>
    <path id="Tracé_415" data-name="Tracé 415" d="M687.31,260.906l5.486-.656-.284,1.361-4.708.316Z" transform="translate(-650.546 -231.378)" fill="#3c354c"/>
    <path id="Tracé_416" data-name="Tracé 416" d="M796.882,323.31a8.7,8.7,0,0,0,.81-3.541,7.567,7.567,0,0,1,.373-2.156,6.029,6.029,0,0,1,1.767-2.261,16.343,16.343,0,0,1,9.724-3.4,22.479,22.479,0,0,1,11.248,2.431,8.751,8.751,0,0,1,2.8,2.074c1.135,1.386,1.378,3.177,2.52,4.546a6.621,6.621,0,0,0,6.207,1.945c.4-1.41-.122-2.9.081-4.343a21.02,21.02,0,0,1,1.288-3.6c1.256-3.7-.575-8-4.352-10.21-1.321-.81-2.885-1.337-3.873-2.431s-1.224-2.228-1.9-3.322c-1.807-2.893-6.483-4.246-10.04-2.909-1.118.421-2.107,1.062-3.241,1.515a26.718,26.718,0,0,1-6.823,1.313,20.9,20.9,0,0,0-6.612,1.734,7.405,7.405,0,0,0-4.141,4.473c-.219.875-.17,1.783-.389,2.65-1.118,4.4-8.338,6.539-8.744,11.029a6.436,6.436,0,0,0,1.839,4.5c.762.9,2.585,3.306,3.873,3.655s2.269-.875,3.5-1.3C794.735,325.1,795.91,324.971,796.882,323.31Z" transform="translate(-770.758 -295.621)" fill="#cbceda"/>
  </g>
  <path id="Tracé_417" data-name="Tracé 417" d="M912.81,682c0,40.712,25.542,73.661,57.105,73.661" transform="translate(-275.076 -186.878)" fill="#46455b"/>
  <path id="Tracé_418" data-name="Tracé 418" d="M983.28,755.477c0-41.174,28.508-74.487,63.734-74.487" transform="translate(-288.441 -186.687)" fill="#5878cf"/>
  <path id="Tracé_419" data-name="Tracé 419" d="M938.35,686.56c0,38.678,16.288,69.973,36.409,69.973" transform="translate(-279.919 -187.743)" fill="#5878cf"/>
  <path id="Tracé_420" data-name="Tracé 420" d="M983.28,750.633c0-52.608,32.949-95.183,73.66-95.183" transform="translate(-288.441 -181.843)" fill="#46455b"/>
  <ellipse id="Ellipse_86" data-name="Ellipse 86" cx="14.197" cy="2.399" rx="14.197" ry="2.399" transform="translate(678.171 578.06)" fill="#5878cf" opacity="0.1"/>
  <path id="Tracé_421" data-name="Tracé 421" d="M968.46,772.526s8.1-.251,10.534-1.985,12.455-3.817,13.063-1.029,12.155,13.865,3.023,13.938-21.247-1.426-23.678-2.909S968.46,772.526,968.46,772.526Z" transform="translate(-285.63 -203.217)" fill="#a8a8a8"/>
  <path id="Tracé_422" data-name="Tracé 422" d="M995.25,783.5c-9.141.073-21.239-1.426-23.678-2.909-1.856-1.126-2.593-5.186-2.844-7.05h-.267s.51,6.531,2.95,8.014,14.538,2.982,23.678,2.909c2.642,0,3.549-.964,3.5-2.35C998.224,782.956,997.26,783.483,995.25,783.5Z" transform="translate(-285.63 -204.239)" opacity="0.2"/>
  <path id="Tracé_423" data-name="Tracé 423" d="M148.31,711.36c0,32.414,20.315,58.6,45.428,58.6" transform="translate(-130.085 -192.447)" fill="#46455b"/>
  <path id="Tracé_424" data-name="Tracé 424" d="M204.37,769.811c0-32.754,22.69-59.261,50.7-59.261" transform="translate(-140.717 -192.293)" fill="#5878cf"/>
  <path id="Tracé_425" data-name="Tracé 425" d="M168.62,715c0,30.793,12.966,55.671,28.97,55.671" transform="translate(-133.937 -193.137)" fill="#5878cf"/>
  <path id="Tracé_426" data-name="Tracé 426" d="M204.37,765.957c0-41.854,26.215-75.727,58.6-75.727" transform="translate(-140.717 -188.439)" fill="#46455b"/>
  <ellipse id="Ellipse_87" data-name="Ellipse 87" cx="11.296" cy="1.912" rx="11.296" ry="1.912" transform="translate(50.387 584.892)" fill="#5878cf" opacity="0.1"/>
  <path id="Tracé_427" data-name="Tracé 427" d="M192.58,783.364s6.442-.2,8.379-1.621,9.919-3.039,10.4-.81,9.684,11.029,2.431,11.086-16.9-1.135-18.841-2.31S192.58,783.364,192.58,783.364Z" transform="translate(-138.481 -205.433)" fill="#a8a8a8"/>
  <path id="Tracé_428" data-name="Tracé 428" d="M213.892,792.145c-7.293.057-16.9-1.135-18.841-2.318-1.475-.891-2.058-4.125-2.261-5.608h-.211s.405,5.194,2.342,6.377,11.572,2.366,18.841,2.309c2.1,0,2.828-.762,2.788-1.872C216.258,791.683,215.456,792.1,213.892,792.145Z" transform="translate(-138.481 -206.265)" opacity="0.2"/>
</svg>
