<svg xmlns="http://www.w3.org/2000/svg" width="90.605" height="78.187" viewBox="0 0 90.605 78.187">
  <g id="web-design" transform="translate(0 -0.383)">
    <path id="Tracé_3" data-name="Tracé 3" d="M270.569,212.913a1.394,1.394,0,0,1-.989-.41l-9.469-9.468a1.4,1.4,0,0,1,0-1.977l26.512-26.512a1.4,1.4,0,0,1,1.977,0l9.469,9.469a1.4,1.4,0,0,1,0,1.977L271.558,212.5a1.394,1.394,0,0,1-.988.41Zm-7.492-10.867,7.492,7.492L295.1,185l-7.492-7.493Zm0,0" transform="translate(-207.873 -139.077)" fill="#5878cf"/>
    <path id="Tracé_4" data-name="Tracé 4" d="M237.38,323.979a1.4,1.4,0,0,1-1.327-1.84l4.734-14.2a1.4,1.4,0,0,1,2.315-.546l9.469,9.469a1.4,1.4,0,0,1-.546,2.315l-14.2,4.734A1.4,1.4,0,0,1,237.38,323.979Zm5.345-13.014-3.135,9.406,9.4-3.135Zm0,0" transform="translate(-188.886 -245.408)" fill="#5878cf"/>
    <path id="Tracé_5" data-name="Tracé 5" d="M377.319,212.5a1.394,1.394,0,0,1-.988-.409l-9.469-9.469a1.4,1.4,0,0,1,1.977-1.977l9.469,9.469a1.4,1.4,0,0,1-.988,2.386Zm0,0" transform="translate(-293.319 -159.963)" fill="#5878cf"/>
    <path id="Tracé_6" data-name="Tracé 6" d="M54.787,62.809H9.386A9.4,9.4,0,0,1,0,53.424V9.769A9.4,9.4,0,0,1,9.386.383h51.92a9.4,9.4,0,0,1,9.385,9.385V46.9a1.4,1.4,0,1,1-2.8,0V9.769a6.6,6.6,0,0,0-6.59-6.59H9.386A6.6,6.6,0,0,0,2.8,9.769V53.424a6.6,6.6,0,0,0,6.59,6.59h45.4a1.4,1.4,0,1,1,0,2.8Zm0,0" transform="translate(0)" fill="#5878cf"/>
    <path id="Tracé_7" data-name="Tracé 7" d="M69.293,84.573H1.4a1.4,1.4,0,1,1,0-2.8h67.9a1.4,1.4,0,1,1,0,2.8Zm0,0" transform="translate(0 -65.15)" fill="#5878cf"/>
    <path id="Tracé_8" data-name="Tracé 8" d="M84.77,36.65a3.907,3.907,0,1,1,3.907-3.906A3.911,3.911,0,0,1,84.77,36.65Zm0-5.018a1.111,1.111,0,1,0,1.112,1.112A1.113,1.113,0,0,0,84.77,31.632Zm0,0" transform="translate(-64.726 -22.774)" fill="#5878cf"/>
    <path id="Tracé_9" data-name="Tracé 9" d="M28.293,36.474A3.907,3.907,0,1,1,32.2,32.567,3.911,3.911,0,0,1,28.293,36.474Zm0-5.018A1.111,1.111,0,1,0,29.4,32.567,1.112,1.112,0,0,0,28.293,31.456Zm0,0" transform="translate(-19.52 -22.634)" fill="#5878cf"/>
    <path id="Tracé_10" data-name="Tracé 10" d="M141.246,36.826a3.907,3.907,0,1,1,3.907-3.906A3.911,3.911,0,0,1,141.246,36.826Zm0-5.018a1.111,1.111,0,1,0,1.112,1.112A1.113,1.113,0,0,0,141.246,31.807Zm0,0" transform="translate(-109.93 -22.915)" fill="#5878cf"/>
  </g>
</svg>
