<svg xmlns="http://www.w3.org/2000/svg" width="700.393" height="390.035" viewBox="0 0 700.393 390.035">
  <g id="undraw_working_remotely_jh40" transform="translate(0 0)">
    <path id="Tracé_23" data-name="Tracé 23" d="M728.393,394.165A110.544,110.544,0,0,1,712.4,451.641c0,21.2-9.881,40.407-25.91,54.409a88.618,88.618,0,0,1-12.906,9.355c-.184.116-.373.227-.563.337-.343.2-.686.4-1.035.612l-.325.19h0c-1.463.827-2.957,1.622-4.482,2.369a101.429,101.429,0,0,1-45.158,10.408H160.958q-5.51,0-10.922-.441a129.274,129.274,0,0,1-37.383-8.657q-3.5-1.384-6.869-2.975-1.6-.753-3.177-1.549c-.655-.331-1.31-.673-1.959-1.016a116.62,116.62,0,0,1-11.424-6.943,112.586,112.586,0,0,1-9.673-7.42C58.716,482.442,45.828,457.7,45.828,430.4A110.508,110.508,0,0,1,28,369.987c0-60.7,48.513-109.9,108.365-109.9,1.837,0,3.673.055,5.51.153a5.6,5.6,0,0,1,.784.037,186.708,186.708,0,0,1,39.8-46.909c44.228-37.9,108.867-61.786,180.872-61.786,60.5,0,115.8,16.867,158.164,44.736A106.638,106.638,0,0,1,574.11,182.51c59.84,0,108.365,49.205,108.365,109.9a113.254,113.254,0,0,1-.612,11.5,110.2,110.2,0,0,1,46.53,90.255Z" transform="translate(-28 -139.286)" fill="#4285f4" opacity="0.1"/>
    <path id="Tracé_24" data-name="Tracé 24" d="M684.07,360.116v-6.569a23.908,23.908,0,1,0-17.987,0v6.569a33.673,33.673,0,0,0-15.636,9.508,33.722,33.722,0,0,0-19.028-13.787v-6.575a23.908,23.908,0,1,0-17.987,0v6.569a33.672,33.672,0,0,0-14.21,8.057,33.722,33.722,0,0,0-18.006-12.343v-6.569a23.908,23.908,0,1,0-17.987,0v6.569a33.673,33.673,0,0,0-15.918,9.832,33.728,33.728,0,0,0-22.389-20.24v-6.569a23.908,23.908,0,1,0-17.987,0v6.569a33.673,33.673,0,0,0-24.489,29.246,33.439,33.439,0,0,0-10.145-4.757v-6.569a23.908,23.908,0,1,0-17.987,0v6.569a33.783,33.783,0,0,0-21.22,17.571,33.414,33.414,0,0,0-9.183-4.1v-6.569a23.908,23.908,0,1,0-17.987,0V379.1a33.237,33.237,0,0,0-8.7,3.808,33.758,33.758,0,0,0-21.067-17.277v-6.569a23.908,23.908,0,1,0-17.987,0v6.569a33.734,33.734,0,0,0-21.961,19.2,33.672,33.672,0,0,0-11.479-5.73v-6.569a23.908,23.908,0,1,0-17.987,0V379.1a33.673,33.673,0,0,0-24.679,32.448V563.377h67.309V549.908H381.2v13.469H448.55V549.908h48.366V525.418h41.632v10.408h50.2v4.286H641.4V544.4h67.345V392.564a33.672,33.672,0,0,0-24.678-32.448Z" transform="translate(-126.517 -192.383)" fill="#4285f4" opacity="0.1"/>
    <path id="Tracé_25" data-name="Tracé 25" d="M424.751,169h55.976A104.252,104.252,0,0,1,584.984,273.257V414.5H320.5V273.251A104.251,104.251,0,0,1,424.751,169Z" transform="translate(-124.28 -65.533)" fill="#2f2e41"/>
    <path id="Tracé_26" data-name="Tracé 26" d="M434.751,178.28h43.732A104.252,104.252,0,0,1,582.739,282.537V412.416H330.5V282.531A104.251,104.251,0,0,1,434.751,178.28Z" transform="translate(-128.158 -69.131)" opacity="0.2"/>
    <path id="Tracé_27" data-name="Tracé 27" d="M705.946,704.2v10.69a101.428,101.428,0,0,1-45.158,10.408H199.735q-5.51,0-10.922-.441A129.274,129.274,0,0,1,151.43,716.2q-3.5-1.384-6.869-2.975-1.6-.753-3.177-1.549c-.655-.331-1.31-.673-1.959-1.016A116.631,116.631,0,0,1,128,703.726V674.694A17.693,17.693,0,0,1,145.693,657H654.6a17.694,17.694,0,0,1,11.632,4.39L699.9,690.9A17.675,17.675,0,0,1,705.946,704.2Z" transform="translate(-66.777 -335.272)" fill="#2f2e41"/>
    <path id="Tracé_28" data-name="Tracé 28" d="M421.472,353.924q-20.026,1.322-39.9,4.286c-3.765.563-7.586,1.188-11.02,2.853a32.328,32.328,0,0,0-7.31,5.241,96.353,96.353,0,0,0-23.265,31.548c-3.41,7.439-5.859,15.306-9.073,22.806-11.443,26.785-32.2,48.691-44.277,75.194a65.76,65.76,0,0,0-5.694,17.963c-.906,6.453.122,13.983,5.424,17.755,2.449,1.733,5.424,2.449,8.339,3.061A1004.967,1004.967,0,0,0,405.86,552.783c-4.047-3.906-5.4-9.961-4.867-15.557s2.731-10.885,4.9-16.071q-31.72-7-63.28-14.694c-3.141-.765-6.912-2.2-7.3-5.412-.2-1.635.612-3.208,1.408-4.647A249.283,249.283,0,0,1,368.8,451.1c0,17.179-.851,36.581-.851,53.766H566.375a151.826,151.826,0,0,1-4.188-29.907c-.924-32.914,10.157-65.576,7.279-98.422-.269-3.031-.686-6.153-2.271-8.749-2.737-4.482-8.2-6.337-13.218-7.867-19.249-5.853-38.9-11.773-59.019-11.314-5.982.141-11.939.839-17.883,1.543C458.959,352.284,439.674,352.718,421.472,353.924Z" transform="translate(-125.966 -215.676)" fill="#4285f4"/>
    <path id="Tracé_29" data-name="Tracé 29" d="M358.839,675.624l14.449,46.242a1.445,1.445,0,0,0,1.378,1.01h62L421.972,669,360.1,673.757a1.445,1.445,0,0,0-1.261,1.867Z" transform="translate(-156.264 -339.926)" fill="#656478"/>
    <path id="Tracé_30" data-name="Tracé 30" d="M504.159,374.705c-2.694,1.549-5.835,2.106-8.9,2.639l-19.757,3.428c-3.845.667-7.892,1.427-10.855,3.967-6.061,5.186-4.751,14.73-2.914,22.493l3.673,15.575c2.767,11.706,5.6,23.553,11.271,34.156,9.912,18.508,28.1,31.836,48.091,38.258,7.145,2.3,14.694,3.79,22.151,2.969,14.608-1.6,27.1-12.018,34.805-24.538s11.369-27.042,14.73-41.356c3.227-13.7,6.294-27.6,6.086-41.681-.061-4.384-.5-8.963-2.841-12.679-5.124-8.161-16.738-8.773-26.259-7.267a9.741,9.741,0,0,1-4.445.049c-4.286-1.335-4.384-7.218-6.22-11.3-3.471-7.7-13.769-9.067-22.187-8.369s-21.526,1.6-28.861,6.367C504.679,361.977,512.43,369.936,504.159,374.705Z" transform="translate(-195.594 -216.572)" fill="#fbbebe"/>
    <path id="Tracé_31" data-name="Tracé 31" d="M504.159,374.705c-2.694,1.549-5.835,2.106-8.9,2.639l-19.757,3.428c-3.845.667-7.892,1.427-10.855,3.967-6.061,5.186-4.751,14.73-2.914,22.493l3.673,15.575c2.767,11.706,5.6,23.553,11.271,34.156,9.912,18.508,28.1,31.836,48.091,38.258,7.145,2.3,14.694,3.79,22.151,2.969,14.608-1.6,27.1-12.018,34.805-24.538s11.369-27.042,14.73-41.356c3.227-13.7,6.294-27.6,6.086-41.681-.061-4.384-.5-8.963-2.841-12.679-5.124-8.161-16.738-8.773-26.259-7.267a9.741,9.741,0,0,1-4.445.049c-4.286-1.335-4.384-7.218-6.22-11.3-3.471-7.7-13.769-9.067-22.187-8.369s-21.526,1.6-28.861,6.367C504.679,361.977,512.43,369.936,504.159,374.705Z" transform="translate(-195.594 -216.572)" opacity="0.1"/>
    <path id="Tracé_32" data-name="Tracé 32" d="M481.128,406.862c2.988,6.269,5.228,12.918,8.841,18.851a93.144,93.144,0,0,0,10.212,13c9.484,10.726,19.089,21.538,30.826,29.705a136.485,136.485,0,0,1,33.9-66.733c5.057-5.43,11.387-10.781,18.808-10.579,4.6.129,8.853,2.412,12.685,4.953a45.385,45.385,0,0,1,11.418,10.206c4.867,6.5,6.967,14.736,7.347,22.849s-.882,16.206-2.131,24.226L606.605,494.8c-.373,2.4-.894,5.051-2.853,6.49a8.981,8.981,0,0,1-3.673,1.322c-23.369,4.549-47.454,1.6-71.264,1.365-26.326-.251-53.38,2.749-78.317-5.626a7.618,7.618,0,0,1-3.539-2,7.384,7.384,0,0,1-1.224-2.639c-5.81-18.808-1.151-39.018,2.3-58.395a458.178,458.178,0,0,0,5.822-46.395c.1-1.4,15.508,1.7,17.228,2.688C475.765,394.384,478.875,402.135,481.128,406.862Z" transform="translate(-188.916 -231.182)" fill="#4285f4"/>
    <g id="Groupe_3" data-name="Groupe 3" transform="translate(66.102 163.923)" opacity="0.2">
      <path id="Tracé_33" data-name="Tracé 33" d="M187.227,662.724a7.288,7.288,0,0,1-.061.827q-3.5-1.384-6.869-2.975a5.572,5.572,0,0,1-3.177-1.549c-.655-.331-1.31-.673-1.959-1.016a8.375,8.375,0,0,1,.5-.894,5.7,5.7,0,0,1,10.365.318,10.328,10.328,0,0,1,1.206,5.29Z" transform="translate(-151.166 -498.007)" fill="#3f3d56"/>
      <path id="Tracé_34" data-name="Tracé 34" d="M187.108,645.6a10.335,10.335,0,0,1-1.537,5.192,6.163,6.163,0,0,1-5.29,3.171l-.435-.031a5.571,5.571,0,0,1-3.177-1.549,7.674,7.674,0,0,1-1.463-1.91A10.745,10.745,0,0,1,175.537,640a5.7,5.7,0,0,1,10.365.318A10.328,10.328,0,0,1,187.108,645.6Z" transform="translate(-150.716 -491.369)" fill="#3f3d56"/>
      <ellipse id="Ellipse_2" data-name="Ellipse 2" cx="8.577" cy="6.551" rx="8.577" ry="6.551" transform="translate(23.356 151.931) rotate(-88.19)" fill="#3f3d56"/>
      <ellipse id="Ellipse_3" data-name="Ellipse 3" cx="8.577" cy="6.551" rx="8.577" ry="6.551" transform="translate(23.69 141.449) rotate(-88.19)" fill="#3f3d56"/>
      <ellipse id="Ellipse_4" data-name="Ellipse 4" cx="8.577" cy="6.551" rx="8.577" ry="6.551" transform="translate(24.018 130.968) rotate(-88.19)" fill="#3f3d56"/>
      <path id="Tracé_35" data-name="Tracé 35" d="M144.561,449.329a30.4,30.4,0,0,1-2.326-3.673l17.3-2.284-18.649-.441a31.456,31.456,0,0,1,.19-24.881l24.563,13.738-22.5-17.657a31.4,31.4,0,1,1,50.717,36.734,31.3,31.3,0,0,1,3.4,5.835l-22.7,10.922,24.079-7.243a31.432,31.432,0,0,1-6,29.326,31.4,31.4,0,1,1-49.3-1.573,31.4,31.4,0,0,1,1.224-38.8Z" transform="translate(-135.97 -399.247)" fill="#4285f4"/>
      <path id="Tracé_36" data-name="Tracé 36" d="M199.966,515.3a31.261,31.261,0,0,1-7.347,19.193,31.4,31.4,0,1,1-49.285-1.555C139.275,527.462,200.076,511.777,199.966,515.3Z" transform="translate(-135.968 -444.05)" opacity="0.1"/>
    </g>
    <circle id="Ellipse_5" data-name="Ellipse 5" cx="13.243" cy="13.243" r="13.243" transform="translate(28.401 73.192)" fill="#4285f4" opacity="0.1"/>
    <circle id="Ellipse_6" data-name="Ellipse 6" cx="13.243" cy="13.243" r="13.243" transform="translate(83.594 0)" fill="#4285f4" opacity="0.1"/>
    <circle id="Ellipse_7" data-name="Ellipse 7" cx="22.193" cy="22.193" r="22.193" transform="translate(70.155 41.332)" fill="#4285f4" opacity="0.1"/>
    <circle id="Ellipse_8" data-name="Ellipse 8" cx="51.427" cy="51.427" r="51.427" transform="translate(281.014 62.141)" fill="#fbbebe"/>
    <path id="Tracé_37" data-name="Tracé 37" d="M493.972,149.962c-13.72,1.739-28.53,4.035-38.228,13.892-5.424,5.51-8.6,12.857-11.216,20.13-4.053,11.326-7.071,23.265-6.122,35.283.845,10.751,4.824,21.746,1.6,32.044-1.482,4.739-4.39,8.877-6.649,13.292-4.188,8.2-6.159,17.387-6.882,26.565-.5,6.312-.4,12.808,1.671,18.789,2.21,6.367,6.52,11.785,9.251,17.945,4.041,9.1,4.445,19.334,4.757,29.283s.576,19.83.808,29.742c.147,6.233.159,12.906-3.288,18.1,12.728-5.1,25.634-10.3,36.526-18.63s19.708-20.332,21.116-33.973c1.139-11.057-2.6-21.955-5.816-32.6-7.959-26.326-13.1-54.391-7.31-81.274,2.088-9.679,7.163-20.485,16.9-22.267,5.945-1.084,11.877,1.629,17.234,4.433,12.661,6.624,25.714,15.2,30.428,28.683,4.286,12.2.68,25.781-4.9,37.426s-13.169,22.353-17.5,34.524c-6.655,18.673-4.782,40.536,6.275,56.987s31.487,26.571,51.134,23.914c-1.537-6.637-6.355-12-8.939-18.306-4.7-11.455-1.531-24.63,3.52-35.932s11.945-21.838,15.1-33.838c2.229-8.449,2.5-17.277,2.486-26.014,0-13.751-.68-27.508-2-41.2s-3.343-27.55-7.7-40.72c-3.5-10.561-8.6-20.773-16.23-28.873-8.118-8.626-18.685-14.473-29.063-20.2-6.208-3.416-12.551-6.875-19.518-8.155-5.51-1.01-11.3-2.449-16.922-2.541C500.682,146.423,496.666,147.25,493.972,149.962Z" transform="translate(-182.42 -137.307)" fill="#434175"/>
    <rect id="Rectangle_8" data-name="Rectangle 8" width="37.254" height="86.778" rx="2.9" transform="matrix(0.982, 0.19, -0.19, 0.982, 373.515, 72.276)" fill="#656478"/>
    <rect id="Rectangle_9" data-name="Rectangle 9" width="37.254" height="86.778" rx="2.9" transform="matrix(0.982, 0.19, -0.19, 0.982, 376.016, 72.761)" fill="#3f3d56"/>
    <ellipse id="Ellipse_9" data-name="Ellipse 9" cx="6.153" cy="2.541" rx="6.153" ry="2.541" transform="matrix(0.19, -0.982, 0.982, 0.19, 387.019, 100.31)" fill="#4285f4"/>
    <path id="Tracé_38" data-name="Tracé 38" d="M662.077,323.375c-1.616-2.859-3.343-5.816-6.067-7.647A21.428,21.428,0,0,0,651,313.481c-5.932-2.075-11.963-4.169-18.238-4.5a3.432,3.432,0,0,0-2.859.784c-1.371,1.61.8,3.8,2.682,4.775l14.951,7.745-13.781-1.457c-2-.214-4.855.331-4.708,2.339.1,1.316,1.543,2.033,2.792,2.449,8.847,3.061,19.071,5.461,23.914,13.469-6.453-.612-13.047-1.224-19.371.2a8.2,8.2,0,0,0-4.659,2.363c-1.133,1.365-1.261,3.673.165,4.757a4.806,4.806,0,0,0,3.171.612c4.488-.214,9.092-1.108,13.4.171s8.136,5.8,6.649,10.034a24.192,24.192,0,0,0,11.871-1.647c3.894-1.837,3.8-5.29,3.563-9.453C670.036,337.965,665.989,330.354,662.077,323.375Z" transform="translate(-261.065 -200.317)" fill="#fbbebe"/>
    <path id="Tracé_39" data-name="Tracé 39" d="M664.1,480.032a688.892,688.892,0,0,0-14.081-71.582c-3.061-12.245-6.539-24.7-5.663-37.3,12.649,1.61,23.981,2.8,35.638-2.363.19,6.618,4.99,12.245,6.735,18.642,1.169,4.286.729,8.822,1.188,13.236s1.837,8.694,3.018,12.985A159.322,159.322,0,0,1,694.991,479C684.173,480.29,674.891,481.7,664.1,480.032Z" transform="translate(-266.949 -223.514)" opacity="0.1"/>
    <path id="Tracé_40" data-name="Tracé 40" d="M661.1,480.032a688.876,688.876,0,0,0-14.081-71.582c-3.061-12.245-6.539-24.7-5.663-37.3,12.649,1.61,23.981,2.8,35.638-2.363.19,6.618,4.99,12.245,6.735,18.642,1.169,4.286.729,8.822,1.188,13.236s1.837,8.694,3.018,12.985A159.322,159.322,0,0,1,691.991,479C681.173,480.29,671.891,481.7,661.1,480.032Z" transform="translate(-265.786 -223.514)" fill="#4285f4"/>
    <path id="Tracé_41" data-name="Tracé 41" d="M384.625,645.563l5.994-148.693a9.1,9.1,0,0,1,9.183-8.731l236.64,2.265a9.1,9.1,0,0,1,8.969,9.894l-12.5,142.448a9.1,9.1,0,0,1-8.908,8.3l-230.126,3.979a9.1,9.1,0,0,1-9.251-9.465Z" transform="translate(-166.285 -269.793)" fill="#3f3d56"/>
    <ellipse id="Ellipse_10" data-name="Ellipse 10" cx="10.408" cy="12.245" rx="10.408" ry="12.245" transform="translate(340.094 273.667)" fill="#4285f4"/>
    <path id="Tracé_42" data-name="Tracé 42" d="M928.484,584.76l-.49,4.2-7.959,67.872c-20.748,14.467-36.887.563-37.028,0l-10.028-68.19-.569-3.882Z" transform="translate(-355.436 -307.26)" fill="#3f3d56"/>
    <path id="Tracé_43" data-name="Tracé 43" d="M928.484,584.76l-.49,4.2c-23.375,13.591-48.311,3.012-55.015-.318l-.569-3.882Z" transform="translate(-355.436 -307.26)" opacity="0.1"/>
    <path id="Tracé_44" data-name="Tracé 44" d="M870.5,578.74v6.122s30.918,17.975,58.774,0V578.74Z" transform="translate(-354.695 -304.926)" fill="#4285f4"/>
    <path id="Tracé_45" data-name="Tracé 45" d="M874.094,565.53s-.9,4.133-3.594,4.494v5.21h58.774v-4.671a4.344,4.344,0,0,1-3.061-5.033Z" transform="translate(-354.695 -299.803)" fill="#4285f4"/>
    <ellipse id="Ellipse_11" data-name="Ellipse 11" cx="26.51" cy="7.641" rx="26.51" ry="7.641" transform="translate(518.505 258.533)" fill="#4285f4"/>
    <ellipse id="Ellipse_12" data-name="Ellipse 12" cx="26.51" cy="7.641" rx="26.51" ry="7.641" transform="translate(518.505 258.533)" opacity="0.1"/>
    <path id="Tracé_46" data-name="Tracé 46" d="M927.762,562c0,3.061-10.053,5.571-22.463,5.571h-.661c-8.333-.061-15.532-1.224-19.206-2.963-1.659-.784-2.6-1.671-2.6-2.608,0-1.555,2.571-2.963,6.735-3.973a69.481,69.481,0,0,1,15.753-1.6C917.709,556.426,927.762,558.918,927.762,562Z" transform="translate(-359.476 -296.271)" opacity="0.1"/>
    <path id="Tracé_47" data-name="Tracé 47" d="M906.286,568.569c-8.332-.061-15.532-1.224-19.206-2.963h0L891.194,559Z" transform="translate(-361.124 -297.271)" opacity="0.1"/>
    <path id="Tracé_48" data-name="Tracé 48" d="M879.591,566.218c-.318-.067-.741.043-.8.361a.778.778,0,0,0,.122.459,6.534,6.534,0,0,0,2.927,2.5,1.744,1.744,0,0,0,.667.214.612.612,0,0,0,.612-.318.692.692,0,0,0-.043-.569,2.528,2.528,0,0,0-.759-.833C881.5,567.393,880.657,566.4,879.591,566.218Z" transform="translate(-357.909 -300.063)" opacity="0.1"/>
    <circle id="Ellipse_13" data-name="Ellipse 13" cx="15.814" cy="15.814" r="15.814" transform="translate(530.094 299.969)" fill="#4285f4"/>
    <path id="Tracé_49" data-name="Tracé 49" d="M178.636,515.85h7.414a15.306,15.306,0,0,1,15.306,15.306V553.9H163.33V531.156A15.306,15.306,0,0,1,178.636,515.85Z" transform="translate(-63.334 -200.03)" fill="#3f3d56"/>
    <path id="Tracé_50" data-name="Tracé 50" d="M178.636,515.85h7.414a15.306,15.306,0,0,1,15.306,15.306V553.9H163.33V531.156A15.306,15.306,0,0,1,178.636,515.85Z" transform="translate(-63.334 -200.03)" opacity="0.1"/>
    <circle id="Ellipse_14" data-name="Ellipse 14" cx="3.043" cy="3.043" r="3.043" transform="translate(114.444 318.103)" fill="#3f3d56"/>
    <circle id="Ellipse_15" data-name="Ellipse 15" cx="3.043" cy="3.043" r="3.043" transform="translate(114.444 314.301)" fill="#3f3d56"/>
    <circle id="Ellipse_16" data-name="Ellipse 16" cx="3.043" cy="3.043" r="3.043" transform="translate(114.444 310.493)" fill="#3f3d56"/>
    <circle id="Ellipse_17" data-name="Ellipse 17" cx="3.043" cy="3.043" r="3.043" transform="translate(114.444 306.691)" fill="#3f3d56"/>
    <circle id="Ellipse_18" data-name="Ellipse 18" cx="3.043" cy="3.043" r="3.043" transform="translate(114.444 302.889)" fill="#3f3d56"/>
    <circle id="Ellipse_19" data-name="Ellipse 19" cx="3.043" cy="3.043" r="3.043" transform="translate(114.444 299.087)" fill="#3f3d56"/>
    <circle id="Ellipse_20" data-name="Ellipse 20" cx="3.043" cy="3.043" r="3.043" transform="translate(114.444 295.285)" fill="#3f3d56"/>
    <circle id="Ellipse_21" data-name="Ellipse 21" cx="3.043" cy="3.043" r="3.043" transform="translate(119.012 296.804)" fill="#3f3d56"/>
    <circle id="Ellipse_22" data-name="Ellipse 22" cx="3.043" cy="3.043" r="3.043" transform="translate(122.054 295.285)" fill="#3f3d56"/>
    <circle id="Ellipse_23" data-name="Ellipse 23" cx="3.043" cy="3.043" r="3.043" transform="translate(125.097 293.761)" fill="#3f3d56"/>
    <circle id="Ellipse_24" data-name="Ellipse 24" cx="3.043" cy="3.043" r="3.043" transform="translate(114.444 291.483)" fill="#3f3d56"/>
    <circle id="Ellipse_25" data-name="Ellipse 25" cx="3.043" cy="3.043" r="3.043" transform="translate(114.444 287.681)" fill="#3f3d56"/>
    <circle id="Ellipse_26" data-name="Ellipse 26" cx="3.043" cy="3.043" r="3.043" transform="translate(114.444 283.873)" fill="#3f3d56"/>
    <circle id="Ellipse_27" data-name="Ellipse 27" cx="3.043" cy="3.043" r="3.043" transform="translate(114.444 280.071)" fill="#3f3d56"/>
    <path id="Tracé_51" data-name="Tracé 51" d="M224.323,571.106c-.753.11-1.512.19-2.271.239a17.484,17.484,0,0,0,1.965-2.02,12.99,12.99,0,0,0-1.837-3.569,6.257,6.257,0,0,1-2.449.771c-.753.11-1.512.19-2.271.245a37.926,37.926,0,0,0,2.908-3.061,12.912,12.912,0,1,0,4.047,7.347Z" transform="translate(-94.224 -297.8)" fill="#4285f4"/>
    <path id="Tracé_52" data-name="Tracé 52" d="M249.436,601.656a5.927,5.927,0,0,1-2.559.851c-.753.11-1.512.2-2.271.245a22.289,22.289,0,0,0,2.253-2.339,7.616,7.616,0,1,0,2.578,1.224Z" transform="translate(-109.168 -313.234)" fill="#4285f4"/>
    <circle id="Ellipse_28" data-name="Ellipse 28" cx="3.043" cy="3.043" r="3.043" transform="translate(109.883 296.804)" fill="#3f3d56"/>
    <circle id="Ellipse_29" data-name="Ellipse 29" cx="3.043" cy="3.043" r="3.043" transform="translate(106.84 295.285)" fill="#3f3d56"/>
    <circle id="Ellipse_30" data-name="Ellipse 30" cx="3.043" cy="3.043" r="3.043" transform="translate(103.798 293.761)" fill="#3f3d56"/>
    <path id="Tracé_53" data-name="Tracé 53" d="M180.725,601.656a5.9,5.9,0,0,0,2.559.851c.753.11,1.512.2,2.271.245a21.69,21.69,0,0,1-2.253-2.339,7.616,7.616,0,1,1-2.577,1.224Z" transform="translate(-86.013 -313.234)" fill="#4285f4"/>
    <path id="Tracé_54" data-name="Tracé 54" d="M178.636,519.58h7.414a15.306,15.306,0,0,1,15.306,15.306V555.01a2.6,2.6,0,0,1-2.6,2.6H165.926a2.6,2.6,0,0,1-2.6-2.6V534.886a15.306,15.306,0,0,1,15.306-15.306Z" transform="translate(-63.334 -201.477)" fill="#3f3d56"/>
    <g id="Groupe_4" data-name="Groupe 4" transform="translate(104.74 262.748)" opacity="0.1">
      <path id="Tracé_55" data-name="Tracé 55" d="M240.26,579.27a11.525,11.525,0,0,1-.98.931,9.949,9.949,0,0,0,1.041-.092A5.468,5.468,0,0,0,240.26,579.27Z" transform="translate(-214.668 -567.879)"/>
      <path id="Tracé_56" data-name="Tracé 56" d="M231.82,571.725c.765-.049,1.518-.129,2.277-.239a7.344,7.344,0,0,0,1.978-.539,13.032,13.032,0,0,0-1.065-1.757,4.6,4.6,0,0,1-1.224.52,17.625,17.625,0,0,1-1.965,2.014Z" transform="translate(-211.775 -563.971)"/>
      <path id="Tracé_57" data-name="Tracé 57" d="M200.421,574.951a12.906,12.906,0,0,1,19.9-10.873l.2-.208A12.918,12.918,0,1,0,203.482,583.3a12.857,12.857,0,0,1-3.061-8.345Z" transform="translate(-199.08 -560.665)"/>
    </g>
    <g id="Groupe_5" data-name="Groupe 5" transform="translate(128.14 286.922)" opacity="0.1">
      <path id="Tracé_58" data-name="Tracé 58" d="M249.22,605.2c.759-.049,1.518-.129,2.271-.239a5.94,5.94,0,0,0,2.559-.857,7.61,7.61,0,0,1,3.061,5.388,6.966,6.966,0,0,0,.043-.8,7.58,7.58,0,0,0-3.061-6.122,5.926,5.926,0,0,1-2.559.851l-.612.08A15.534,15.534,0,0,1,249.22,605.2Z" transform="translate(-241.922 -601.088)"/>
      <path id="Tracé_59" data-name="Tracé 59" d="M244.9,601.668a6.255,6.255,0,0,1,.759.055c.4-.423.79-.876,1.188-1.316a7.592,7.592,0,0,0-9.551,7.347,5.215,5.215,0,0,0,.037.759A7.6,7.6,0,0,1,244.9,601.668Z" transform="translate(-237.3 -600.15)"/>
    </g>
    <g id="Groupe_6" data-name="Groupe 6" transform="translate(91.608 286.922)" opacity="0.1">
      <path id="Tracé_60" data-name="Tracé 60" d="M185.564,605.2c-.759-.049-1.518-.129-2.271-.239a5.909,5.909,0,0,1-2.559-.857,7.61,7.61,0,0,0-3.061,5.388,6.966,6.966,0,0,1-.043-.8,7.579,7.579,0,0,1,3.061-6.122,5.9,5.9,0,0,0,2.559.851l.612.08A14.49,14.49,0,0,0,185.564,605.2Z" transform="translate(-177.63 -601.088)"/>
      <path id="Tracé_61" data-name="Tracé 61" d="M188.857,601.668a6.343,6.343,0,0,0-.765.055c-.392-.423-.784-.876-1.182-1.316a7.592,7.592,0,0,1,9.551,7.347,5.213,5.213,0,0,1-.037.759A7.6,7.6,0,0,0,188.857,601.668Z" transform="translate(-181.228 -600.15)"/>
    </g>
  </g>
</svg>
