<svg xmlns="http://www.w3.org/2000/svg" width="2072.871" height="1034.482" viewBox="0 0 2072.871 1034.482">
  <g id="bg-header-service" transform="translate(133.568 273.891)">
    <g id="Tracé_1" data-name="Tracé 1" transform="translate(1920 950.576) rotate(180)" fill="#507ce1">
      <path d="M1920,950.576h0Z" stroke="none"/>
      <path d="M 0 950.57568359375 L 1920 950.57568359375 L 0 950.57568359375 Z" stroke="none" fill="#707070"/>
    </g>
    <g id="Tracé_2" data-name="Tracé 2" transform="translate(-133.568 -273.891)" fill="#5878cf" stroke-linecap="round" stroke-linejoin="round">
      <path d="M 312.8393859863281 1033.982177734375 C 297.3985900878906 1033.982177734375 281.6825561523438 1032.48193359375 266.1275634765625 1029.523071289063 C 251.9843902587891 1026.832763671875 237.656494140625 1022.876403808594 223.54150390625 1017.764343261719 C 199.7625427246094 1009.152221679688 176.1409759521484 997.1424560546875 153.3325500488281 982.0685424804688 C 144.3701782226563 976.1456298828125 135.5133361816406 969.7293090820313 127.0083389282227 962.9979858398438 C 120.2035980224609 957.6124877929688 113.6072845458984 952.0145874023438 107.4028091430664 946.359619140625 C 96.83807373046875 936.7301025390625 90.99913024902344 930.1893310546875 90.94149780273438 930.1245727539063 L 90.79228973388672 929.9567260742188 L 90.56781005859375 929.9567260742188 L 26.56781196594238 929.9567260742188 L 0.4999175071716309 929.9567260742188 L 0.4999175071716309 0.5001168251037598 L 2072.370361328125 0.5001168251037598 L 2072.370361328125 930.3217163085938 C 2071.9990234375 930.9546508789063 2070.054931640625 934.1963500976563 2066.595703125 938.7514038085938 C 2063.046142578125 943.4251098632813 2057.129638671875 950.4772338867188 2049.100341796875 957.5316772460938 C 2040.083129882813 965.45458984375 2030.2919921875 971.7667236328125 2019.999145507813 976.292724609375 C 2013.890991210938 978.978515625 2007.535400390625 981.0574951171875 2001.109130859375 982.47119140625 C 1994.040405273438 984.0264282226563 1986.710693359375 984.8153686523438 1979.323364257813 984.816162109375 C 1943.280395507813 984.8201293945313 1904.121459960938 966.4048461914063 1862.933837890625 930.0817260742188 C 1821.5625 893.596435546875 1782.74072265625 875.0969848632813 1747.546752929688 875.0969848632813 C 1740.307250976563 875.0969848632813 1733.151245117188 875.8943481445313 1726.277587890625 877.4669799804688 C 1720.0283203125 878.8964233398438 1713.872314453125 880.99853515625 1707.980712890625 883.71484375 C 1698.062255859375 888.2874755859375 1688.700927734375 894.6622314453125 1680.1572265625 902.6619873046875 C 1672.559448242188 909.77587890625 1667.026977539063 916.8859252929688 1663.72412109375 921.5977783203125 C 1660.710083007813 925.8975219726563 1658.948364257813 929.0447998046875 1658.454223632813 929.9567260742188 L 1626.56787109375 929.9567260742188 L 1570.894287109375 929.9567260742188 C 1570.30029296875 928.619873046875 1567.722412109375 922.9839477539063 1563.123291015625 915.163818359375 C 1560.034423828125 909.9116821289063 1556.649658203125 904.7124633789063 1553.062866210938 899.7106323242188 C 1548.5791015625 893.4580078125 1543.764892578125 887.4971923828125 1538.75439453125 881.9943237304688 C 1525.994873046875 867.9806518554688 1511.89892578125 856.8135375976563 1496.858032226563 848.8030395507813 C 1487.92333984375 844.0446166992188 1478.5517578125 840.3619384765625 1469.004150390625 837.8572387695313 C 1458.50146484375 835.1022338867188 1447.526733398438 833.7051391601563 1436.384643554688 833.7051391601563 C 1382.194091796875 833.7051391601563 1321.50439453125 866.13671875 1256.001220703125 930.0990600585938 C 1246.941528320313 938.9453735351563 1237.6669921875 947.3003540039063 1228.435424804688 954.9317016601563 C 1219.468627929688 962.3440551757813 1210.297241210938 969.2764282226563 1201.175659179688 975.535888671875 C 1192.327514648438 981.6080322265625 1183.28515625 987.2127685546875 1174.299438476563 992.19482421875 C 1165.595703125 997.0203857421875 1156.708374023438 1001.393005371094 1147.884155273438 1005.191162109375 C 1139.350463867188 1008.864318847656 1130.643920898438 1012.099853515625 1122.006713867188 1014.808288574219 C 1113.668090820313 1017.422729492188 1105.168334960938 1019.616455078125 1096.74365234375 1021.328552246094 C 1088.62548828125 1022.978271484375 1080.358032226563 1024.22509765625 1072.170654296875 1025.034545898438 C 1064.298583984375 1025.81298828125 1056.289184570313 1026.207763671875 1048.364624023438 1026.208251953125 C 1033.48779296875 1026.208740234375 1018.347045898438 1024.821166992188 1003.363098144531 1022.084045410156 C 989.7393798828125 1019.595092773438 975.9385986328125 1015.934875488281 962.3446655273438 1011.205139160156 C 939.44384765625 1003.237243652344 916.6983642578125 992.1253662109375 894.7393798828125 978.1785278320313 C 886.1109619140625 972.6983032226563 877.5846557617188 966.76171875 869.3975219726563 960.5338134765625 C 862.8472900390625 955.5509033203125 856.498046875 950.3711547851563 850.5264892578125 945.1387939453125 C 840.5355834960938 936.3845825195313 834.9371948242188 930.389404296875 834.692138671875 930.1258544921875 C 834.5035400390625 929.901611328125 831.4549560546875 926.3030395507813 825.7754516601563 921.0858764648438 C 820.3948974609375 916.1435546875 811.4757080078125 908.6856689453125 799.5388793945313 901.224853515625 C 786.1233520507813 892.839599609375 771.7078247070313 886.1585083007813 756.6920166015625 881.366943359375 C 747.7764892578125 878.52197265625 738.5477905273438 876.3203735351563 729.2620239257813 874.822998046875 C 719.04833984375 873.1759033203125 708.5133666992188 872.3408813476563 697.9496459960938 872.3408813476563 C 633.7820434570313 872.3408813476563 565.2467651367188 902.3406372070313 494.247802734375 961.5064086914063 C 486.3349304199219 968.1004028320313 478.2517700195313 974.3324584960938 470.2222900390625 980.0296020507813 C 462.3985900878906 985.5806274414063 454.4114990234375 990.7761840820313 446.4822998046875 995.4719848632813 C 438.7646484375 1000.042724609375 430.8904418945313 1004.26513671875 423.0783386230469 1008.022216796875 C 415.4830627441406 1011.675109863281 407.7386169433594 1014.987731933594 400.0604553222656 1017.868774414063 C 385.369140625 1023.380615234375 370.3367614746094 1027.530883789063 355.3807067871094 1030.2041015625 C 341.3538513183594 1032.711181640625 327.0409851074219 1033.982177734375 312.8393859863281 1033.982177734375 Z" stroke="none"/>
      <path d="M 1 0.9998779296875 L 1 929.4566650390625 L 26.56787109375 929.4566650390625 L 90.56787109375 929.4566650390625 C 90.8533935546875 929.4566650390625 91.12548828125 929.5787963867188 91.315185546875 929.792236328125 C 91.37255859375 929.85693359375 97.1822509765625 936.3656616210938 107.7196044921875 945.9716796875 C 113.9141845703125 951.6185302734375 120.4998779296875 957.2085571289063 127.294677734375 962.5869750976563 C 135.788330078125 969.3101196289063 144.63330078125 975.7190551757813 153.5838623046875 981.6351318359375 C 176.3614501953125 996.691162109375 199.9501953125 1008.686706542969 223.6949462890625 1017.288024902344 C 237.7872314453125 1022.393005371094 252.092041015625 1026.343505859375 266.2117919921875 1029.030151367188 C 281.7391357421875 1031.984375 297.4267578125 1033.482177734375 312.83935546875 1033.482177734375 C 327.011474609375 1033.482177734375 341.294921875 1032.213500976563 355.2928466796875 1029.711669921875 C 370.2188720703125 1027.044067382813 385.2218017578125 1022.901977539063 399.8846435546875 1017.400390625 C 407.549072265625 1014.524841308594 415.2796630859375 1011.218017578125 422.86181640625 1007.571411132813 C 430.6607666015625 1003.820678710938 438.52197265625 999.6051025390625 446.2275390625 995.0416870117188 C 454.1448974609375 990.35302734375 462.1204833984375 985.1648559570313 469.932861328125 979.6219482421875 C 477.9517822265625 973.9322509765625 486.02490234375 967.7080078125 493.927490234375 961.1224975585938 C 565.0191650390625 901.8795776367188 633.6619873046875 871.8409423828125 697.94970703125 871.8409423828125 C 708.5399169921875 871.8409423828125 719.1014404296875 872.677978515625 729.341552734375 874.329345703125 C 738.6517333984375 875.8306884765625 747.9049072265625 878.0382690429688 756.8441162109375 880.890625 C 771.899169921875 885.69482421875 786.35302734375 892.3935546875 799.8035888671875 900.8009033203125 C 811.7728271484375 908.281982421875 820.717529296875 915.7609252929688 826.1136474609375 920.7177734375 C 831.806884765625 925.9476928710938 834.7869873046875 929.4609985351563 835.0673828125 929.79541015625 C 835.40966796875 930.1629028320313 840.96728515625 936.0963745117188 850.835205078125 944.7437744140625 C 856.7965087890625 949.968017578125 863.135498046875 955.1395874023438 869.6754150390625 960.1153564453125 C 877.8509521484375 966.3353881835938 886.365478515625 972.2645874023438 894.9820556640625 977.73828125 C 916.9107666015625 991.6680297851563 939.6241455078125 1002.766174316406 962.49169921875 1010.724365234375 C 976.0638427734375 1015.44775390625 989.842041015625 1019.10302734375 1003.443115234375 1021.588562011719 C 1018.400756835938 1024.322021484375 1033.514404296875 1025.7080078125 1048.364624023438 1025.7080078125 C 1056.2724609375 1025.7080078125 1064.265380859375 1025.314331054688 1072.12158203125 1024.537719726563 C 1080.291748046875 1023.730102539063 1088.542236328125 1022.485900878906 1096.643798828125 1020.839599609375 C 1105.0517578125 1019.131164550781 1113.534912109375 1016.941711425781 1121.85693359375 1014.332214355469 C 1130.47802734375 1011.629028320313 1139.168334960938 1008.399291992188 1147.6865234375 1004.733032226563 C 1156.495361328125 1000.941162109375 1165.367797851563 996.575927734375 1174.057006835938 991.75830078125 C 1183.02880859375 986.7838134765625 1192.0576171875 981.187255859375 1200.892822265625 975.1240844726563 C 1210.001953125 968.8727416992188 1219.161499023438 961.9493408203125 1228.11669921875 954.5464477539063 C 1237.338134765625 946.923828125 1246.60205078125 938.5782470703125 1255.651733398438 929.7411499023438 C 1321.251708984375 865.6845703125 1382.05908203125 833.205078125 1436.384643554688 833.205078125 C 1447.5693359375 833.205078125 1458.587036132813 834.6074829101563 1469.130981445313 837.37353515625 C 1478.71630859375 839.8883056640625 1488.124145507813 843.5850830078125 1497.093017578125 848.3616943359375 C 1512.1845703125 856.3992919921875 1526.325927734375 867.6016845703125 1539.124145507813 881.65771484375 C 1544.147827148438 887.1748657226563 1548.97412109375 893.15087890625 1553.469116210938 899.4193115234375 C 1557.064697265625 904.4335327148438 1560.457763671875 909.6453857421875 1563.554443359375 914.910400390625 C 1567.879150390625 922.263916015625 1570.425048828125 927.6992797851563 1571.21826171875 929.4566650390625 L 1626.56787109375 929.4566650390625 L 1658.156372070313 929.4566650390625 C 1658.79736328125 928.2911376953125 1660.495849609375 925.3319702148438 1663.314697265625 921.3109130859375 C 1666.631225585938 916.57958984375 1672.186279296875 909.4401245117188 1679.8154296875 902.2969360351563 C 1688.398315429688 894.2606201171875 1697.80419921875 887.8558959960938 1707.771484375 883.2606201171875 C 1713.694091796875 880.5301513671875 1719.883056640625 878.4166870117188 1726.166015625 876.9793701171875 C 1733.076171875 875.3985595703125 1740.269653320313 874.596923828125 1747.546752929688 874.596923828125 C 1782.865966796875 874.596923828125 1821.798828125 893.1385498046875 1863.264404296875 929.7066650390625 C 1904.353271484375 965.9429931640625 1943.401245117188 984.316162109375 1979.323364257813 984.316162109375 C 1986.670654296875 984.316162109375 1993.96044921875 983.53271484375 2000.990234375 981.9872436523438 C 2007.381469726563 980.58251953125 2013.702514648438 978.5161743164063 2019.7783203125 975.846435546875 C 2030.02099609375 971.3450927734375 2039.766723632813 965.0653686523438 2048.744140625 957.1817016601563 C 2056.743896484375 950.1566772460938 2062.639892578125 943.1319580078125 2066.177490234375 938.4761962890625 C 2069.4580078125 934.1587524414063 2071.372314453125 931.0247192382813 2071.870361328125 930.185302734375 L 2071.870361328125 0.9998779296875 L 1 0.9998779296875 M 0 -0.0001220703125 L 2072.870361328125 -0.0001220703125 L 2072.870361328125 930.4566650390625 C 2072.870361328125 930.4566650390625 2041.6171875 985.3162231445313 1979.323364257813 985.3162231445313 C 1948.170776367188 985.3162231445313 1909.263671875 971.6063842773438 1862.60302734375 930.4566650390625 C 1815.951049804688 889.314453125 1777.745727539063 875.5970458984375 1747.546752929688 875.5970458984375 C 1687.143188476563 875.5970458984375 1658.75390625 930.4566650390625 1658.75390625 930.4566650390625 C 1650.73681640625 930.4566650390625 1640.205200195313 930.4566650390625 1626.56787109375 930.4566650390625 C 1525.966796875 930.4566650390625 1256.350463867188 930.4566650390625 1256.350463867188 930.4566650390625 L 1570.56787109375 930.4566650390625 C 1570.56787109375 930.4566650390625 1529.47412109375 834.205078125 1436.384765625 834.205078125 C 1389.83154296875 834.205078125 1330.287353515625 858.2591552734375 1256.350463867188 930.4566650390625 C 1182.427734375 1002.640808105469 1110.885498046875 1026.7080078125 1048.36474609375 1026.7080078125 C 923.3116455078125 1026.7080078125 834.3167724609375 930.4566650390625 834.3167724609375 930.4566650390625 C 834.3167724609375 930.4566650390625 786.32421875 872.8409423828125 697.9495849609375 872.8409423828125 C 644.412109375 872.8409423828125 576.0556640625 893.984130859375 494.56787109375 961.890625 C 430.0869140625 1015.624755859375 368.073486328125 1034.482177734375 312.8394775390625 1034.482177734375 C 183.04931640625 1034.482177734375 90.56787109375 930.4566650390625 90.56787109375 930.4566650390625 L 26.56787109375 930.4566650390625 L 0 930.4566650390625 L 0 -0.0001220703125 Z M 1658.75390625 930.4566650390625 C 1675.798706054688 930.4566650390625 1681.475341796875 930.4566650390625 1681.475341796875 930.4566650390625 L 1658.75390625 930.4566650390625 Z" stroke="none" fill="#707070"/>
    </g>
    <ellipse id="Ellipse_36" data-name="Ellipse 36" cx="50" cy="48" rx="50" ry="48" transform="translate(1433 589)" fill="#5878cf"/>
  </g>
</svg>
