<svg id="bg-header-ask" xmlns="http://www.w3.org/2000/svg" width="1920" height="790" viewBox="0 0 1920 790">
  <g id="bg_header" data-name="bg header" fill="#5878cf">
    <path d="M 1570.85498046875 789.5001220703125 C 1557.267578125 789.5003662109375 1543.555419921875 789.0029907226563 1530.099243164063 788.0222778320313 C 1516.0751953125 786.9998779296875 1501.935913085938 785.4237060546875 1488.074462890625 783.3372802734375 C 1474.282104492188 781.2612915039063 1460.639038085938 778.5327758789063 1447.523803710938 775.227294921875 C 1435.035278320313 772.0794067382813 1422.614990234375 768.3048706054688 1410.608520507813 764.0084838867188 C 1399.267578125 759.9498901367188 1387.90185546875 755.2841796875 1376.8271484375 750.1410522460938 C 1366.485473632813 745.3380126953125 1356.005737304688 739.9358520507813 1345.679077148438 734.0841674804688 C 1336.069702148438 728.63916015625 1326.578857421875 722.8211059570313 1316.6640625 716.2972412109375 C 1307.837646484375 710.4896240234375 1298.881225585938 704.255615234375 1289.283081054688 697.2391967773438 C 1271.460205078125 684.2103881835938 1254.159301757813 670.4532470703125 1237.428100585938 657.14892578125 C 1218.462646484375 642.0682373046875 1198.851440429688 626.4739379882813 1178.762084960938 612.1948852539063 C 1167.95263671875 604.5115356445313 1157.841430664063 597.7889404296875 1147.850219726563 591.6425170898438 C 1136.645751953125 584.7493896484375 1125.867797851563 578.745361328125 1114.900756835938 573.2875366210938 C 1103.1357421875 567.4327392578125 1091.1162109375 562.2279663085938 1079.175659179688 557.8175048828125 C 1066.413818359375 553.1039428710938 1053.213134765625 549.100830078125 1039.940185546875 545.919677734375 C 1025.917602539063 542.5587158203125 1011.28857421875 539.9882202148438 996.4595336914063 538.2794189453125 C 980.9212036132813 536.4889526367188 964.6168823242188 535.5810546875 948 535.5810546875 C 931.4290771484375 535.5810546875 915.3816528320313 536.4839477539063 900.3035888671875 538.2646484375 C 885.9109497070313 539.9641723632813 871.9180908203125 542.5213012695313 858.7138061523438 545.8648681640625 C 846.2128295898438 549.0301513671875 833.9745483398438 553.013916015625 822.3388061523438 557.7048950195313 C 811.4502563476563 562.0949096679688 800.6664428710938 567.2763061523438 790.287353515625 573.1051025390625 C 780.6107177734375 578.5396728515625 771.2490234375 584.5182495117188 761.6669311523438 591.3829956054688 C 753.1223754882813 597.50439453125 744.5902099609375 604.2008666992188 735.5828857421875 611.8549194335938 C 718.8435668945313 626.0789184570313 702.874755859375 641.6227416992188 687.431640625 656.6549072265625 C 673.7185668945313 670.0032348632813 659.53857421875 683.8058471679688 644.6416625976563 696.8851318359375 C 636.6195068359375 703.928466796875 629.0562133789063 710.18701171875 621.52001953125 716.0180053710938 C 613.0538330078125 722.5682373046875 604.844970703125 728.4103393554688 596.424072265625 733.8782348632813 C 587.3740234375 739.754638671875 578.05859375 745.1798706054688 568.7364501953125 750.0032348632813 C 558.7523803710938 755.169189453125 548.3564453125 759.8549194335938 537.83740234375 763.9306030273438 C 526.6992797851563 768.24609375 515.0142822265625 772.0368041992188 503.1066589355469 775.197021484375 C 490.6000061035156 778.5162963867188 477.4169006347656 781.25537109375 463.9237976074219 783.3377685546875 C 450.4126281738281 785.4227294921875 436.4819030761719 786.9984741210938 422.5185852050781 788.0213012695313 C 409.1204833984375 789.0025024414063 395.3452453613281 789.5001220703125 381.5754699707031 789.5001220703125 C 357.2030944824219 789.5001220703125 331.9457092285156 787.9458618164063 306.5050048828125 784.88037109375 C 283.375 782.0934448242188 259.5735778808594 777.995361328125 235.7619018554688 772.6998901367188 C 195.6542816162109 763.7803955078125 154.7766723632813 751.3427734375 114.264762878418 735.7327270507813 C 98.34809875488281 729.5999145507813 82.45047760009766 722.95654296875 67.01333618164063 715.987060546875 C 54.66333389282227 710.4115600585938 42.57857131958008 704.6158447265625 31.09499931335449 698.7612915039063 C 13.11603355407715 689.5952758789063 2.223205327987671 683.1328125 0.5 682.0995483398438 L 0.5 0.500127375125885 L 1919.5 0.500127375125885 L 1919.5 682.1263427734375 C 1918.046875 683.1698608398438 1908.940673828125 689.626708984375 1893.542846679688 698.7808227539063 C 1883.697631835938 704.6339111328125 1873.244506835938 710.427978515625 1862.474487304688 716.0025024414063 C 1849.012329101563 722.9701538085938 1835.013793945313 729.61181640625 1820.86767578125 735.7434692382813 C 1784.861938476563 751.3496704101563 1747.694946289063 763.7841796875 1710.398803710938 772.7017822265625 C 1688.255981445313 777.996337890625 1665.820922851563 782.0936889648438 1643.716674804688 784.88037109375 C 1619.4033203125 787.9456176757813 1594.889038085938 789.4998779296875 1570.85498046875 789.5001220703125 Z" stroke="none"/>
    <path d="M 1 0.9998779296875 L 1 681.8158569335938 C 3.3304443359375 683.2061767578125 14.0416259765625 689.5053100585938 31.3038330078125 698.3063354492188 C 42.779052734375 704.1570434570313 54.85546875 709.9491577148438 67.1973876953125 715.5215454101563 C 82.6259765625 722.4874877929688 98.5147705078125 729.1277465820313 114.4228515625 735.2577514648438 C 154.9140625 750.861083984375 195.770263671875 763.29296875 235.856201171875 772.2084350585938 C 259.654052734375 777.5013427734375 283.441162109375 781.5972900390625 306.556884765625 784.3829956054688 C 331.980712890625 787.446533203125 357.220458984375 788.9998779296875 381.5751953125 788.9998779296875 C 395.3328857421875 788.9998779296875 409.095703125 788.5027465820313 422.48193359375 787.5222778320313 C 436.43212890625 786.5006103515625 450.3494873046875 784.9263305664063 463.847412109375 782.8432006835938 C 477.3231201171875 780.763671875 490.48876953125 778.0284423828125 502.9783935546875 774.7134399414063 C 514.8682861328125 771.5579833984375 526.5357666015625 767.7730102539063 537.6566162109375 763.4641723632813 C 548.1590576171875 759.3948974609375 558.53857421875 754.716552734375 568.5067138671875 749.5589599609375 C 577.8143310546875 744.7432250976563 587.115478515625 739.3262939453125 596.15185546875 733.4586791992188 C 604.5609130859375 727.9984741210938 612.7587890625 722.1641845703125 621.2139892578125 715.6224975585938 C 628.7421875 709.7977294921875 636.297607421875 703.5458374023438 644.3118896484375 696.5091552734375 C 659.1990966796875 683.4384765625 673.374267578125 669.640380859375 687.0828857421875 656.2965698242188 C 702.5318603515625 641.2586669921875 718.5069580078125 625.7089233398438 735.259033203125 611.4736938476563 C 744.277099609375 603.8108520507813 752.8199462890625 597.1060791015625 761.3759765625 590.9765625 C 770.972900390625 584.10107421875 780.3497314453125 578.1124877929688 790.0423583984375 572.669189453125 C 800.440185546875 566.8298950195313 811.2432861328125 561.63916015625 822.15185546875 557.2413330078125 C 833.808349609375 552.5418090820313 846.068359375 548.5510864257813 858.5911865234375 545.380126953125 C 871.81640625 542.0313110351563 885.8306884765625 539.4700927734375 900.2449951171875 537.7679443359375 C 915.3424072265625 535.985107421875 931.4095458984375 535.0810546875 948 535.0810546875 C 964.6359252929688 535.0810546875 980.9592895507813 535.9901123046875 996.5166625976563 537.78271484375 C 1011.36572265625 539.4937133789063 1026.014770507813 542.0677490234375 1040.056640625 545.4332275390625 C 1053.348876953125 548.619140625 1066.568603515625 552.6279907226563 1079.34912109375 557.3484497070313 C 1091.30615234375 561.76513671875 1103.342407226563 566.97705078125 1115.123291015625 572.8399047851563 C 1126.10400390625 578.304443359375 1136.894775390625 584.3156127929688 1148.1123046875 591.216552734375 C 1158.11279296875 597.3687133789063 1168.233154296875 604.0975341796875 1179.051879882813 611.7872924804688 C 1199.15185546875 626.0741577148438 1218.7685546875 641.6724853515625 1237.7392578125 656.7575073242188 C 1254.466674804688 670.0587158203125 1271.763305664063 683.8125 1289.578125 696.8353881835938 C 1299.16943359375 703.8470458984375 1308.119262695313 710.0762939453125 1316.938720703125 715.87939453125 C 1326.84423828125 722.3970336914063 1336.325927734375 728.2096557617188 1345.925537109375 733.649169921875 C 1356.240478515625 739.4939575195313 1366.7080078125 744.89013671875 1377.037841796875 749.687255859375 C 1388.098876953125 754.8241577148438 1399.4501953125 759.4841918945313 1410.777099609375 763.5375366210938 C 1422.768310546875 767.8286743164063 1435.1728515625 771.5984497070313 1447.646240234375 774.7422485351563 C 1460.745483398438 778.043701171875 1474.37255859375 780.7691650390625 1488.148803710938 782.8427734375 C 1501.997314453125 784.927001953125 1516.123779296875 786.5017700195313 1530.1357421875 787.523193359375 C 1543.579345703125 788.5029907226563 1557.279052734375 788.9998779296875 1570.85498046875 788.9998779296875 C 1594.86474609375 788.9998779296875 1619.3544921875 787.447509765625 1643.643798828125 784.3861083984375 C 1665.727172851563 781.6027221679688 1688.141479492188 777.5098876953125 1710.263793945313 772.2210693359375 C 1747.5283203125 763.312255859375 1784.66455078125 750.889404296875 1820.641235351563 735.2974853515625 C 1834.776611328125 729.1713256835938 1848.765014648438 722.534912109375 1862.217407226563 715.572998046875 C 1872.980224609375 710.0032348632813 1883.425903320313 704.2134399414063 1893.264526367188 698.3648681640625 C 1908.05126953125 689.57470703125 1917.0322265625 683.2734985351563 1919 681.8692626953125 L 1919 0.9998779296875 L 1 0.9998779296875 M 0 -0.0001220703125 L 1920 -0.0001220703125 L 1920 682.3820190429688 C 1920 682.3820190429688 1772.633178710938 789.9998779296875 1570.855102539063 789.9998779296875 C 1544.117797851563 789.9998779296875 1516.43212890625 788.1110229492188 1488 783.83154296875 C 1245 747.25634765625 1204 536.0810546875 948 536.0810546875 C 692 536.0810546875 701 747.25634765625 464 783.83154296875 C 436.284423828125 788.1087646484375 408.67041015625 789.9998779296875 381.5753173828125 789.9998779296875 C 176.9769287109375 789.9998779296875 0 682.3820190429688 0 682.3820190429688 L 0 -0.0001220703125 Z" stroke="none" fill="#707070"/>
  </g>
</svg>
