<svg xmlns="http://www.w3.org/2000/svg" width="2221.025" height="1341.098" viewBox="0 0 2221.025 1341.098">
  <g id="bg_header" data-name="bg header" transform="translate(207.646 479.211)">
    <g id="Tracé_1" data-name="Tracé 1" transform="translate(1920 950.576) rotate(180)" fill="#507ce1">
      <path d="M1920,950.576h0Z" stroke="none"/>
      <path d="M 0 950.57568359375 L 1920 950.57568359375 L 0 950.57568359375 Z" stroke="none" fill="#707070"/>
    </g>
    <g id="Tracé_2" data-name="Tracé 2" transform="matrix(0.978, -0.208, 0.208, 0.978, -207.646, -48.237)" fill="#5878cf" stroke-linecap="round" stroke-linejoin="round">
      <path d="M 2072.370361328125 929.9567260742188 L 1658.75390625 929.9567260742188 L 1256.350463867188 929.9567260742188 L 1056.7841796875 929.9567260742188 L 834.3170166015625 929.9567260742188 L 503.8878173828125 929.9567260742188 L 333.7659606933594 929.9567260742188 L 261.79150390625 929.9567260742188 L 173.4588623046875 929.9567260742188 L 0.4999175071716309 929.9567260742188 L 0.4999175071716309 0.5001441240310669 L 2072.370361328125 0.5001441240310669 L 2072.370361328125 929.9567260742188 Z" stroke="none"/>
      <path d="M 1 0.9998779296875 L 1 929.4564819335938 L 173.4586181640625 929.4564819335938 L 261.79150390625 929.4564819335938 L 333.7659912109375 929.4564819335938 L 503.8878173828125 929.4564819335938 L 834.3167724609375 929.4564819335938 L 1056.7841796875 929.4564819335938 L 1256.350463867188 929.4564819335938 L 1658.75390625 929.4564819335938 L 2071.870361328125 929.4564819335938 L 2071.870361328125 0.9998779296875 L 1 0.9998779296875 M 0 -0.0001220703125 L 2072.870361328125 -0.0001220703125 L 2072.870361328125 930.4564819335938 L 1658.75390625 930.4564819335938 L 1256.350463867188 930.4564819335938 L 1056.7841796875 930.4564819335938 L 834.3167724609375 930.4564819335938 L 503.8878173828125 930.4564819335938 L 333.7659912109375 930.4564819335938 L 261.79150390625 930.4564819335938 L 173.4586181640625 930.4564819335938 L 0 930.4564819335938 L 0 -0.0001220703125 Z" stroke="none" fill="#707070"/>
    </g>
  </g>
</svg>
